<svg width="1363" height="167" viewBox="0 0 1363 167" fill="none" xmlns="http://www.w3.org/2000/svg">
<rect width="1363" height="167" rx="15" fill="#F0F0F0"/>
<path d="M0 15C0 6.71573 6.71573 0 15 0H37V167H15C6.71573 167 0 160.284 0 152V15Z" fill="#424241"/>
<path d="M104.492 55.2578V58H95.9023V55.2578H104.492ZM97.0391 40.9375V58H93.5234V40.9375H97.0391ZM112.133 58.2344C111.148 58.2344 110.266 58.0781 109.484 57.7656C108.703 57.4453 108.039 57.0039 107.492 56.4414C106.953 55.8789 106.539 55.2266 106.25 54.4844C105.961 53.7344 105.816 52.9375 105.816 52.0938V51.625C105.816 50.6641 105.953 49.7852 106.227 48.9883C106.5 48.1914 106.891 47.5 107.398 46.9141C107.914 46.3281 108.539 45.8789 109.273 45.5664C110.008 45.2461 110.836 45.0859 111.758 45.0859C112.656 45.0859 113.453 45.2344 114.148 45.5312C114.844 45.8281 115.426 46.25 115.895 46.7969C116.371 47.3438 116.73 48 116.973 48.7656C117.215 49.5234 117.336 50.3672 117.336 51.2969V52.7031H107.258V50.4531H114.02V50.1953C114.02 49.7266 113.934 49.3086 113.762 48.9414C113.598 48.5664 113.348 48.2695 113.012 48.0508C112.676 47.832 112.246 47.7227 111.723 47.7227C111.277 47.7227 110.895 47.8203 110.574 48.0156C110.254 48.2109 109.992 48.4844 109.789 48.8359C109.594 49.1875 109.445 49.6016 109.344 50.0781C109.25 50.5469 109.203 51.0625 109.203 51.625V52.0938C109.203 52.6016 109.273 53.0703 109.414 53.5C109.562 53.9297 109.77 54.3008 110.035 54.6133C110.309 54.9258 110.637 55.168 111.02 55.3398C111.41 55.5117 111.852 55.5977 112.344 55.5977C112.953 55.5977 113.52 55.4805 114.043 55.2461C114.574 55.0039 115.031 54.6406 115.414 54.1562L117.055 55.9375C116.789 56.3203 116.426 56.6875 115.965 57.0391C115.512 57.3906 114.965 57.6797 114.324 57.9062C113.684 58.125 112.953 58.2344 112.133 58.2344ZM125.469 45.3203V47.7109H118.086V45.3203H125.469ZM119.914 42.1914H123.289V54.1797C123.289 54.5469 123.336 54.8281 123.43 55.0234C123.531 55.2188 123.68 55.3555 123.875 55.4336C124.07 55.5039 124.316 55.5391 124.613 55.5391C124.824 55.5391 125.012 55.5312 125.176 55.5156C125.348 55.4922 125.492 55.4688 125.609 55.4453L125.621 57.9297C125.332 58.0234 125.02 58.0977 124.684 58.1523C124.348 58.207 123.977 58.2344 123.57 58.2344C122.828 58.2344 122.18 58.1133 121.625 57.8711C121.078 57.6211 120.656 57.2227 120.359 56.6758C120.062 56.1289 119.914 55.4102 119.914 54.5195V42.1914ZM134.246 54.4961C134.246 54.2539 134.176 54.0352 134.035 53.8398C133.895 53.6445 133.633 53.4648 133.25 53.3008C132.875 53.1289 132.332 52.9727 131.621 52.832C130.98 52.6914 130.383 52.5156 129.828 52.3047C129.281 52.0859 128.805 51.8242 128.398 51.5195C128 51.2148 127.688 50.8555 127.461 50.4414C127.234 50.0195 127.121 49.5391 127.121 49C127.121 48.4688 127.234 47.9688 127.461 47.5C127.695 47.0312 128.027 46.6172 128.457 46.2578C128.895 45.8906 129.426 45.6055 130.051 45.4023C130.684 45.1914 131.395 45.0859 132.184 45.0859C133.285 45.0859 134.23 45.2617 135.02 45.6133C135.816 45.9648 136.426 46.4492 136.848 47.0664C137.277 47.6758 137.492 48.3711 137.492 49.1523H134.117C134.117 48.8242 134.047 48.5312 133.906 48.2734C133.773 48.0078 133.562 47.8008 133.273 47.6523C132.992 47.4961 132.625 47.418 132.172 47.418C131.797 47.418 131.473 47.4844 131.199 47.6172C130.926 47.7422 130.715 47.9141 130.566 48.1328C130.426 48.3438 130.355 48.5781 130.355 48.8359C130.355 49.0312 130.395 49.207 130.473 49.3633C130.559 49.5117 130.695 49.6484 130.883 49.7734C131.07 49.8984 131.312 50.0156 131.609 50.125C131.914 50.2266 132.289 50.3203 132.734 50.4062C133.648 50.5938 134.465 50.8398 135.184 51.1445C135.902 51.4414 136.473 51.8477 136.895 52.3633C137.316 52.8711 137.527 53.5391 137.527 54.3672C137.527 54.9297 137.402 55.4453 137.152 55.9141C136.902 56.3828 136.543 56.793 136.074 57.1445C135.605 57.4883 135.043 57.7578 134.387 57.9531C133.738 58.1406 133.008 58.2344 132.195 58.2344C131.016 58.2344 130.016 58.0234 129.195 57.6016C128.383 57.1797 127.766 56.6445 127.344 55.9961C126.93 55.3398 126.723 54.668 126.723 53.9805H129.922C129.938 54.4414 130.055 54.8125 130.273 55.0938C130.5 55.375 130.785 55.5781 131.129 55.7031C131.48 55.8281 131.859 55.8906 132.266 55.8906C132.703 55.8906 133.066 55.832 133.355 55.7148C133.645 55.5898 133.863 55.4258 134.012 55.2227C134.168 55.0117 134.246 54.7695 134.246 54.4961ZM154.789 53.5352C154.789 53.2305 154.742 52.957 154.648 52.7148C154.562 52.4648 154.398 52.2383 154.156 52.0352C153.914 51.8242 153.574 51.6172 153.137 51.4141C152.699 51.2109 152.133 51 151.438 50.7812C150.664 50.5312 149.93 50.25 149.234 49.9375C148.547 49.625 147.938 49.2617 147.406 48.8477C146.883 48.4258 146.469 47.9375 146.164 47.3828C145.867 46.8281 145.719 46.1836 145.719 45.4492C145.719 44.7383 145.875 44.0938 146.188 43.5156C146.5 42.9297 146.938 42.4297 147.5 42.0156C148.062 41.5938 148.727 41.2695 149.492 41.043C150.266 40.8164 151.113 40.7031 152.035 40.7031C153.293 40.7031 154.391 40.9297 155.328 41.3828C156.266 41.8359 156.992 42.457 157.508 43.2461C158.031 44.0352 158.293 44.9375 158.293 45.9531H154.801C154.801 45.4531 154.695 45.0156 154.484 44.6406C154.281 44.2578 153.969 43.957 153.547 43.7383C153.133 43.5195 152.609 43.4102 151.977 43.4102C151.367 43.4102 150.859 43.5039 150.453 43.6914C150.047 43.8711 149.742 44.1172 149.539 44.4297C149.336 44.7344 149.234 45.0781 149.234 45.4609C149.234 45.75 149.305 46.0117 149.445 46.2461C149.594 46.4805 149.812 46.6992 150.102 46.9023C150.391 47.1055 150.746 47.2969 151.168 47.4766C151.59 47.6562 152.078 47.832 152.633 48.0039C153.562 48.2852 154.379 48.6016 155.082 48.9531C155.793 49.3047 156.387 49.6992 156.863 50.1367C157.34 50.5742 157.699 51.0703 157.941 51.625C158.184 52.1797 158.305 52.8086 158.305 53.5117C158.305 54.2539 158.16 54.918 157.871 55.5039C157.582 56.0898 157.164 56.5859 156.617 56.9922C156.07 57.3984 155.418 57.707 154.66 57.918C153.902 58.1289 153.055 58.2344 152.117 58.2344C151.273 58.2344 150.441 58.125 149.621 57.9062C148.801 57.6797 148.055 57.3398 147.383 56.8867C146.719 56.4336 146.188 55.8555 145.789 55.1523C145.391 54.4492 145.191 53.6172 145.191 52.6562H148.719C148.719 53.1875 148.801 53.6367 148.965 54.0039C149.129 54.3711 149.359 54.668 149.656 54.8945C149.961 55.1211 150.32 55.2852 150.734 55.3867C151.156 55.4883 151.617 55.5391 152.117 55.5391C152.727 55.5391 153.227 55.4531 153.617 55.2812C154.016 55.1094 154.309 54.8711 154.496 54.5664C154.691 54.2617 154.789 53.918 154.789 53.5352ZM166.695 45.3203V47.7109H159.312V45.3203H166.695ZM161.141 42.1914H164.516V54.1797C164.516 54.5469 164.562 54.8281 164.656 55.0234C164.758 55.2188 164.906 55.3555 165.102 55.4336C165.297 55.5039 165.543 55.5391 165.84 55.5391C166.051 55.5391 166.238 55.5312 166.402 55.5156C166.574 55.4922 166.719 55.4688 166.836 55.4453L166.848 57.9297C166.559 58.0234 166.246 58.0977 165.91 58.1523C165.574 58.207 165.203 58.2344 164.797 58.2344C164.055 58.2344 163.406 58.1133 162.852 57.8711C162.305 57.6211 161.883 57.2227 161.586 56.6758C161.289 56.1289 161.141 55.4102 161.141 54.5195V42.1914ZM176.117 54.9648V45.3203H179.492V58H176.316L176.117 54.9648ZM176.492 52.3633L177.488 52.3398C177.488 53.1836 177.391 53.9688 177.195 54.6953C177 55.4141 176.707 56.0391 176.316 56.5703C175.926 57.0938 175.434 57.5039 174.84 57.8008C174.246 58.0898 173.547 58.2344 172.742 58.2344C172.125 58.2344 171.555 58.1484 171.031 57.9766C170.516 57.7969 170.07 57.5195 169.695 57.1445C169.328 56.7617 169.039 56.2734 168.828 55.6797C168.625 55.0781 168.523 54.3555 168.523 53.5117V45.3203H171.898V53.5352C171.898 53.9102 171.941 54.2266 172.027 54.4844C172.121 54.7422 172.25 54.9531 172.414 55.1172C172.578 55.2812 172.77 55.3984 172.988 55.4688C173.215 55.5391 173.465 55.5742 173.738 55.5742C174.434 55.5742 174.98 55.4336 175.379 55.1523C175.785 54.8711 176.07 54.4883 176.234 54.0039C176.406 53.5117 176.492 52.9648 176.492 52.3633ZM189.559 55.2344V40H192.957V58H189.898L189.559 55.2344ZM181.543 51.8125V51.5664C181.543 50.5977 181.652 49.7188 181.871 48.9297C182.09 48.1328 182.41 47.4492 182.832 46.8789C183.254 46.3086 183.773 45.8672 184.391 45.5547C185.008 45.2422 185.711 45.0859 186.5 45.0859C187.242 45.0859 187.891 45.2422 188.445 45.5547C189.008 45.8672 189.484 46.3125 189.875 46.8906C190.273 47.4609 190.594 48.1367 190.836 48.918C191.078 49.6914 191.254 50.5391 191.363 51.4609V52C191.254 52.8828 191.078 53.7031 190.836 54.4609C190.594 55.2188 190.273 55.8828 189.875 56.4531C189.484 57.0156 189.008 57.4531 188.445 57.7656C187.883 58.0781 187.227 58.2344 186.477 58.2344C185.688 58.2344 184.984 58.0742 184.367 57.7539C183.758 57.4336 183.242 56.9844 182.82 56.4062C182.406 55.8281 182.09 55.1484 181.871 54.3672C181.652 53.5859 181.543 52.7344 181.543 51.8125ZM184.918 51.5664V51.8125C184.918 52.3359 184.957 52.8242 185.035 53.2773C185.121 53.7305 185.258 54.1328 185.445 54.4844C185.641 54.8281 185.891 55.0977 186.195 55.293C186.508 55.4805 186.887 55.5742 187.332 55.5742C187.91 55.5742 188.387 55.4453 188.762 55.1875C189.137 54.9219 189.422 54.5586 189.617 54.0977C189.82 53.6367 189.938 53.1055 189.969 52.5039V50.9688C189.945 50.4766 189.875 50.0352 189.758 49.6445C189.648 49.2461 189.484 48.9062 189.266 48.625C189.055 48.3438 188.789 48.125 188.469 47.9688C188.156 47.8125 187.785 47.7344 187.355 47.7344C186.918 47.7344 186.543 47.8359 186.23 48.0391C185.918 48.2344 185.664 48.5039 185.469 48.8477C185.281 49.1914 185.141 49.5977 185.047 50.0664C184.961 50.5273 184.918 51.0273 184.918 51.5664ZM199.355 56.5703L202.719 45.3203H206.34L201.242 59.9102C201.133 60.2305 200.984 60.5742 200.797 60.9414C200.617 61.3086 200.371 61.6562 200.059 61.9844C199.754 62.3203 199.367 62.5938 198.898 62.8047C198.438 63.0156 197.871 63.1211 197.199 63.1211C196.879 63.1211 196.617 63.1016 196.414 63.0625C196.211 63.0234 195.969 62.9688 195.688 62.8984V60.4258C195.773 60.4258 195.863 60.4258 195.957 60.4258C196.051 60.4336 196.141 60.4375 196.227 60.4375C196.672 60.4375 197.035 60.3867 197.316 60.2852C197.598 60.1836 197.824 60.0273 197.996 59.8164C198.168 59.6133 198.305 59.3477 198.406 59.0195L199.355 56.5703ZM197.949 45.3203L200.703 54.5078L201.184 58.082L198.887 58.3281L194.328 45.3203H197.949Z" fill="#888888"/>
<path d="M101.822 115.1L108.194 86.0078H111.995L114.061 88.4907L107.271 118H103.074L101.822 115.1ZM100.13 86.0078L105.513 115.319L104.129 118H99.2729L92.4834 86.0078H100.13ZM117.554 115.166L122.894 86.0078H130.518L123.729 118H118.895L117.554 115.166ZM114.742 86.0078L121.268 115.275L119.949 118H115.752L108.809 88.4468L110.962 86.0078H114.742ZM141.021 94.2256V118H133.594V94.2256H141.021ZM133.155 88.0952C133.155 87.0405 133.536 86.1763 134.297 85.5024C135.059 84.8286 136.048 84.4917 137.264 84.4917C138.479 84.4917 139.468 84.8286 140.23 85.5024C140.992 86.1763 141.373 87.0405 141.373 88.0952C141.373 89.1499 140.992 90.0142 140.23 90.688C139.468 91.3618 138.479 91.6987 137.264 91.6987C136.048 91.6987 135.059 91.3618 134.297 90.688C133.536 90.0142 133.155 89.1499 133.155 88.0952ZM153.062 100.114V118H145.657V94.2256H152.579L153.062 100.114ZM160.093 94.0498L159.961 100.927C159.668 100.898 159.273 100.861 158.775 100.817C158.277 100.773 157.859 100.751 157.522 100.751C156.658 100.751 155.911 100.854 155.281 101.059C154.666 101.25 154.153 101.542 153.743 101.938C153.348 102.319 153.055 102.802 152.864 103.388C152.688 103.974 152.608 104.655 152.623 105.432L151.282 104.553C151.282 102.956 151.436 101.506 151.744 100.202C152.066 98.8838 152.52 97.7485 153.106 96.7964C153.692 95.8296 154.402 95.0898 155.237 94.5771C156.072 94.0498 157.01 93.7861 158.05 93.7861C158.416 93.7861 158.775 93.8081 159.126 93.8521C159.493 93.896 159.815 93.9619 160.093 94.0498ZM173.716 118.439C171.783 118.439 170.054 118.139 168.531 117.539C167.007 116.923 165.718 116.081 164.664 115.012C163.624 113.942 162.825 112.712 162.269 111.32C161.727 109.929 161.456 108.457 161.456 106.904V106.069C161.456 104.326 161.697 102.714 162.181 101.235C162.664 99.7407 163.382 98.437 164.334 97.3237C165.286 96.2104 166.48 95.3462 167.916 94.731C169.351 94.1011 171.021 93.7861 172.925 93.7861C174.61 93.7861 176.119 94.0571 177.452 94.5991C178.785 95.1411 179.913 95.9175 180.835 96.9282C181.773 97.939 182.483 99.1621 182.967 100.598C183.465 102.033 183.714 103.645 183.714 105.432V108.442H164.29V103.806H176.485V103.234C176.5 102.443 176.36 101.77 176.067 101.213C175.789 100.656 175.379 100.231 174.837 99.9385C174.295 99.6455 173.636 99.499 172.859 99.499C172.054 99.499 171.387 99.6748 170.86 100.026C170.347 100.378 169.944 100.861 169.651 101.477C169.373 102.077 169.175 102.773 169.058 103.564C168.941 104.355 168.882 105.19 168.882 106.069V106.904C168.882 107.783 169 108.581 169.234 109.299C169.483 110.017 169.834 110.632 170.289 111.145C170.757 111.643 171.314 112.031 171.958 112.309C172.618 112.587 173.365 112.727 174.2 112.727C175.21 112.727 176.207 112.536 177.188 112.155C178.169 111.774 179.012 111.145 179.715 110.266L183.077 114.265C182.593 114.953 181.905 115.62 181.011 116.264C180.132 116.909 179.078 117.436 177.847 117.846C176.617 118.242 175.24 118.439 173.716 118.439ZM195.799 118H188.35V92.292C188.35 90.4463 188.724 88.8936 189.471 87.6338C190.218 86.374 191.272 85.4219 192.635 84.7773C193.997 84.1182 195.608 83.7886 197.469 83.7886C198.113 83.7886 198.721 83.8325 199.292 83.9204C199.864 84.0083 200.42 84.1182 200.962 84.25L200.984 89.6992C200.721 89.626 200.45 89.5747 200.171 89.5454C199.893 89.5161 199.549 89.5015 199.139 89.5015C198.421 89.5015 197.813 89.6113 197.315 89.8311C196.817 90.0361 196.436 90.3511 196.172 90.7759C195.923 91.186 195.799 91.6914 195.799 92.292V118ZM200.413 94.2256V99.3672H184.922V94.2256H200.413ZM210.542 100.114V118H203.138V94.2256H210.059L210.542 100.114ZM217.574 94.0498L217.442 100.927C217.149 100.898 216.753 100.861 216.255 100.817C215.757 100.773 215.34 100.751 215.003 100.751C214.139 100.751 213.392 100.854 212.762 101.059C212.146 101.25 211.634 101.542 211.224 101.938C210.828 102.319 210.535 102.802 210.345 103.388C210.169 103.974 210.088 104.655 210.103 105.432L208.763 104.553C208.763 102.956 208.917 101.506 209.224 100.202C209.546 98.8838 210 97.7485 210.586 96.7964C211.172 95.8296 211.883 95.0898 212.718 94.5771C213.553 94.0498 214.49 93.7861 215.53 93.7861C215.896 93.7861 216.255 93.8081 216.607 93.8521C216.973 93.896 217.295 93.9619 217.574 94.0498ZM231.812 112.023V102.224C231.812 101.55 231.717 100.971 231.526 100.488C231.336 100.004 231.036 99.6309 230.625 99.3672C230.215 99.0889 229.666 98.9497 228.978 98.9497C228.421 98.9497 227.945 99.0449 227.549 99.2354C227.154 99.4258 226.854 99.7114 226.648 100.092C226.443 100.473 226.341 100.957 226.341 101.542H218.936C218.936 100.444 219.178 99.4258 219.661 98.4883C220.159 97.5361 220.862 96.7085 221.771 96.0054C222.693 95.3022 223.792 94.7603 225.066 94.3794C226.355 93.9839 227.791 93.7861 229.373 93.7861C231.263 93.7861 232.947 94.1011 234.427 94.731C235.921 95.3608 237.1 96.3057 237.964 97.5654C238.829 98.8105 239.261 100.378 239.261 102.268V112.001C239.261 113.554 239.349 114.733 239.524 115.539C239.7 116.33 239.949 117.026 240.271 117.626V118H232.845C232.493 117.268 232.229 116.374 232.054 115.319C231.893 114.25 231.812 113.151 231.812 112.023ZM232.713 103.476L232.757 107.431H229.483C228.794 107.431 228.208 107.526 227.725 107.717C227.256 107.907 226.875 108.171 226.583 108.508C226.304 108.83 226.099 109.196 225.967 109.606C225.85 110.017 225.792 110.449 225.792 110.903C225.792 111.342 225.894 111.738 226.099 112.089C226.319 112.426 226.612 112.69 226.978 112.88C227.344 113.071 227.754 113.166 228.208 113.166C229.029 113.166 229.725 113.012 230.296 112.705C230.882 112.382 231.329 111.994 231.636 111.54C231.944 111.086 232.098 110.661 232.098 110.266L233.724 113.298C233.431 113.884 233.094 114.477 232.713 115.078C232.347 115.678 231.885 116.235 231.329 116.748C230.787 117.246 230.12 117.656 229.329 117.978C228.538 118.286 227.579 118.439 226.451 118.439C224.986 118.439 223.638 118.139 222.408 117.539C221.192 116.938 220.218 116.103 219.485 115.034C218.753 113.95 218.387 112.705 218.387 111.298C218.387 110.068 218.606 108.969 219.046 108.002C219.5 107.036 220.181 106.215 221.089 105.542C221.998 104.868 223.155 104.355 224.561 104.003C225.967 103.652 227.623 103.476 229.527 103.476H232.713ZM250.84 99.2573V118H243.436V94.2256H250.379L250.84 99.2573ZM249.939 105.3L248.248 105.344C248.248 103.674 248.445 102.136 248.841 100.729C249.236 99.3232 249.822 98.1001 250.599 97.0601C251.375 96.02 252.327 95.2144 253.455 94.6431C254.598 94.0718 255.916 93.7861 257.41 93.7861C258.45 93.7861 259.395 93.9473 260.245 94.2695C261.094 94.5771 261.827 95.0679 262.442 95.7417C263.057 96.4009 263.526 97.2651 263.848 98.3345C264.185 99.3892 264.354 100.656 264.354 102.136V118H256.949V103.081C256.949 102.07 256.832 101.308 256.597 100.795C256.377 100.283 256.055 99.9385 255.63 99.7627C255.206 99.5869 254.686 99.499 254.07 99.499C253.426 99.499 252.847 99.6455 252.334 99.9385C251.822 100.231 251.382 100.642 251.016 101.169C250.665 101.682 250.394 102.29 250.203 102.993C250.027 103.696 249.939 104.465 249.939 105.3ZM263.519 105.3L261.453 105.344C261.453 103.674 261.636 102.136 262.002 100.729C262.383 99.3232 262.947 98.1001 263.694 97.0601C264.456 96.02 265.401 95.2144 266.529 94.6431C267.657 94.0718 268.968 93.7861 270.462 93.7861C271.546 93.7861 272.542 93.9473 273.45 94.2695C274.358 94.5918 275.142 95.1118 275.801 95.8296C276.46 96.5474 276.973 97.4995 277.339 98.686C277.706 99.8579 277.889 101.308 277.889 103.037V118H270.462V103.037C270.462 102.055 270.345 101.315 270.11 100.817C269.891 100.305 269.568 99.9604 269.144 99.7847C268.719 99.5942 268.213 99.499 267.627 99.499C266.924 99.499 266.316 99.6455 265.804 99.9385C265.291 100.231 264.859 100.642 264.507 101.169C264.17 101.682 263.921 102.29 263.76 102.993C263.599 103.696 263.519 104.465 263.519 105.3ZM293.643 118.439C291.709 118.439 289.981 118.139 288.458 117.539C286.934 116.923 285.645 116.081 284.59 115.012C283.55 113.942 282.752 112.712 282.195 111.32C281.653 109.929 281.382 108.457 281.382 106.904V106.069C281.382 104.326 281.624 102.714 282.107 101.235C282.591 99.7407 283.309 98.437 284.261 97.3237C285.213 96.2104 286.407 95.3462 287.842 94.731C289.278 94.1011 290.948 93.7861 292.852 93.7861C294.537 93.7861 296.045 94.0571 297.378 94.5991C298.711 95.1411 299.839 95.9175 300.762 96.9282C301.7 97.939 302.41 99.1621 302.894 100.598C303.392 102.033 303.641 103.645 303.641 105.432V108.442H284.217V103.806H296.412V103.234C296.426 102.443 296.287 101.77 295.994 101.213C295.716 100.656 295.306 100.231 294.764 99.9385C294.222 99.6455 293.562 99.499 292.786 99.499C291.98 99.499 291.314 99.6748 290.787 100.026C290.274 100.378 289.871 100.861 289.578 101.477C289.3 102.077 289.102 102.773 288.985 103.564C288.868 104.355 288.809 105.19 288.809 106.069V106.904C288.809 107.783 288.926 108.581 289.161 109.299C289.41 110.017 289.761 110.632 290.215 111.145C290.684 111.643 291.241 112.031 291.885 112.309C292.544 112.587 293.292 112.727 294.126 112.727C295.137 112.727 296.133 112.536 297.115 112.155C298.096 111.774 298.938 111.145 299.642 110.266L303.003 114.265C302.52 114.953 301.832 115.62 300.938 116.264C300.059 116.909 299.004 117.436 297.774 117.846C296.543 118.242 295.167 118.439 293.643 118.439ZM319.109 111.32C319.109 110.91 318.97 110.559 318.692 110.266C318.428 109.958 317.959 109.68 317.286 109.431C316.612 109.167 315.667 108.903 314.451 108.64C313.294 108.391 312.203 108.061 311.177 107.651C310.167 107.241 309.28 106.743 308.519 106.157C307.757 105.571 307.156 104.875 306.717 104.069C306.292 103.264 306.08 102.341 306.08 101.301C306.08 100.29 306.292 99.3379 306.717 98.4443C307.156 97.5361 307.793 96.7378 308.628 96.0493C309.478 95.3462 310.511 94.7969 311.727 94.4014C312.942 93.9912 314.327 93.7861 315.879 93.7861C318.018 93.7861 319.864 94.1157 321.417 94.7749C322.969 95.4194 324.163 96.3276 324.998 97.4995C325.848 98.6567 326.272 99.9971 326.272 101.521H318.868C318.868 100.92 318.765 100.407 318.56 99.9824C318.37 99.5576 318.055 99.2354 317.615 99.0156C317.176 98.7812 316.59 98.6641 315.857 98.6641C315.345 98.6641 314.876 98.7593 314.451 98.9497C314.041 99.1401 313.711 99.4038 313.462 99.7407C313.213 100.078 313.089 100.473 313.089 100.927C313.089 101.25 313.162 101.542 313.309 101.806C313.47 102.055 313.711 102.29 314.034 102.509C314.356 102.714 314.766 102.905 315.264 103.081C315.762 103.242 316.363 103.388 317.066 103.52C318.663 103.813 320.157 104.23 321.548 104.772C322.94 105.314 324.068 106.083 324.932 107.08C325.811 108.076 326.25 109.416 326.25 111.101C326.25 112.155 326.009 113.129 325.525 114.023C325.042 114.902 324.346 115.678 323.438 116.352C322.53 117.011 321.438 117.524 320.164 117.89C318.89 118.256 317.454 118.439 315.857 118.439C313.587 118.439 311.668 118.037 310.101 117.231C308.533 116.411 307.347 115.385 306.541 114.155C305.75 112.91 305.354 111.65 305.354 110.375H312.254C312.283 111.108 312.459 111.708 312.781 112.177C313.118 112.646 313.565 112.99 314.122 113.21C314.678 113.43 315.323 113.54 316.055 113.54C316.729 113.54 317.286 113.444 317.725 113.254C318.179 113.063 318.523 112.807 318.758 112.485C318.992 112.148 319.109 111.76 319.109 111.32Z" fill="#424241"/>
<path d="M1363 15C1363 6.71573 1356.28 0 1348 0H1134V167H1348C1356.28 167 1363 160.284 1363 152V15Z" fill="#186485"/>
<path fill-rule="evenodd" clip-rule="evenodd" d="M1203 49C1203 47.8954 1203.9 47 1205 47H1292.5C1293.6 47 1294.5 47.8954 1294.5 49V118.996C1294.5 120.101 1293.6 120.996 1292.5 120.996H1205C1203.9 120.996 1203 120.101 1203 118.996V49ZM1207 51V55.4945H1290.5V51H1207ZM1290.5 59.4945H1235.44V116.996H1290.5V59.4945ZM1231.44 116.996V59.4945H1207V116.996H1231.44Z" fill="white"/>
<path fill-rule="evenodd" clip-rule="evenodd" d="M1209.97 64.8004C1209.97 63.6958 1210.87 62.8004 1211.97 62.8004H1225.97C1227.08 62.8004 1227.97 63.6958 1227.97 64.8004V84.1956C1227.97 85.3001 1227.08 86.1956 1225.97 86.1956H1211.97C1210.87 86.1956 1209.97 85.3001 1209.97 84.1956V64.8004ZM1213.97 66.8004V82.1956H1223.97V66.8004H1213.97ZM1239.58 65.6964C1239.58 64.5918 1240.47 63.6964 1241.58 63.6964H1284.5C1285.61 63.6964 1286.5 64.5918 1286.5 65.6964V111.905C1286.5 113.01 1285.61 113.905 1284.5 113.905H1241.58C1240.47 113.905 1239.58 113.01 1239.58 111.905V65.6964ZM1243.58 67.6964V109.905H1282.5V67.6964H1243.58ZM1209.81 95.9363C1209.81 94.8317 1210.71 93.9363 1211.81 93.9363H1220.73C1221.84 93.9363 1222.73 94.8317 1222.73 95.9363C1222.73 97.0409 1221.84 97.9363 1220.73 97.9363H1211.81C1210.71 97.9363 1209.81 97.0409 1209.81 95.9363ZM1209.81 102.936C1209.81 101.832 1210.71 100.936 1211.81 100.936H1226.35C1227.46 100.936 1228.35 101.832 1228.35 102.936C1228.35 104.041 1227.46 104.936 1226.35 104.936H1211.81C1210.71 104.936 1209.81 104.041 1209.81 102.936ZM1209.81 109.936C1209.81 108.832 1210.71 107.936 1211.81 107.936H1220.73C1221.84 107.936 1222.73 108.832 1222.73 109.936C1222.73 111.041 1221.84 111.936 1220.73 111.936H1211.81C1210.71 111.936 1209.81 111.041 1209.81 109.936Z" fill="white"/>
</svg>
