<svg width="1363" height="301" viewBox="0 0 1363 301" fill="none" xmlns="http://www.w3.org/2000/svg">
<rect width="1363" height="301" rx="15" fill="#F0F0F0"/>
<path d="M0 15C0 6.71573 6.71573 0 15 0H37V301H15C6.71573 301 0 294.284 0 286V15Z" fill="#186485"/>
<path d="M120.816 136.749V144H101.05V136.749H120.816ZM104.407 104.898V144H94.981V104.898H104.407ZM138.433 144.537C136.07 144.537 133.957 144.17 132.095 143.436C130.233 142.684 128.658 141.655 127.369 140.348C126.097 139.041 125.122 137.537 124.441 135.836C123.779 134.135 123.448 132.336 123.448 130.438V129.417C123.448 127.287 123.743 125.318 124.334 123.509C124.925 121.683 125.802 120.09 126.966 118.729C128.13 117.368 129.589 116.312 131.343 115.56C133.098 114.79 135.139 114.405 137.466 114.405C139.525 114.405 141.369 114.736 142.999 115.399C144.628 116.061 146.006 117.01 147.134 118.246C148.28 119.481 149.148 120.976 149.739 122.73C150.348 124.485 150.652 126.454 150.652 128.639V132.318H126.912V126.651H141.817V125.953C141.835 124.986 141.665 124.163 141.307 123.482C140.966 122.802 140.465 122.283 139.803 121.925C139.14 121.567 138.335 121.388 137.386 121.388C136.401 121.388 135.586 121.603 134.942 122.032C134.315 122.462 133.823 123.053 133.465 123.805C133.125 124.539 132.883 125.389 132.74 126.356C132.597 127.323 132.525 128.343 132.525 129.417V130.438C132.525 131.512 132.668 132.488 132.955 133.365C133.259 134.243 133.689 134.994 134.244 135.621C134.817 136.23 135.497 136.704 136.285 137.044C137.09 137.385 138.003 137.555 139.024 137.555C140.259 137.555 141.477 137.322 142.676 136.856C143.876 136.391 144.905 135.621 145.765 134.547L149.874 139.435C149.283 140.276 148.441 141.091 147.349 141.878C146.275 142.666 144.986 143.311 143.482 143.812C141.978 144.295 140.295 144.537 138.433 144.537ZM169.639 114.942V121.227H152.129V114.942H169.639ZM155.809 107.718H164.859V134.52C164.859 135.29 164.948 135.89 165.127 136.319C165.306 136.731 165.611 137.027 166.041 137.206C166.488 137.367 167.079 137.447 167.813 137.447C168.332 137.447 168.762 137.438 169.102 137.42C169.442 137.385 169.764 137.34 170.069 137.286V143.758C169.299 144.009 168.493 144.197 167.652 144.322C166.81 144.465 165.915 144.537 164.966 144.537C163.033 144.537 161.377 144.233 159.998 143.624C158.637 143.015 157.599 142.057 156.883 140.75C156.167 139.444 155.809 137.743 155.809 135.648V107.718ZM188.465 135.836C188.465 135.335 188.295 134.905 187.955 134.547C187.632 134.171 187.059 133.831 186.236 133.526C185.412 133.204 184.257 132.882 182.771 132.56C181.357 132.255 180.023 131.852 178.77 131.351C177.535 130.85 176.451 130.241 175.521 129.525C174.59 128.809 173.855 127.958 173.318 126.974C172.799 125.989 172.54 124.861 172.54 123.59C172.54 122.354 172.799 121.191 173.318 120.099C173.855 118.989 174.634 118.013 175.655 117.171C176.693 116.312 177.955 115.641 179.441 115.157C180.927 114.656 182.619 114.405 184.517 114.405C187.131 114.405 189.387 114.808 191.285 115.614C193.182 116.402 194.642 117.512 195.662 118.944C196.701 120.358 197.22 121.996 197.22 123.858H188.169C188.169 123.124 188.044 122.498 187.793 121.979C187.561 121.459 187.176 121.065 186.639 120.797C186.102 120.51 185.385 120.367 184.49 120.367C183.864 120.367 183.291 120.484 182.771 120.716C182.27 120.949 181.867 121.271 181.563 121.683C181.259 122.095 181.106 122.578 181.106 123.133C181.106 123.527 181.196 123.885 181.375 124.208C181.572 124.512 181.867 124.798 182.261 125.067C182.655 125.318 183.156 125.55 183.765 125.765C184.374 125.962 185.108 126.141 185.967 126.302C187.919 126.66 189.745 127.171 191.446 127.833C193.147 128.495 194.525 129.435 195.582 130.653C196.656 131.87 197.193 133.508 197.193 135.567C197.193 136.856 196.897 138.047 196.307 139.139C195.716 140.213 194.865 141.162 193.755 141.986C192.645 142.792 191.312 143.418 189.754 143.866C188.196 144.313 186.442 144.537 184.49 144.537C181.715 144.537 179.37 144.045 177.454 143.06C175.538 142.057 174.088 140.804 173.104 139.3C172.137 137.778 171.653 136.239 171.653 134.681H180.086C180.122 135.576 180.337 136.31 180.73 136.883C181.142 137.456 181.688 137.877 182.369 138.146C183.049 138.414 183.837 138.548 184.732 138.548C185.556 138.548 186.236 138.432 186.773 138.199C187.328 137.966 187.749 137.653 188.035 137.259C188.322 136.847 188.465 136.373 188.465 135.836ZM235.704 133.607C235.704 132.998 235.614 132.452 235.435 131.969C235.256 131.467 234.925 131.002 234.441 130.572C233.958 130.143 233.26 129.713 232.347 129.283C231.451 128.836 230.27 128.37 228.802 127.887C227.083 127.314 225.427 126.669 223.833 125.953C222.24 125.219 220.817 124.369 219.563 123.402C218.31 122.417 217.317 121.271 216.583 119.964C215.848 118.639 215.481 117.1 215.481 115.345C215.481 113.662 215.857 112.149 216.609 110.807C217.361 109.446 218.409 108.291 219.751 107.342C221.112 106.375 222.706 105.641 224.532 105.14C226.358 104.621 228.354 104.361 230.521 104.361C233.385 104.361 235.91 104.863 238.094 105.865C240.296 106.85 242.015 108.255 243.25 110.082C244.503 111.89 245.13 114.029 245.13 116.5H235.757C235.757 115.515 235.551 114.647 235.14 113.895C234.746 113.143 234.146 112.552 233.34 112.123C232.535 111.693 231.523 111.478 230.306 111.478C229.124 111.478 228.13 111.657 227.325 112.015C226.519 112.373 225.91 112.857 225.499 113.465C225.087 114.056 224.881 114.71 224.881 115.426C224.881 116.017 225.042 116.554 225.364 117.037C225.704 117.503 226.179 117.941 226.788 118.353C227.414 118.765 228.166 119.159 229.043 119.535C229.939 119.911 230.941 120.278 232.051 120.636C234.128 121.298 235.972 122.041 237.583 122.865C239.213 123.67 240.582 124.592 241.692 125.631C242.82 126.651 243.671 127.815 244.244 129.122C244.834 130.429 245.13 131.906 245.13 133.553C245.13 135.308 244.79 136.865 244.109 138.226C243.429 139.587 242.453 140.742 241.182 141.69C239.911 142.621 238.389 143.329 236.617 143.812C234.844 144.295 232.866 144.537 230.682 144.537C228.676 144.537 226.698 144.286 224.747 143.785C222.813 143.266 221.058 142.478 219.483 141.422C217.907 140.348 216.645 138.978 215.696 137.313C214.765 135.63 214.3 133.634 214.3 131.324H223.753C223.753 132.47 223.905 133.437 224.209 134.225C224.514 135.012 224.961 135.648 225.552 136.131C226.143 136.597 226.868 136.937 227.728 137.152C228.587 137.349 229.572 137.447 230.682 137.447C231.881 137.447 232.848 137.277 233.582 136.937C234.316 136.579 234.853 136.113 235.193 135.541C235.534 134.95 235.704 134.305 235.704 133.607ZM264.869 114.942V121.227H247.359V114.942H264.869ZM251.038 107.718H260.088V134.52C260.088 135.29 260.178 135.89 260.357 136.319C260.536 136.731 260.84 137.027 261.27 137.206C261.718 137.367 262.308 137.447 263.042 137.447C263.562 137.447 263.991 137.438 264.332 137.42C264.672 137.385 264.994 137.34 265.298 137.286V143.758C264.528 144.009 263.723 144.197 262.881 144.322C262.04 144.465 261.145 144.537 260.196 144.537C258.262 144.537 256.606 144.233 255.228 143.624C253.867 143.015 252.828 142.057 252.112 140.75C251.396 139.444 251.038 137.743 251.038 135.648V107.718ZM285.44 136.937V114.942H294.517V144H286.031L285.44 136.937ZM286.299 131.029L288.663 130.975C288.663 132.927 288.43 134.735 287.964 136.4C287.499 138.047 286.81 139.479 285.896 140.697C285.001 141.914 283.891 142.863 282.566 143.543C281.259 144.206 279.747 144.537 278.028 144.537C276.596 144.537 275.28 144.34 274.08 143.946C272.898 143.535 271.878 142.899 271.019 142.04C270.159 141.162 269.488 140.043 269.004 138.683C268.539 137.304 268.306 135.657 268.306 133.741V114.942H277.356V133.795C277.356 134.439 277.437 134.994 277.598 135.46C277.759 135.925 277.992 136.319 278.296 136.642C278.601 136.946 278.977 137.179 279.424 137.34C279.89 137.483 280.418 137.555 281.009 137.555C282.369 137.555 283.435 137.268 284.205 136.695C284.974 136.122 285.512 135.344 285.816 134.359C286.138 133.374 286.299 132.264 286.299 131.029ZM316.216 137.34V102.75H325.32V144H317.156L316.216 137.34ZM298.384 129.82V129.256C298.384 127.054 298.626 125.049 299.109 123.241C299.593 121.415 300.309 119.848 301.258 118.541C302.207 117.216 303.388 116.196 304.803 115.479C306.217 114.763 307.846 114.405 309.69 114.405C311.338 114.405 312.779 114.79 314.014 115.56C315.25 116.312 316.306 117.368 317.183 118.729C318.06 120.09 318.777 121.683 319.332 123.509C319.887 125.318 320.307 127.269 320.594 129.364V130.035C320.307 132.005 319.887 133.867 319.332 135.621C318.777 137.358 318.06 138.897 317.183 140.24C316.306 141.583 315.241 142.639 313.987 143.409C312.752 144.161 311.302 144.537 309.637 144.537C307.793 144.537 306.163 144.17 304.749 143.436C303.353 142.702 302.18 141.673 301.231 140.348C300.3 139.023 299.593 137.465 299.109 135.675C298.626 133.884 298.384 131.933 298.384 129.82ZM307.435 129.256V129.82C307.435 130.912 307.506 131.924 307.649 132.855C307.793 133.786 308.034 134.61 308.375 135.326C308.733 136.024 309.198 136.57 309.771 136.964C310.362 137.358 311.087 137.555 311.946 137.555C313.11 137.555 314.068 137.277 314.82 136.722C315.59 136.167 316.154 135.379 316.512 134.359C316.888 133.338 317.049 132.139 316.995 130.76V128.639C317.031 127.457 316.95 126.419 316.753 125.523C316.556 124.61 316.243 123.849 315.813 123.241C315.402 122.632 314.874 122.175 314.229 121.871C313.602 121.549 312.859 121.388 312 121.388C311.159 121.388 310.442 121.585 309.852 121.979C309.279 122.372 308.813 122.927 308.455 123.644C308.097 124.342 307.837 125.174 307.676 126.141C307.515 127.09 307.435 128.128 307.435 129.256ZM339.366 140.589L346.885 114.942H356.607L344.925 148.324C344.674 149.058 344.343 149.846 343.931 150.687C343.519 151.546 342.955 152.361 342.239 153.131C341.523 153.901 340.601 154.527 339.473 155.011C338.363 155.494 336.985 155.736 335.337 155.736C334.46 155.736 333.816 155.691 333.404 155.602C333.01 155.53 332.401 155.396 331.578 155.199V148.727C331.81 148.727 332.007 148.727 332.168 148.727C332.347 148.727 332.544 148.727 332.759 148.727C333.726 148.727 334.496 148.628 335.069 148.431C335.66 148.234 336.107 147.948 336.412 147.572C336.734 147.196 336.985 146.739 337.164 146.202L339.366 140.589ZM337.459 114.942L343.179 135.272L344.173 144.859H338.104L327.764 114.942H337.459Z" fill="black"/>
<path d="M103.963 69.0796H97.5713L97.5371 65.5591H102.903C103.849 65.5591 104.624 65.4395 105.228 65.2002C105.831 64.9495 106.281 64.5907 106.578 64.1235C106.885 63.645 107.039 63.064 107.039 62.3804C107.039 61.6056 106.891 60.979 106.595 60.5005C106.31 60.022 105.86 59.6745 105.245 59.458C104.641 59.2415 103.86 59.1333 102.903 59.1333H99.3486V80H94.2217V55.1172H102.903C104.35 55.1172 105.643 55.2539 106.783 55.5273C107.933 55.8008 108.908 56.2166 109.705 56.7749C110.503 57.3332 111.112 58.0396 111.534 58.894C111.955 59.7371 112.166 60.7397 112.166 61.9019C112.166 62.9272 111.932 63.8729 111.465 64.7388C111.01 65.6047 110.286 66.311 109.295 66.8579C108.315 67.4048 107.033 67.7067 105.45 67.7637L103.963 69.0796ZM103.741 80H96.1699L98.1694 76.001H103.741C104.641 76.001 105.376 75.8586 105.945 75.5737C106.515 75.2775 106.937 74.8787 107.21 74.3774C107.483 73.8761 107.62 73.3008 107.62 72.6514C107.62 71.9222 107.495 71.2899 107.244 70.7544C107.005 70.2189 106.618 69.8088 106.082 69.5239C105.547 69.2277 104.84 69.0796 103.963 69.0796H99.0239L99.0581 65.5591H105.21L106.39 66.9434C107.905 66.9206 109.124 67.1883 110.047 67.7466C110.981 68.2935 111.659 69.0055 112.081 69.8828C112.514 70.7601 112.73 71.7 112.73 72.7026C112.73 74.2977 112.382 75.6421 111.688 76.7358C110.993 77.8182 109.973 78.6328 108.628 79.1797C107.295 79.7266 105.666 80 103.741 80ZM126.248 75.8301V67.5928C126.248 67.0003 126.151 66.4933 125.958 66.0718C125.764 65.6388 125.462 65.3027 125.052 65.0635C124.653 64.8242 124.135 64.7046 123.497 64.7046C122.95 64.7046 122.477 64.8014 122.078 64.9951C121.679 65.1774 121.372 65.4451 121.155 65.7983C120.939 66.1401 120.831 66.5446 120.831 67.0117H115.909C115.909 66.2256 116.091 65.4793 116.456 64.7729C116.82 64.0666 117.35 63.4456 118.045 62.9102C118.74 62.3633 119.566 61.936 120.523 61.6284C121.491 61.3208 122.574 61.167 123.77 61.167C125.206 61.167 126.482 61.4062 127.598 61.8848C128.715 62.3633 129.592 63.0811 130.23 64.0381C130.879 64.9951 131.204 66.1914 131.204 67.627V75.5396C131.204 76.5535 131.267 77.3853 131.392 78.0347C131.517 78.6727 131.7 79.231 131.939 79.7095V80H126.966C126.727 79.4987 126.544 78.8721 126.419 78.1201C126.305 77.3568 126.248 76.5934 126.248 75.8301ZM126.897 68.7378L126.932 71.5234H124.18C123.531 71.5234 122.967 71.5975 122.488 71.7456C122.01 71.8937 121.617 72.1045 121.309 72.3779C121.001 72.64 120.774 72.9476 120.625 73.3008C120.489 73.654 120.42 74.0413 120.42 74.4629C120.42 74.8844 120.517 75.2661 120.711 75.6079C120.905 75.9383 121.184 76.2004 121.548 76.394C121.913 76.5763 122.34 76.6675 122.83 76.6675C123.571 76.6675 124.214 76.5194 124.761 76.2231C125.308 75.9269 125.73 75.5623 126.026 75.1294C126.333 74.6965 126.493 74.2863 126.504 73.8989L127.803 75.9839C127.621 76.451 127.37 76.9352 127.051 77.4365C126.744 77.9378 126.351 78.4106 125.872 78.855C125.394 79.2879 124.818 79.6468 124.146 79.9316C123.474 80.2051 122.676 80.3418 121.753 80.3418C120.58 80.3418 119.515 80.1082 118.558 79.6411C117.612 79.1626 116.86 78.5075 116.302 77.6758C115.755 76.8327 115.481 75.8757 115.481 74.8047C115.481 73.8363 115.664 72.9761 116.028 72.2241C116.393 71.4722 116.928 70.8398 117.635 70.3271C118.353 69.8031 119.247 69.41 120.318 69.1479C121.389 68.8745 122.631 68.7378 124.043 68.7378H126.897ZM144.056 61.5088V64.9951H133.289V61.5088H144.056ZM135.955 56.9458H140.877V74.4287C140.877 74.9642 140.945 75.3743 141.082 75.6592C141.23 75.944 141.447 76.1434 141.731 76.2573C142.016 76.3599 142.375 76.4111 142.808 76.4111C143.116 76.4111 143.389 76.3997 143.628 76.377C143.879 76.3428 144.09 76.3086 144.261 76.2744L144.278 79.8975C143.856 80.0342 143.401 80.1424 142.911 80.2222C142.421 80.3019 141.88 80.3418 141.287 80.3418C140.205 80.3418 139.259 80.1652 138.45 79.812C137.653 79.4474 137.037 78.8664 136.604 78.0688C136.172 77.2713 135.955 76.2231 135.955 74.9243V56.9458ZM145.628 70.9424V70.5835C145.628 69.2277 145.822 67.9801 146.209 66.8408C146.596 65.6901 147.16 64.6932 147.901 63.8501C148.641 63.007 149.553 62.3519 150.635 61.8848C151.718 61.4062 152.959 61.167 154.361 61.167C155.762 61.167 157.01 61.4062 158.104 61.8848C159.197 62.3519 160.114 63.007 160.855 63.8501C161.607 64.6932 162.177 65.6901 162.564 66.8408C162.951 67.9801 163.145 69.2277 163.145 70.5835V70.9424C163.145 72.2868 162.951 73.5343 162.564 74.6851C162.177 75.8244 161.607 76.8213 160.855 77.6758C160.114 78.5189 159.203 79.174 158.121 79.6411C157.038 80.1082 155.796 80.3418 154.395 80.3418C152.994 80.3418 151.746 80.1082 150.652 79.6411C149.57 79.174 148.653 78.5189 147.901 77.6758C147.16 76.8213 146.596 75.8244 146.209 74.6851C145.822 73.5343 145.628 72.2868 145.628 70.9424ZM150.55 70.5835V70.9424C150.55 71.7171 150.618 72.4406 150.755 73.1128C150.892 73.785 151.108 74.3774 151.404 74.8901C151.712 75.3914 152.111 75.7845 152.601 76.0693C153.09 76.3542 153.689 76.4966 154.395 76.4966C155.079 76.4966 155.665 76.3542 156.155 76.0693C156.645 75.7845 157.038 75.3914 157.334 74.8901C157.631 74.3774 157.847 73.785 157.984 73.1128C158.132 72.4406 158.206 71.7171 158.206 70.9424V70.5835C158.206 69.8315 158.132 69.1252 157.984 68.4644C157.847 67.7922 157.625 67.1997 157.317 66.687C157.021 66.1629 156.628 65.7528 156.138 65.4565C155.648 65.1603 155.056 65.0122 154.361 65.0122C153.666 65.0122 153.073 65.1603 152.583 65.4565C152.105 65.7528 151.712 66.1629 151.404 66.687C151.108 67.1997 150.892 67.7922 150.755 68.4644C150.618 69.1252 150.55 69.8315 150.55 70.5835ZM177.107 75.5737V61.5088H182.029V80H177.398L177.107 75.5737ZM177.654 71.7798L179.107 71.7456C179.107 72.9761 178.965 74.1211 178.68 75.1807C178.395 76.2288 177.968 77.1403 177.398 77.915C176.828 78.6784 176.111 79.2765 175.245 79.7095C174.379 80.131 173.359 80.3418 172.186 80.3418C171.285 80.3418 170.454 80.2165 169.69 79.9658C168.938 79.7038 168.289 79.2993 167.742 78.7524C167.207 78.1942 166.785 77.4821 166.478 76.6162C166.181 75.7389 166.033 74.6851 166.033 73.4546V61.5088H170.955V73.4888C170.955 74.0356 171.018 74.4971 171.143 74.873C171.28 75.249 171.468 75.5566 171.707 75.7959C171.946 76.0352 172.225 76.2061 172.544 76.3086C172.875 76.4111 173.239 76.4624 173.638 76.4624C174.652 76.4624 175.45 76.2573 176.031 75.8472C176.623 75.437 177.039 74.8787 177.278 74.1724C177.529 73.4546 177.654 72.6571 177.654 71.7798ZM190.984 53.75V80H186.045V53.75H190.984ZM214.192 59.3726L207.425 80H201.973L211.219 55.1172H214.688L214.192 59.3726ZM219.815 80L213.03 59.3726L212.483 55.1172H215.987L225.284 80H219.815ZM219.507 70.7373V74.7534H206.365V70.7373H219.507ZM232.479 53.75V80H227.54V53.75H232.479ZM246.543 74.8901C246.543 74.5369 246.441 74.2179 246.236 73.9331C246.031 73.6483 245.649 73.3862 245.091 73.147C244.544 72.8963 243.752 72.6685 242.715 72.4634C241.781 72.2583 240.91 72.002 240.101 71.6943C239.303 71.3753 238.608 70.9937 238.016 70.5493C237.435 70.105 236.979 69.5809 236.648 68.9771C236.318 68.3618 236.153 67.6611 236.153 66.875C236.153 66.1003 236.318 65.3711 236.648 64.6875C236.99 64.0039 237.474 63.4001 238.101 62.876C238.739 62.3405 239.514 61.9246 240.425 61.6284C241.348 61.3208 242.385 61.167 243.536 61.167C245.142 61.167 246.521 61.4233 247.671 61.936C248.833 62.4487 249.722 63.1551 250.337 64.0552C250.964 64.9438 251.277 65.9578 251.277 67.0972H246.355C246.355 66.6187 246.253 66.1914 246.048 65.8154C245.854 65.4281 245.547 65.1261 245.125 64.9097C244.715 64.6818 244.179 64.5679 243.519 64.5679C242.972 64.5679 242.499 64.6647 242.1 64.8584C241.701 65.0407 241.394 65.2913 241.177 65.6104C240.972 65.918 240.87 66.2598 240.87 66.6357C240.87 66.9206 240.927 67.1769 241.041 67.4048C241.166 67.6213 241.365 67.8206 241.639 68.0029C241.912 68.1852 242.265 68.3561 242.698 68.5156C243.143 68.6637 243.689 68.8005 244.339 68.9258C245.672 69.1992 246.862 69.5581 247.911 70.0024C248.959 70.4354 249.791 71.0278 250.406 71.7798C251.021 72.5203 251.329 73.4945 251.329 74.7021C251.329 75.5225 251.146 76.2744 250.782 76.958C250.417 77.6416 249.893 78.2397 249.209 78.7524C248.526 79.2537 247.706 79.6468 246.749 79.9316C245.803 80.2051 244.738 80.3418 243.553 80.3418C241.832 80.3418 240.374 80.0342 239.178 79.4189C237.993 78.8037 237.093 78.0233 236.478 77.0776C235.874 76.1206 235.572 75.1408 235.572 74.1382H240.237C240.26 74.8104 240.431 75.3516 240.75 75.7617C241.08 76.1719 241.496 76.4681 241.998 76.6504C242.51 76.8327 243.063 76.9238 243.655 76.9238C244.293 76.9238 244.823 76.8384 245.245 76.6675C245.666 76.4852 245.985 76.2459 246.202 75.9497C246.43 75.6421 246.543 75.2889 246.543 74.8901ZM264.505 75.8301V67.5928C264.505 67.0003 264.408 66.4933 264.214 66.0718C264.021 65.6388 263.719 65.3027 263.309 65.0635C262.91 64.8242 262.391 64.7046 261.753 64.7046C261.207 64.7046 260.734 64.8014 260.335 64.9951C259.936 65.1774 259.629 65.4451 259.412 65.7983C259.196 66.1401 259.087 66.5446 259.087 67.0117H254.166C254.166 66.2256 254.348 65.4793 254.712 64.7729C255.077 64.0666 255.607 63.4456 256.302 62.9102C256.997 62.3633 257.823 61.936 258.78 61.6284C259.748 61.3208 260.831 61.167 262.027 61.167C263.462 61.167 264.738 61.4062 265.855 61.8848C266.972 62.3633 267.849 63.0811 268.487 64.0381C269.136 64.9951 269.461 66.1914 269.461 67.627V75.5396C269.461 76.5535 269.524 77.3853 269.649 78.0347C269.774 78.6727 269.957 79.231 270.196 79.7095V80H265.223C264.983 79.4987 264.801 78.8721 264.676 78.1201C264.562 77.3568 264.505 76.5934 264.505 75.8301ZM265.154 68.7378L265.188 71.5234H262.437C261.788 71.5234 261.224 71.5975 260.745 71.7456C260.267 71.8937 259.874 72.1045 259.566 72.3779C259.258 72.64 259.03 72.9476 258.882 73.3008C258.746 73.654 258.677 74.0413 258.677 74.4629C258.677 74.8844 258.774 75.2661 258.968 75.6079C259.161 75.9383 259.441 76.2004 259.805 76.394C260.17 76.5763 260.597 76.6675 261.087 76.6675C261.827 76.6675 262.471 76.5194 263.018 76.2231C263.565 75.9269 263.986 75.5623 264.283 75.1294C264.59 74.6965 264.75 74.2863 264.761 73.8989L266.06 75.9839C265.878 76.451 265.627 76.9352 265.308 77.4365C265 77.9378 264.607 78.4106 264.129 78.855C263.65 79.2879 263.075 79.6468 262.403 79.9316C261.731 80.2051 260.933 80.3418 260.01 80.3418C258.837 80.3418 257.771 80.1082 256.814 79.6411C255.869 79.1626 255.117 78.5075 254.559 77.6758C254.012 76.8327 253.738 75.8757 253.738 74.8047C253.738 73.8363 253.921 72.9761 254.285 72.2241C254.65 71.4722 255.185 70.8398 255.892 70.3271C256.609 69.8031 257.504 69.41 258.575 69.1479C259.646 68.8745 260.888 68.7378 262.3 68.7378H265.154ZM278.467 77.915L283.372 61.5088H288.653L281.219 82.7856C281.059 83.2528 280.843 83.7541 280.569 84.2896C280.307 84.825 279.948 85.332 279.493 85.8105C279.048 86.3005 278.484 86.6992 277.801 87.0068C277.129 87.3145 276.303 87.4683 275.323 87.4683C274.856 87.4683 274.474 87.4398 274.178 87.3828C273.882 87.3258 273.528 87.2461 273.118 87.1436V83.5376C273.243 83.5376 273.375 83.5376 273.511 83.5376C273.648 83.549 273.779 83.5547 273.904 83.5547C274.554 83.5547 275.083 83.4806 275.494 83.3325C275.904 83.1844 276.234 82.9565 276.485 82.6489C276.736 82.3527 276.935 81.9653 277.083 81.4868L278.467 77.915ZM276.417 61.5088L280.433 74.9072L281.133 80.1196L277.784 80.4785L271.136 61.5088H276.417ZM296.104 77.915L301.009 61.5088H306.29L298.855 82.7856C298.696 83.2528 298.479 83.7541 298.206 84.2896C297.944 84.825 297.585 85.332 297.129 85.8105C296.685 86.3005 296.121 86.6992 295.438 87.0068C294.765 87.3145 293.939 87.4683 292.959 87.4683C292.492 87.4683 292.111 87.4398 291.814 87.3828C291.518 87.3258 291.165 87.2461 290.755 87.1436V83.5376C290.88 83.5376 291.011 83.5376 291.148 83.5376C291.285 83.549 291.416 83.5547 291.541 83.5547C292.19 83.5547 292.72 83.4806 293.13 83.3325C293.541 83.1844 293.871 82.9565 294.122 82.6489C294.372 82.3527 294.572 81.9653 294.72 81.4868L296.104 77.915ZM294.053 61.5088L298.069 74.9072L298.77 80.1196L295.42 80.4785L288.772 61.5088H294.053ZM316.526 80.3418C315.091 80.3418 313.803 80.1139 312.664 79.6582C311.525 79.1911 310.556 78.5474 309.759 77.7271C308.973 76.9067 308.369 75.9554 307.947 74.873C307.526 73.7793 307.315 72.6172 307.315 71.3867V70.7031C307.315 69.3018 307.514 68.02 307.913 66.8579C308.312 65.6958 308.882 64.6875 309.622 63.833C310.374 62.9785 311.285 62.3234 312.356 61.8677C313.427 61.4006 314.635 61.167 315.979 61.167C317.29 61.167 318.452 61.3835 319.466 61.8164C320.48 62.2493 321.329 62.8646 322.012 63.6621C322.707 64.4596 323.231 65.4167 323.584 66.5332C323.938 67.6383 324.114 68.8688 324.114 70.2246V72.2754H309.417V68.9941H319.278V68.6182C319.278 67.9346 319.153 67.325 318.902 66.7896C318.663 66.2427 318.298 65.8097 317.808 65.4907C317.318 65.1717 316.692 65.0122 315.928 65.0122C315.279 65.0122 314.721 65.1546 314.253 65.4395C313.786 65.7243 313.405 66.123 313.108 66.6357C312.824 67.1484 312.607 67.7523 312.459 68.4473C312.322 69.1309 312.254 69.8828 312.254 70.7031V71.3867C312.254 72.1273 312.356 72.8109 312.562 73.4375C312.778 74.0641 313.08 74.6053 313.467 75.061C313.866 75.5168 314.345 75.87 314.903 76.1206C315.472 76.3713 316.116 76.4966 316.834 76.4966C317.723 76.4966 318.549 76.3257 319.312 75.9839C320.087 75.6307 320.753 75.1009 321.312 74.3945L323.704 76.9922C323.317 77.5505 322.787 78.0859 322.115 78.5986C321.454 79.1113 320.656 79.5329 319.722 79.8633C318.788 80.1823 317.723 80.3418 316.526 80.3418ZM337.837 75.9668V53.75H342.793V80H338.333L337.837 75.9668ZM326.148 70.9766V70.6177C326.148 69.2049 326.307 67.9232 326.626 66.7725C326.945 65.6104 327.413 64.6134 328.028 63.7817C328.643 62.95 329.401 62.3063 330.301 61.8506C331.201 61.3949 332.226 61.167 333.377 61.167C334.459 61.167 335.405 61.3949 336.214 61.8506C337.034 62.3063 337.729 62.9557 338.299 63.7988C338.88 64.6305 339.347 65.616 339.7 66.7554C340.053 67.8833 340.31 69.1195 340.469 70.4639V71.25C340.31 72.5374 340.053 73.7337 339.7 74.8389C339.347 75.944 338.88 76.9124 338.299 77.7441C337.729 78.5645 337.034 79.2025 336.214 79.6582C335.394 80.1139 334.437 80.3418 333.343 80.3418C332.192 80.3418 331.167 80.1082 330.267 79.6411C329.378 79.174 328.626 78.5189 328.011 77.6758C327.407 76.8327 326.945 75.8415 326.626 74.7021C326.307 73.5628 326.148 72.321 326.148 70.9766ZM331.07 70.6177V70.9766C331.07 71.7399 331.127 72.452 331.241 73.1128C331.366 73.7736 331.565 74.3604 331.839 74.873C332.124 75.3743 332.488 75.7674 332.933 76.0522C333.388 76.3257 333.941 76.4624 334.59 76.4624C335.433 76.4624 336.128 76.2744 336.675 75.8984C337.222 75.5111 337.638 74.9813 337.923 74.3091C338.219 73.6369 338.39 72.8621 338.436 71.9849V69.7461C338.401 69.0283 338.299 68.3846 338.128 67.8149C337.968 67.2339 337.729 66.7383 337.41 66.3281C337.103 65.918 336.715 65.599 336.248 65.3711C335.792 65.1432 335.251 65.0293 334.625 65.0293C333.986 65.0293 333.44 65.1774 332.984 65.4736C332.528 65.7585 332.158 66.1515 331.873 66.6528C331.6 67.1541 331.395 67.7466 331.258 68.4302C331.132 69.1024 331.07 69.8315 331.07 70.6177Z" fill="#888888"/>
<rect x="92" y="181" width="1179" height="80" rx="13.3333" fill="#CCCCCC"/>
<rect x="107" y="196.333" width="208" height="49.3333" rx="4.66667" fill="#888888" stroke="#888888" stroke-width="4"/>
<path d="M171.823 213.167H177.792C178.958 213.167 179.972 213.34 180.833 213.687C181.694 214.035 182.358 214.549 182.823 215.229C183.295 215.91 183.531 216.75 183.531 217.75C183.531 218.618 183.396 219.344 183.125 219.927C182.854 220.51 182.476 220.993 181.99 221.375C181.51 221.75 180.951 222.059 180.312 222.302L179.115 222.979H174.104L174.083 220.156H177.792C178.257 220.156 178.642 220.073 178.948 219.906C179.253 219.74 179.483 219.503 179.635 219.198C179.795 218.885 179.875 218.514 179.875 218.083C179.875 217.646 179.795 217.271 179.635 216.958C179.476 216.646 179.24 216.406 178.927 216.24C178.622 216.073 178.243 215.99 177.792 215.99H175.479V228.333H171.823V213.167ZM180.125 228.333L176.771 221.625L180.646 221.604L184.042 228.177V228.333H180.125ZM191.031 228.542C190.115 228.542 189.295 228.399 188.573 228.115C187.851 227.823 187.24 227.424 186.74 226.917C186.247 226.41 185.868 225.826 185.604 225.167C185.347 224.507 185.219 223.809 185.219 223.073V222.677C185.219 221.851 185.333 221.087 185.562 220.385C185.792 219.677 186.132 219.059 186.583 218.531C187.035 218.003 187.601 217.594 188.281 217.302C188.962 217.003 189.753 216.854 190.656 216.854C191.455 216.854 192.17 216.983 192.802 217.24C193.434 217.497 193.969 217.865 194.406 218.344C194.851 218.823 195.187 219.403 195.417 220.083C195.653 220.764 195.771 221.528 195.771 222.375V223.802H186.562V221.604H192.344V221.333C192.351 220.958 192.285 220.639 192.146 220.375C192.014 220.111 191.819 219.91 191.562 219.771C191.306 219.632 190.993 219.562 190.625 219.562C190.243 219.562 189.927 219.646 189.677 219.812C189.434 219.979 189.243 220.208 189.104 220.5C188.972 220.785 188.878 221.115 188.823 221.49C188.767 221.865 188.74 222.26 188.74 222.677V223.073C188.74 223.49 188.795 223.868 188.906 224.208C189.024 224.549 189.191 224.84 189.406 225.083C189.628 225.319 189.892 225.503 190.198 225.635C190.51 225.767 190.865 225.833 191.26 225.833C191.74 225.833 192.212 225.743 192.677 225.562C193.142 225.382 193.542 225.083 193.875 224.667L195.469 226.562C195.24 226.889 194.913 227.205 194.49 227.51C194.073 227.816 193.573 228.066 192.99 228.26C192.406 228.448 191.753 228.542 191.031 228.542ZM203.052 225.5V220.854C203.052 220.535 203.007 220.26 202.917 220.031C202.826 219.802 202.684 219.625 202.49 219.5C202.295 219.368 202.035 219.302 201.708 219.302C201.444 219.302 201.219 219.347 201.031 219.437C200.844 219.528 200.701 219.663 200.604 219.844C200.507 220.024 200.458 220.253 200.458 220.531H196.948C196.948 220.01 197.062 219.528 197.292 219.083C197.528 218.632 197.861 218.24 198.292 217.906C198.729 217.573 199.25 217.316 199.854 217.135C200.465 216.948 201.146 216.854 201.896 216.854C202.792 216.854 203.59 217.003 204.292 217.302C205 217.601 205.559 218.049 205.969 218.646C206.378 219.236 206.583 219.979 206.583 220.875V225.49C206.583 226.226 206.625 226.785 206.708 227.167C206.792 227.542 206.91 227.872 207.062 228.156V228.333H203.542C203.375 227.986 203.25 227.562 203.167 227.062C203.09 226.556 203.052 226.035 203.052 225.5ZM203.479 221.448L203.5 223.323H201.948C201.622 223.323 201.344 223.368 201.115 223.458C200.892 223.549 200.712 223.674 200.573 223.833C200.441 223.986 200.344 224.16 200.281 224.354C200.226 224.549 200.198 224.753 200.198 224.969C200.198 225.177 200.247 225.365 200.344 225.531C200.448 225.691 200.587 225.816 200.76 225.906C200.934 225.997 201.128 226.042 201.344 226.042C201.733 226.042 202.062 225.969 202.333 225.823C202.611 225.67 202.823 225.486 202.969 225.271C203.115 225.056 203.187 224.854 203.187 224.667L203.958 226.104C203.819 226.382 203.66 226.663 203.479 226.948C203.306 227.233 203.087 227.497 202.823 227.74C202.566 227.976 202.25 228.17 201.875 228.323C201.5 228.469 201.045 228.542 200.51 228.542C199.816 228.542 199.177 228.399 198.594 228.115C198.017 227.83 197.556 227.434 197.208 226.927C196.861 226.413 196.687 225.823 196.687 225.156C196.687 224.573 196.792 224.052 197 223.594C197.215 223.135 197.538 222.747 197.969 222.427C198.399 222.108 198.948 221.865 199.615 221.698C200.281 221.531 201.066 221.448 201.969 221.448H203.479ZM213.292 225.833C213.618 225.833 213.896 225.774 214.125 225.656C214.361 225.531 214.538 225.358 214.656 225.135C214.781 224.906 214.84 224.632 214.833 224.312H218.135C218.142 225.16 217.934 225.903 217.51 226.542C217.094 227.174 216.524 227.667 215.802 228.021C215.087 228.368 214.278 228.542 213.375 228.542C212.493 228.542 211.722 228.399 211.062 228.115C210.403 227.823 209.851 227.42 209.406 226.906C208.969 226.385 208.639 225.778 208.417 225.083C208.201 224.389 208.094 223.635 208.094 222.823V222.583C208.094 221.771 208.201 221.017 208.417 220.323C208.639 219.622 208.969 219.014 209.406 218.5C209.851 217.979 210.399 217.576 211.052 217.292C211.712 217 212.479 216.854 213.354 216.854C214.292 216.854 215.118 217.031 215.833 217.385C216.556 217.74 217.122 218.253 217.531 218.927C217.941 219.601 218.142 220.417 218.135 221.375H214.833C214.84 221.035 214.788 220.729 214.677 220.458C214.566 220.187 214.392 219.972 214.156 219.812C213.927 219.646 213.632 219.562 213.271 219.562C212.91 219.562 212.618 219.642 212.396 219.802C212.174 219.962 212.003 220.184 211.885 220.469C211.774 220.747 211.698 221.066 211.656 221.427C211.622 221.788 211.604 222.174 211.604 222.583V222.823C211.604 223.24 211.622 223.632 211.656 224C211.698 224.361 211.778 224.681 211.896 224.958C212.014 225.229 212.184 225.444 212.406 225.604C212.628 225.757 212.924 225.833 213.292 225.833ZM225.573 217.062V219.5H218.781V217.062H225.573ZM220.208 214.26H223.719V224.656C223.719 224.955 223.753 225.187 223.823 225.354C223.892 225.514 224.01 225.628 224.177 225.698C224.351 225.76 224.58 225.792 224.865 225.792C225.066 225.792 225.233 225.788 225.365 225.781C225.497 225.767 225.622 225.75 225.74 225.729V228.24C225.441 228.337 225.128 228.41 224.802 228.458C224.476 228.514 224.128 228.542 223.76 228.542C223.01 228.542 222.368 228.424 221.833 228.187C221.306 227.951 220.903 227.58 220.625 227.073C220.347 226.566 220.208 225.906 220.208 225.094V214.26ZM233.167 223.573V213.167H236.812V223.573C236.812 224.587 236.58 225.465 236.115 226.208C235.656 226.951 235.031 227.528 234.24 227.937C233.455 228.34 232.573 228.542 231.594 228.542C230.58 228.542 229.677 228.372 228.885 228.031C228.101 227.691 227.483 227.167 227.031 226.458C226.587 225.75 226.365 224.847 226.365 223.75H230.031C230.031 224.264 230.09 224.667 230.208 224.958C230.326 225.243 230.5 225.444 230.729 225.562C230.965 225.674 231.253 225.729 231.594 225.729C231.927 225.729 232.208 225.646 232.437 225.479C232.674 225.306 232.854 225.059 232.979 224.74C233.104 224.413 233.167 224.024 233.167 223.573ZM246.948 224.302C246.948 224.066 246.913 223.854 246.844 223.667C246.774 223.472 246.646 223.292 246.458 223.125C246.271 222.958 246 222.792 245.646 222.625C245.299 222.451 244.84 222.271 244.271 222.083C243.604 221.861 242.962 221.611 242.344 221.333C241.726 221.049 241.174 220.719 240.687 220.344C240.201 219.962 239.816 219.517 239.531 219.01C239.247 218.497 239.104 217.899 239.104 217.219C239.104 216.566 239.25 215.979 239.542 215.458C239.833 214.931 240.24 214.483 240.76 214.115C241.288 213.74 241.906 213.455 242.615 213.26C243.323 213.059 244.097 212.958 244.937 212.958C246.049 212.958 247.028 213.153 247.875 213.542C248.729 213.924 249.396 214.469 249.875 215.177C250.361 215.878 250.604 216.708 250.604 217.667H246.969C246.969 217.285 246.889 216.948 246.729 216.656C246.576 216.365 246.344 216.135 246.031 215.969C245.719 215.802 245.326 215.719 244.854 215.719C244.396 215.719 244.01 215.788 243.698 215.927C243.385 216.066 243.149 216.253 242.99 216.49C242.83 216.719 242.75 216.972 242.75 217.25C242.75 217.479 242.812 217.687 242.937 217.875C243.069 218.056 243.253 218.226 243.49 218.385C243.733 218.545 244.024 218.698 244.365 218.844C244.712 218.99 245.101 219.132 245.531 219.271C246.337 219.528 247.052 219.816 247.677 220.135C248.309 220.448 248.84 220.806 249.271 221.208C249.708 221.604 250.038 222.056 250.26 222.562C250.49 223.069 250.604 223.642 250.604 224.281C250.604 224.962 250.472 225.566 250.208 226.094C249.944 226.622 249.566 227.069 249.073 227.437C248.58 227.799 247.99 228.073 247.302 228.26C246.615 228.448 245.847 228.542 245 228.542C244.222 228.542 243.455 228.444 242.698 228.25C241.948 228.049 241.267 227.743 240.656 227.333C240.045 226.917 239.556 226.385 239.187 225.74C238.826 225.087 238.646 224.312 238.646 223.417H242.312C242.312 223.861 242.372 224.236 242.49 224.542C242.608 224.847 242.781 225.094 243.01 225.281C243.24 225.462 243.521 225.594 243.854 225.677C244.187 225.753 244.569 225.792 245 225.792C245.465 225.792 245.84 225.726 246.125 225.594C246.41 225.455 246.618 225.274 246.75 225.052C246.882 224.823 246.948 224.573 246.948 224.302Z" fill="white"/>
<rect x="339" y="196.333" width="208" height="49.3333" rx="4.66667" fill="#888888" stroke="#888888" stroke-width="4"/>
<path d="M415.437 212.333V228.333H411.917V212.333H415.437ZM423.458 225.5V220.854C423.458 220.535 423.413 220.26 423.323 220.031C423.233 219.802 423.09 219.625 422.896 219.5C422.701 219.368 422.441 219.302 422.115 219.302C421.851 219.302 421.625 219.347 421.437 219.437C421.25 219.528 421.108 219.663 421.01 219.844C420.913 220.024 420.865 220.253 420.865 220.531H417.354C417.354 220.01 417.469 219.528 417.698 219.083C417.934 218.632 418.267 218.24 418.698 217.906C419.135 217.573 419.656 217.316 420.26 217.135C420.872 216.948 421.552 216.854 422.302 216.854C423.198 216.854 423.997 217.003 424.698 217.302C425.406 217.601 425.965 218.049 426.375 218.646C426.785 219.236 426.99 219.979 426.99 220.875V225.49C426.99 226.226 427.031 226.785 427.115 227.167C427.198 227.542 427.316 227.872 427.469 228.156V228.333H423.948C423.781 227.986 423.656 227.562 423.573 227.062C423.497 226.556 423.458 226.035 423.458 225.5ZM423.885 221.448L423.906 223.323H422.354C422.028 223.323 421.75 223.368 421.521 223.458C421.299 223.549 421.118 223.674 420.979 223.833C420.847 223.986 420.75 224.16 420.687 224.354C420.632 224.549 420.604 224.753 420.604 224.969C420.604 225.177 420.653 225.365 420.75 225.531C420.854 225.691 420.993 225.816 421.167 225.906C421.34 225.997 421.535 226.042 421.75 226.042C422.139 226.042 422.469 225.969 422.74 225.823C423.017 225.67 423.229 225.486 423.375 225.271C423.521 225.056 423.594 224.854 423.594 224.667L424.365 226.104C424.226 226.382 424.066 226.663 423.885 226.948C423.712 227.233 423.493 227.497 423.229 227.74C422.972 227.976 422.656 228.17 422.281 228.323C421.906 228.469 421.451 228.542 420.917 228.542C420.222 228.542 419.583 228.399 419 228.115C418.424 227.83 417.962 227.434 417.615 226.927C417.267 226.413 417.094 225.823 417.094 225.156C417.094 224.573 417.198 224.052 417.406 223.594C417.622 223.135 417.944 222.747 418.375 222.427C418.806 222.108 419.354 221.865 420.021 221.698C420.687 221.531 421.472 221.448 422.375 221.448H423.885ZM432.479 219.854V228.333H428.969V217.062H432.25L432.479 219.854ZM435.812 216.979L435.75 220.24C435.611 220.226 435.424 220.208 435.187 220.187C434.951 220.167 434.753 220.156 434.594 220.156C434.184 220.156 433.83 220.205 433.531 220.302C433.24 220.392 432.997 220.531 432.802 220.719C432.615 220.899 432.476 221.128 432.385 221.406C432.302 221.684 432.264 222.007 432.271 222.375L431.635 221.958C431.635 221.201 431.708 220.514 431.854 219.896C432.007 219.271 432.222 218.733 432.5 218.281C432.778 217.823 433.115 217.472 433.51 217.229C433.906 216.979 434.351 216.854 434.844 216.854C435.017 216.854 435.187 216.865 435.354 216.885C435.528 216.906 435.681 216.937 435.812 216.979ZM442.563 225.5V220.854C442.563 220.535 442.517 220.26 442.427 220.031C442.337 219.802 442.194 219.625 442 219.5C441.806 219.368 441.545 219.302 441.219 219.302C440.955 219.302 440.729 219.347 440.542 219.437C440.354 219.528 440.212 219.663 440.115 219.844C440.017 220.024 439.969 220.253 439.969 220.531H436.458C436.458 220.01 436.573 219.528 436.802 219.083C437.038 218.632 437.372 218.24 437.802 217.906C438.24 217.573 438.76 217.316 439.365 217.135C439.976 216.948 440.656 216.854 441.406 216.854C442.302 216.854 443.101 217.003 443.802 217.302C444.51 217.601 445.069 218.049 445.479 218.646C445.889 219.236 446.094 219.979 446.094 220.875V225.49C446.094 226.226 446.135 226.785 446.219 227.167C446.302 227.542 446.42 227.872 446.573 228.156V228.333H443.052C442.885 227.986 442.76 227.562 442.677 227.062C442.601 226.556 442.563 226.035 442.563 225.5ZM442.99 221.448L443.01 223.323H441.458C441.132 223.323 440.854 223.368 440.625 223.458C440.403 223.549 440.222 223.674 440.083 223.833C439.951 223.986 439.854 224.16 439.792 224.354C439.736 224.549 439.708 224.753 439.708 224.969C439.708 225.177 439.757 225.365 439.854 225.531C439.958 225.691 440.097 225.816 440.271 225.906C440.444 225.997 440.639 226.042 440.854 226.042C441.243 226.042 441.573 225.969 441.844 225.823C442.122 225.67 442.333 225.486 442.479 225.271C442.625 225.056 442.698 224.854 442.698 224.667L443.469 226.104C443.33 226.382 443.17 226.663 442.99 226.948C442.816 227.233 442.597 227.497 442.333 227.74C442.076 227.976 441.76 228.17 441.385 228.323C441.01 228.469 440.556 228.542 440.021 228.542C439.326 228.542 438.688 228.399 438.104 228.115C437.528 227.83 437.066 227.434 436.719 226.927C436.372 226.413 436.198 225.823 436.198 225.156C436.198 224.573 436.302 224.052 436.51 223.594C436.726 223.135 437.049 222.747 437.479 222.427C437.91 222.108 438.458 221.865 439.125 221.698C439.792 221.531 440.576 221.448 441.479 221.448H442.99ZM451.937 225.927L454.156 217.062H457.854L454.167 228.333H451.979L451.937 225.927ZM450.625 217.062L452.812 225.927L452.792 228.333H450.594L446.917 217.062H450.625ZM464.208 228.542C463.292 228.542 462.472 228.399 461.75 228.115C461.028 227.823 460.417 227.424 459.917 226.917C459.424 226.41 459.045 225.826 458.781 225.167C458.524 224.507 458.396 223.809 458.396 223.073V222.677C458.396 221.851 458.51 221.087 458.74 220.385C458.969 219.677 459.309 219.059 459.76 218.531C460.212 218.003 460.778 217.594 461.458 217.302C462.139 217.003 462.931 216.854 463.833 216.854C464.632 216.854 465.347 216.983 465.979 217.24C466.611 217.497 467.146 217.865 467.583 218.344C468.028 218.823 468.365 219.403 468.594 220.083C468.83 220.764 468.948 221.528 468.948 222.375V223.802H459.74V221.604H465.521V221.333C465.528 220.958 465.462 220.639 465.323 220.375C465.191 220.111 464.997 219.91 464.74 219.771C464.483 219.632 464.17 219.562 463.802 219.562C463.42 219.562 463.104 219.646 462.854 219.812C462.611 219.979 462.42 220.208 462.281 220.5C462.149 220.785 462.056 221.115 462 221.49C461.944 221.865 461.917 222.26 461.917 222.677V223.073C461.917 223.49 461.972 223.868 462.083 224.208C462.201 224.549 462.368 224.84 462.583 225.083C462.806 225.319 463.069 225.503 463.375 225.635C463.687 225.767 464.042 225.833 464.437 225.833C464.917 225.833 465.389 225.743 465.854 225.562C466.319 225.382 466.719 225.083 467.052 224.667L468.646 226.562C468.417 226.889 468.09 227.205 467.667 227.51C467.25 227.816 466.75 228.066 466.167 228.26C465.583 228.448 464.931 228.542 464.208 228.542ZM474.083 212.333V228.333H470.562V212.333H474.083Z" fill="white"/>
<rect x="571" y="196.333" width="208" height="49.3333" rx="4.66667" fill="#888888" stroke="#888888" stroke-width="4"/>
<path d="M648.5 213.167H654.469C655.635 213.167 656.649 213.34 657.51 213.687C658.372 214.035 659.035 214.549 659.5 215.229C659.972 215.91 660.208 216.75 660.208 217.75C660.208 218.618 660.073 219.344 659.802 219.927C659.531 220.51 659.153 220.993 658.667 221.375C658.188 221.75 657.628 222.059 656.99 222.302L655.792 222.979H650.781L650.76 220.156H654.469C654.934 220.156 655.319 220.073 655.625 219.906C655.931 219.74 656.16 219.503 656.313 219.198C656.472 218.885 656.552 218.514 656.552 218.083C656.552 217.646 656.472 217.271 656.313 216.958C656.153 216.646 655.917 216.406 655.604 216.24C655.299 216.073 654.92 215.99 654.469 215.99H652.156V228.333H648.5V213.167ZM656.802 228.333L653.448 221.625L657.323 221.604L660.719 228.177V228.333H656.802ZM667.708 228.542C666.792 228.542 665.972 228.399 665.25 228.115C664.528 227.823 663.917 227.424 663.417 226.917C662.924 226.41 662.545 225.826 662.281 225.167C662.024 224.507 661.896 223.809 661.896 223.073V222.677C661.896 221.851 662.01 221.087 662.24 220.385C662.469 219.677 662.809 219.059 663.26 218.531C663.712 218.003 664.278 217.594 664.958 217.302C665.639 217.003 666.431 216.854 667.333 216.854C668.132 216.854 668.847 216.983 669.479 217.24C670.111 217.497 670.646 217.865 671.083 218.344C671.528 218.823 671.865 219.403 672.094 220.083C672.33 220.764 672.448 221.528 672.448 222.375V223.802H663.24V221.604H669.021V221.333C669.028 220.958 668.962 220.639 668.823 220.375C668.691 220.111 668.497 219.91 668.24 219.771C667.983 219.632 667.67 219.562 667.302 219.562C666.92 219.562 666.604 219.646 666.354 219.812C666.111 219.979 665.92 220.208 665.781 220.5C665.649 220.785 665.556 221.115 665.5 221.49C665.444 221.865 665.417 222.26 665.417 222.677V223.073C665.417 223.49 665.472 223.868 665.583 224.208C665.701 224.549 665.868 224.84 666.083 225.083C666.306 225.319 666.569 225.503 666.875 225.635C667.187 225.767 667.542 225.833 667.937 225.833C668.417 225.833 668.889 225.743 669.354 225.562C669.819 225.382 670.219 225.083 670.552 224.667L672.146 226.562C671.917 226.889 671.59 227.205 671.167 227.51C670.75 227.816 670.25 228.066 669.667 228.26C669.083 228.448 668.431 228.542 667.708 228.542ZM679.729 225.5V220.854C679.729 220.535 679.684 220.26 679.594 220.031C679.503 219.802 679.361 219.625 679.167 219.5C678.972 219.368 678.712 219.302 678.385 219.302C678.122 219.302 677.896 219.347 677.708 219.437C677.521 219.528 677.378 219.663 677.281 219.844C677.184 220.024 677.135 220.253 677.135 220.531H673.625C673.625 220.01 673.74 219.528 673.969 219.083C674.205 218.632 674.538 218.24 674.969 217.906C675.406 217.573 675.927 217.316 676.531 217.135C677.142 216.948 677.823 216.854 678.573 216.854C679.469 216.854 680.267 217.003 680.969 217.302C681.677 217.601 682.236 218.049 682.646 218.646C683.056 219.236 683.26 219.979 683.26 220.875V225.49C683.26 226.226 683.302 226.785 683.385 227.167C683.469 227.542 683.587 227.872 683.74 228.156V228.333H680.219C680.052 227.986 679.927 227.562 679.844 227.062C679.767 226.556 679.729 226.035 679.729 225.5ZM680.156 221.448L680.177 223.323H678.625C678.299 223.323 678.021 223.368 677.792 223.458C677.569 223.549 677.389 223.674 677.25 223.833C677.118 223.986 677.021 224.16 676.958 224.354C676.903 224.549 676.875 224.753 676.875 224.969C676.875 225.177 676.924 225.365 677.021 225.531C677.125 225.691 677.264 225.816 677.438 225.906C677.611 225.997 677.806 226.042 678.021 226.042C678.41 226.042 678.74 225.969 679.01 225.823C679.288 225.67 679.5 225.486 679.646 225.271C679.792 225.056 679.865 224.854 679.865 224.667L680.635 226.104C680.497 226.382 680.337 226.663 680.156 226.948C679.983 227.233 679.764 227.497 679.5 227.74C679.243 227.976 678.927 228.17 678.552 228.323C678.177 228.469 677.722 228.542 677.188 228.542C676.493 228.542 675.854 228.399 675.271 228.115C674.694 227.83 674.233 227.434 673.885 226.927C673.538 226.413 673.365 225.823 673.365 225.156C673.365 224.573 673.469 224.052 673.677 223.594C673.892 223.135 674.215 222.747 674.646 222.427C675.076 222.108 675.625 221.865 676.292 221.698C676.958 221.531 677.743 221.448 678.646 221.448H680.156ZM689.969 225.833C690.295 225.833 690.573 225.774 690.802 225.656C691.038 225.531 691.215 225.358 691.333 225.135C691.458 224.906 691.517 224.632 691.51 224.312H694.813C694.819 225.16 694.611 225.903 694.188 226.542C693.771 227.174 693.201 227.667 692.479 228.021C691.764 228.368 690.955 228.542 690.052 228.542C689.17 228.542 688.399 228.399 687.74 228.115C687.08 227.823 686.528 227.42 686.083 226.906C685.646 226.385 685.316 225.778 685.094 225.083C684.878 224.389 684.771 223.635 684.771 222.823V222.583C684.771 221.771 684.878 221.017 685.094 220.323C685.316 219.622 685.646 219.014 686.083 218.5C686.528 217.979 687.076 217.576 687.729 217.292C688.389 217 689.156 216.854 690.031 216.854C690.969 216.854 691.795 217.031 692.51 217.385C693.233 217.74 693.799 218.253 694.208 218.927C694.618 219.601 694.819 220.417 694.813 221.375H691.51C691.517 221.035 691.465 220.729 691.354 220.458C691.243 220.187 691.069 219.972 690.833 219.812C690.604 219.646 690.309 219.562 689.948 219.562C689.587 219.562 689.295 219.642 689.073 219.802C688.851 219.962 688.681 220.184 688.563 220.469C688.451 220.747 688.375 221.066 688.333 221.427C688.299 221.788 688.281 222.174 688.281 222.583V222.823C688.281 223.24 688.299 223.632 688.333 224C688.375 224.361 688.455 224.681 688.573 224.958C688.691 225.229 688.861 225.444 689.083 225.604C689.306 225.757 689.601 225.833 689.969 225.833ZM702.25 217.062V219.5H695.458V217.062H702.25ZM696.885 214.26H700.396V224.656C700.396 224.955 700.431 225.187 700.5 225.354C700.569 225.514 700.688 225.628 700.854 225.698C701.028 225.76 701.257 225.792 701.542 225.792C701.743 225.792 701.91 225.788 702.042 225.781C702.174 225.767 702.299 225.75 702.417 225.729V228.24C702.118 228.337 701.806 228.41 701.479 228.458C701.153 228.514 700.806 228.542 700.438 228.542C699.688 228.542 699.045 228.424 698.51 228.187C697.983 227.951 697.58 227.58 697.302 227.073C697.024 226.566 696.885 225.906 696.885 225.094V214.26Z" fill="white"/>
</svg>
