<svg width="1363" height="167" viewBox="0 0 1363 167" fill="none" xmlns="http://www.w3.org/2000/svg">
<rect width="1363" height="167" rx="15" fill="#F0F0F0"/>
<path d="M0 15C0 6.71573 6.71573 0 15 0H37V167H15C6.71573 167 0 160.284 0 152V15Z" fill="#424241"/>
<path d="M104.492 55.2578V58H95.9023V55.2578H104.492ZM97.0391 40.9375V58H93.5234V40.9375H97.0391ZM112.133 58.2344C111.148 58.2344 110.266 58.0781 109.484 57.7656C108.703 57.4453 108.039 57.0039 107.492 56.4414C106.953 55.8789 106.539 55.2266 106.25 54.4844C105.961 53.7344 105.816 52.9375 105.816 52.0938V51.625C105.816 50.6641 105.953 49.7852 106.227 48.9883C106.5 48.1914 106.891 47.5 107.398 46.9141C107.914 46.3281 108.539 45.8789 109.273 45.5664C110.008 45.2461 110.836 45.0859 111.758 45.0859C112.656 45.0859 113.453 45.2344 114.148 45.5312C114.844 45.8281 115.426 46.25 115.895 46.7969C116.371 47.3438 116.73 48 116.973 48.7656C117.215 49.5234 117.336 50.3672 117.336 51.2969V52.7031H107.258V50.4531H114.02V50.1953C114.02 49.7266 113.934 49.3086 113.762 48.9414C113.598 48.5664 113.348 48.2695 113.012 48.0508C112.676 47.832 112.246 47.7227 111.723 47.7227C111.277 47.7227 110.895 47.8203 110.574 48.0156C110.254 48.2109 109.992 48.4844 109.789 48.8359C109.594 49.1875 109.445 49.6016 109.344 50.0781C109.25 50.5469 109.203 51.0625 109.203 51.625V52.0938C109.203 52.6016 109.273 53.0703 109.414 53.5C109.562 53.9297 109.77 54.3008 110.035 54.6133C110.309 54.9258 110.637 55.168 111.02 55.3398C111.41 55.5117 111.852 55.5977 112.344 55.5977C112.953 55.5977 113.52 55.4805 114.043 55.2461C114.574 55.0039 115.031 54.6406 115.414 54.1562L117.055 55.9375C116.789 56.3203 116.426 56.6875 115.965 57.0391C115.512 57.3906 114.965 57.6797 114.324 57.9062C113.684 58.125 112.953 58.2344 112.133 58.2344ZM125.469 45.3203V47.7109H118.086V45.3203H125.469ZM119.914 42.1914H123.289V54.1797C123.289 54.5469 123.336 54.8281 123.43 55.0234C123.531 55.2188 123.68 55.3555 123.875 55.4336C124.07 55.5039 124.316 55.5391 124.613 55.5391C124.824 55.5391 125.012 55.5312 125.176 55.5156C125.348 55.4922 125.492 55.4688 125.609 55.4453L125.621 57.9297C125.332 58.0234 125.02 58.0977 124.684 58.1523C124.348 58.207 123.977 58.2344 123.57 58.2344C122.828 58.2344 122.18 58.1133 121.625 57.8711C121.078 57.6211 120.656 57.2227 120.359 56.6758C120.062 56.1289 119.914 55.4102 119.914 54.5195V42.1914ZM134.246 54.4961C134.246 54.2539 134.176 54.0352 134.035 53.8398C133.895 53.6445 133.633 53.4648 133.25 53.3008C132.875 53.1289 132.332 52.9727 131.621 52.832C130.98 52.6914 130.383 52.5156 129.828 52.3047C129.281 52.0859 128.805 51.8242 128.398 51.5195C128 51.2148 127.688 50.8555 127.461 50.4414C127.234 50.0195 127.121 49.5391 127.121 49C127.121 48.4688 127.234 47.9688 127.461 47.5C127.695 47.0312 128.027 46.6172 128.457 46.2578C128.895 45.8906 129.426 45.6055 130.051 45.4023C130.684 45.1914 131.395 45.0859 132.184 45.0859C133.285 45.0859 134.23 45.2617 135.02 45.6133C135.816 45.9648 136.426 46.4492 136.848 47.0664C137.277 47.6758 137.492 48.3711 137.492 49.1523H134.117C134.117 48.8242 134.047 48.5312 133.906 48.2734C133.773 48.0078 133.562 47.8008 133.273 47.6523C132.992 47.4961 132.625 47.418 132.172 47.418C131.797 47.418 131.473 47.4844 131.199 47.6172C130.926 47.7422 130.715 47.9141 130.566 48.1328C130.426 48.3438 130.355 48.5781 130.355 48.8359C130.355 49.0312 130.395 49.207 130.473 49.3633C130.559 49.5117 130.695 49.6484 130.883 49.7734C131.07 49.8984 131.312 50.0156 131.609 50.125C131.914 50.2266 132.289 50.3203 132.734 50.4062C133.648 50.5938 134.465 50.8398 135.184 51.1445C135.902 51.4414 136.473 51.8477 136.895 52.3633C137.316 52.8711 137.527 53.5391 137.527 54.3672C137.527 54.9297 137.402 55.4453 137.152 55.9141C136.902 56.3828 136.543 56.793 136.074 57.1445C135.605 57.4883 135.043 57.7578 134.387 57.9531C133.738 58.1406 133.008 58.2344 132.195 58.2344C131.016 58.2344 130.016 58.0234 129.195 57.6016C128.383 57.1797 127.766 56.6445 127.344 55.9961C126.93 55.3398 126.723 54.668 126.723 53.9805H129.922C129.938 54.4414 130.055 54.8125 130.273 55.0938C130.5 55.375 130.785 55.5781 131.129 55.7031C131.48 55.8281 131.859 55.8906 132.266 55.8906C132.703 55.8906 133.066 55.832 133.355 55.7148C133.645 55.5898 133.863 55.4258 134.012 55.2227C134.168 55.0117 134.246 54.7695 134.246 54.4961ZM154.789 53.5352C154.789 53.2305 154.742 52.957 154.648 52.7148C154.562 52.4648 154.398 52.2383 154.156 52.0352C153.914 51.8242 153.574 51.6172 153.137 51.4141C152.699 51.2109 152.133 51 151.438 50.7812C150.664 50.5312 149.93 50.25 149.234 49.9375C148.547 49.625 147.938 49.2617 147.406 48.8477C146.883 48.4258 146.469 47.9375 146.164 47.3828C145.867 46.8281 145.719 46.1836 145.719 45.4492C145.719 44.7383 145.875 44.0938 146.188 43.5156C146.5 42.9297 146.938 42.4297 147.5 42.0156C148.062 41.5938 148.727 41.2695 149.492 41.043C150.266 40.8164 151.113 40.7031 152.035 40.7031C153.293 40.7031 154.391 40.9297 155.328 41.3828C156.266 41.8359 156.992 42.457 157.508 43.2461C158.031 44.0352 158.293 44.9375 158.293 45.9531H154.801C154.801 45.4531 154.695 45.0156 154.484 44.6406C154.281 44.2578 153.969 43.957 153.547 43.7383C153.133 43.5195 152.609 43.4102 151.977 43.4102C151.367 43.4102 150.859 43.5039 150.453 43.6914C150.047 43.8711 149.742 44.1172 149.539 44.4297C149.336 44.7344 149.234 45.0781 149.234 45.4609C149.234 45.75 149.305 46.0117 149.445 46.2461C149.594 46.4805 149.812 46.6992 150.102 46.9023C150.391 47.1055 150.746 47.2969 151.168 47.4766C151.59 47.6562 152.078 47.832 152.633 48.0039C153.562 48.2852 154.379 48.6016 155.082 48.9531C155.793 49.3047 156.387 49.6992 156.863 50.1367C157.34 50.5742 157.699 51.0703 157.941 51.625C158.184 52.1797 158.305 52.8086 158.305 53.5117C158.305 54.2539 158.16 54.918 157.871 55.5039C157.582 56.0898 157.164 56.5859 156.617 56.9922C156.07 57.3984 155.418 57.707 154.66 57.918C153.902 58.1289 153.055 58.2344 152.117 58.2344C151.273 58.2344 150.441 58.125 149.621 57.9062C148.801 57.6797 148.055 57.3398 147.383 56.8867C146.719 56.4336 146.188 55.8555 145.789 55.1523C145.391 54.4492 145.191 53.6172 145.191 52.6562H148.719C148.719 53.1875 148.801 53.6367 148.965 54.0039C149.129 54.3711 149.359 54.668 149.656 54.8945C149.961 55.1211 150.32 55.2852 150.734 55.3867C151.156 55.4883 151.617 55.5391 152.117 55.5391C152.727 55.5391 153.227 55.4531 153.617 55.2812C154.016 55.1094 154.309 54.8711 154.496 54.5664C154.691 54.2617 154.789 53.918 154.789 53.5352ZM166.695 45.3203V47.7109H159.312V45.3203H166.695ZM161.141 42.1914H164.516V54.1797C164.516 54.5469 164.562 54.8281 164.656 55.0234C164.758 55.2188 164.906 55.3555 165.102 55.4336C165.297 55.5039 165.543 55.5391 165.84 55.5391C166.051 55.5391 166.238 55.5312 166.402 55.5156C166.574 55.4922 166.719 55.4688 166.836 55.4453L166.848 57.9297C166.559 58.0234 166.246 58.0977 165.91 58.1523C165.574 58.207 165.203 58.2344 164.797 58.2344C164.055 58.2344 163.406 58.1133 162.852 57.8711C162.305 57.6211 161.883 57.2227 161.586 56.6758C161.289 56.1289 161.141 55.4102 161.141 54.5195V42.1914ZM176.117 54.9648V45.3203H179.492V58H176.316L176.117 54.9648ZM176.492 52.3633L177.488 52.3398C177.488 53.1836 177.391 53.9688 177.195 54.6953C177 55.4141 176.707 56.0391 176.316 56.5703C175.926 57.0938 175.434 57.5039 174.84 57.8008C174.246 58.0898 173.547 58.2344 172.742 58.2344C172.125 58.2344 171.555 58.1484 171.031 57.9766C170.516 57.7969 170.07 57.5195 169.695 57.1445C169.328 56.7617 169.039 56.2734 168.828 55.6797C168.625 55.0781 168.523 54.3555 168.523 53.5117V45.3203H171.898V53.5352C171.898 53.9102 171.941 54.2266 172.027 54.4844C172.121 54.7422 172.25 54.9531 172.414 55.1172C172.578 55.2812 172.77 55.3984 172.988 55.4688C173.215 55.5391 173.465 55.5742 173.738 55.5742C174.434 55.5742 174.98 55.4336 175.379 55.1523C175.785 54.8711 176.07 54.4883 176.234 54.0039C176.406 53.5117 176.492 52.9648 176.492 52.3633ZM189.559 55.2344V40H192.957V58H189.898L189.559 55.2344ZM181.543 51.8125V51.5664C181.543 50.5977 181.652 49.7188 181.871 48.9297C182.09 48.1328 182.41 47.4492 182.832 46.8789C183.254 46.3086 183.773 45.8672 184.391 45.5547C185.008 45.2422 185.711 45.0859 186.5 45.0859C187.242 45.0859 187.891 45.2422 188.445 45.5547C189.008 45.8672 189.484 46.3125 189.875 46.8906C190.273 47.4609 190.594 48.1367 190.836 48.918C191.078 49.6914 191.254 50.5391 191.363 51.4609V52C191.254 52.8828 191.078 53.7031 190.836 54.4609C190.594 55.2188 190.273 55.8828 189.875 56.4531C189.484 57.0156 189.008 57.4531 188.445 57.7656C187.883 58.0781 187.227 58.2344 186.477 58.2344C185.688 58.2344 184.984 58.0742 184.367 57.7539C183.758 57.4336 183.242 56.9844 182.82 56.4062C182.406 55.8281 182.09 55.1484 181.871 54.3672C181.652 53.5859 181.543 52.7344 181.543 51.8125ZM184.918 51.5664V51.8125C184.918 52.3359 184.957 52.8242 185.035 53.2773C185.121 53.7305 185.258 54.1328 185.445 54.4844C185.641 54.8281 185.891 55.0977 186.195 55.293C186.508 55.4805 186.887 55.5742 187.332 55.5742C187.91 55.5742 188.387 55.4453 188.762 55.1875C189.137 54.9219 189.422 54.5586 189.617 54.0977C189.82 53.6367 189.938 53.1055 189.969 52.5039V50.9688C189.945 50.4766 189.875 50.0352 189.758 49.6445C189.648 49.2461 189.484 48.9062 189.266 48.625C189.055 48.3438 188.789 48.125 188.469 47.9688C188.156 47.8125 187.785 47.7344 187.355 47.7344C186.918 47.7344 186.543 47.8359 186.23 48.0391C185.918 48.2344 185.664 48.5039 185.469 48.8477C185.281 49.1914 185.141 49.5977 185.047 50.0664C184.961 50.5273 184.918 51.0273 184.918 51.5664ZM199.355 56.5703L202.719 45.3203H206.34L201.242 59.9102C201.133 60.2305 200.984 60.5742 200.797 60.9414C200.617 61.3086 200.371 61.6562 200.059 61.9844C199.754 62.3203 199.367 62.5938 198.898 62.8047C198.438 63.0156 197.871 63.1211 197.199 63.1211C196.879 63.1211 196.617 63.1016 196.414 63.0625C196.211 63.0234 195.969 62.9688 195.688 62.8984V60.4258C195.773 60.4258 195.863 60.4258 195.957 60.4258C196.051 60.4336 196.141 60.4375 196.227 60.4375C196.672 60.4375 197.035 60.3867 197.316 60.2852C197.598 60.1836 197.824 60.0273 197.996 59.8164C198.168 59.6133 198.305 59.3477 198.406 59.0195L199.355 56.5703ZM197.949 45.3203L200.703 54.5078L201.184 58.082L198.887 58.3281L194.328 45.3203H197.949Z" fill="#888888"/>
<path d="M115.994 98.708V104.641H99.5806V98.708H115.994ZM102.151 86.0078V118H94.439V86.0078H102.151ZM121.18 86.0078V118H113.489V86.0078H121.18ZM124.805 106.354V105.893C124.805 104.15 125.054 102.546 125.552 101.081C126.05 99.6016 126.783 98.3198 127.75 97.2358C128.716 96.1519 129.91 95.3096 131.331 94.709C132.752 94.0938 134.393 93.7861 136.253 93.7861C138.128 93.7861 139.776 94.0938 141.197 94.709C142.632 95.3096 143.833 96.1519 144.8 97.2358C145.767 98.3198 146.5 99.6016 146.998 101.081C147.496 102.546 147.745 104.15 147.745 105.893V106.354C147.745 108.083 147.496 109.687 146.998 111.167C146.5 112.631 145.767 113.913 144.8 115.012C143.833 116.096 142.64 116.938 141.219 117.539C139.798 118.139 138.157 118.439 136.297 118.439C134.437 118.439 132.789 118.139 131.353 117.539C129.917 116.938 128.716 116.096 127.75 115.012C126.783 113.913 126.05 112.631 125.552 111.167C125.054 109.687 124.805 108.083 124.805 106.354ZM132.21 105.893V106.354C132.21 107.248 132.276 108.083 132.408 108.859C132.54 109.636 132.759 110.317 133.067 110.903C133.375 111.474 133.792 111.921 134.319 112.243C134.847 112.565 135.506 112.727 136.297 112.727C137.073 112.727 137.718 112.565 138.23 112.243C138.758 111.921 139.175 111.474 139.483 110.903C139.791 110.317 140.01 109.636 140.142 108.859C140.274 108.083 140.34 107.248 140.34 106.354V105.893C140.34 105.029 140.274 104.216 140.142 103.454C140.01 102.678 139.791 101.997 139.483 101.411C139.175 100.81 138.758 100.341 138.23 100.004C137.703 99.6675 137.044 99.499 136.253 99.499C135.477 99.499 134.825 99.6675 134.297 100.004C133.785 100.341 133.375 100.81 133.067 101.411C132.759 101.997 132.54 102.678 132.408 103.454C132.276 104.216 132.21 105.029 132.21 105.893ZM158.27 110.925L162.664 94.2256H167.3L165.652 102.597L161.302 118H157.588L158.27 110.925ZM156.534 94.2256L159.258 110.793L159.566 118H155.062L149.437 94.2256H156.534ZM171.211 110.441L173.958 94.2256H181.055L175.474 118H170.97L171.211 110.441ZM167.828 94.2256L172.266 110.881L172.947 118H169.19L164.927 102.641L163.345 94.2256H167.828ZM209.466 86.0078V118H201.753V86.0078H209.466ZM219.09 86.0078V91.9624H192.349V86.0078H219.09ZM216.475 106.354V105.893C216.475 104.15 216.724 102.546 217.222 101.081C217.72 99.6016 218.453 98.3198 219.419 97.2358C220.386 96.1519 221.58 95.3096 223.001 94.709C224.422 94.0938 226.062 93.7861 227.923 93.7861C229.798 93.7861 231.446 94.0938 232.867 94.709C234.302 95.3096 235.503 96.1519 236.47 97.2358C237.437 98.3198 238.169 99.6016 238.667 101.081C239.166 102.546 239.415 104.15 239.415 105.893V106.354C239.415 108.083 239.166 109.687 238.667 111.167C238.169 112.631 237.437 113.913 236.47 115.012C235.503 116.096 234.31 116.938 232.889 117.539C231.468 118.139 229.827 118.439 227.967 118.439C226.106 118.439 224.458 118.139 223.023 117.539C221.587 116.938 220.386 116.096 219.419 115.012C218.453 113.913 217.72 112.631 217.222 111.167C216.724 109.687 216.475 108.083 216.475 106.354ZM223.88 105.893V106.354C223.88 107.248 223.946 108.083 224.078 108.859C224.209 109.636 224.429 110.317 224.737 110.903C225.044 111.474 225.462 111.921 225.989 112.243C226.517 112.565 227.176 112.727 227.967 112.727C228.743 112.727 229.388 112.565 229.9 112.243C230.428 111.921 230.845 111.474 231.153 110.903C231.46 110.317 231.68 109.636 231.812 108.859C231.944 108.083 232.01 107.248 232.01 106.354V105.893C232.01 105.029 231.944 104.216 231.812 103.454C231.68 102.678 231.46 101.997 231.153 101.411C230.845 100.81 230.428 100.341 229.9 100.004C229.373 99.6675 228.714 99.499 227.923 99.499C227.146 99.499 226.495 99.6675 225.967 100.004C225.455 100.341 225.044 100.81 224.737 101.411C224.429 101.997 224.209 102.678 224.078 103.454C223.946 104.216 223.88 105.029 223.88 105.893ZM254.268 86.0078H266.858C269.319 86.0078 271.458 86.374 273.274 87.1064C275.091 87.8389 276.49 88.9229 277.471 90.3584C278.467 91.7939 278.965 93.5664 278.965 95.6758C278.965 97.5068 278.68 99.0376 278.108 100.268C277.537 101.499 276.739 102.517 275.713 103.322C274.703 104.113 273.523 104.765 272.176 105.278L269.649 106.706H259.08L259.036 100.751H266.858C267.84 100.751 268.653 100.576 269.297 100.224C269.942 99.8726 270.425 99.3745 270.748 98.73C271.084 98.0708 271.253 97.2871 271.253 96.3789C271.253 95.4561 271.084 94.665 270.748 94.0059C270.411 93.3467 269.913 92.8413 269.253 92.4897C268.609 92.1382 267.811 91.9624 266.858 91.9624H261.98V118H254.268V86.0078ZM271.78 118L264.705 103.85L272.879 103.806L280.042 117.67V118H271.78ZM297.159 112.221V94.2256H304.585V118H297.642L297.159 112.221ZM297.862 107.387L299.795 107.343C299.795 108.94 299.605 110.419 299.224 111.782C298.843 113.129 298.279 114.301 297.532 115.297C296.8 116.293 295.892 117.07 294.808 117.626C293.738 118.168 292.5 118.439 291.094 118.439C289.922 118.439 288.846 118.278 287.864 117.956C286.897 117.619 286.062 117.099 285.359 116.396C284.656 115.678 284.107 114.763 283.711 113.649C283.331 112.521 283.14 111.174 283.14 109.606V94.2256H290.545V109.65C290.545 110.178 290.611 110.632 290.743 111.013C290.875 111.394 291.065 111.716 291.314 111.979C291.563 112.229 291.871 112.419 292.237 112.551C292.618 112.668 293.05 112.727 293.533 112.727C294.646 112.727 295.518 112.492 296.148 112.023C296.778 111.555 297.217 110.917 297.466 110.112C297.73 109.306 297.862 108.398 297.862 107.387ZM315.945 99.3013V118H308.541V94.2256H315.484L315.945 99.3013ZM315.066 105.3L313.331 105.344C313.331 103.527 313.55 101.909 313.99 100.488C314.429 99.0522 315.052 97.8364 315.857 96.8403C316.663 95.8442 317.623 95.0898 318.736 94.5771C319.864 94.0498 321.116 93.7861 322.493 93.7861C323.592 93.7861 324.595 93.9473 325.503 94.2695C326.426 94.5918 327.217 95.1118 327.876 95.8296C328.55 96.5474 329.063 97.4995 329.415 98.686C329.781 99.8579 329.964 101.308 329.964 103.037V118H322.515V103.015C322.515 102.062 322.383 101.337 322.12 100.839C321.856 100.327 321.475 99.9751 320.977 99.7847C320.479 99.5942 319.871 99.499 319.153 99.499C318.392 99.499 317.747 99.6455 317.22 99.9385C316.692 100.231 316.268 100.642 315.945 101.169C315.638 101.682 315.411 102.29 315.264 102.993C315.132 103.696 315.066 104.465 315.066 105.3ZM345.85 107.871H339.544C339.544 106.582 339.632 105.446 339.808 104.465C339.998 103.469 340.32 102.575 340.774 101.784C341.229 100.993 341.844 100.261 342.62 99.5869C343.309 99.0156 343.902 98.4663 344.4 97.939C344.898 97.4116 345.279 96.877 345.542 96.335C345.806 95.793 345.938 95.2144 345.938 94.5991C345.938 93.8374 345.828 93.2148 345.608 92.7314C345.403 92.248 345.088 91.8892 344.664 91.6548C344.253 91.4058 343.733 91.2812 343.104 91.2812C342.591 91.2812 342.107 91.4058 341.653 91.6548C341.214 91.9038 340.855 92.292 340.577 92.8193C340.298 93.332 340.145 94.0132 340.115 94.8628H332.667C332.71 92.6802 333.194 90.9077 334.117 89.5454C335.054 88.1685 336.299 87.165 337.852 86.5352C339.419 85.8906 341.17 85.5684 343.104 85.5684C345.242 85.5684 347.081 85.8979 348.619 86.5571C350.157 87.2163 351.336 88.1978 352.156 89.5015C352.977 90.7905 353.387 92.3799 353.387 94.2695C353.387 95.5293 353.145 96.6279 352.662 97.5654C352.193 98.4883 351.556 99.3525 350.75 100.158C349.959 100.949 349.073 101.799 348.091 102.707C347.242 103.454 346.663 104.216 346.355 104.992C346.048 105.754 345.879 106.713 345.85 107.871ZM338.643 114.55C338.643 113.496 339.024 112.617 339.786 111.914C340.547 111.196 341.536 110.837 342.752 110.837C343.968 110.837 344.957 111.196 345.718 111.914C346.48 112.617 346.861 113.496 346.861 114.55C346.861 115.605 346.48 116.491 345.718 117.209C344.957 117.912 343.968 118.264 342.752 118.264C341.536 118.264 340.547 117.912 339.786 117.209C339.024 116.491 338.643 115.605 338.643 114.55Z" fill="#424241"/>
<path d="M1363 15C1363 6.71573 1356.28 0 1348 0H1134V167H1348C1356.28 167 1363 160.284 1363 152V15Z" fill="#186485"/>
<path d="M1260.77 81.3079C1263.96 81.3079 1267.09 82.2553 1269.74 84.0303C1272.4 85.8053 1274.47 88.3282 1275.69 91.2799C1276.92 94.2316 1277.24 97.4796 1276.61 100.613C1275.99 103.747 1274.45 106.625 1272.19 108.884C1269.93 111.143 1267.05 112.682 1263.92 113.305C1260.79 113.928 1257.54 113.608 1254.59 112.386C1251.64 111.163 1249.11 109.093 1247.34 106.436C1245.56 103.78 1244.62 100.657 1244.62 97.4617C1244.62 93.1774 1246.32 89.0686 1249.35 86.0392C1252.38 83.0098 1256.48 81.3079 1260.77 81.3079ZM1260.77 75.9233C1256.51 75.9233 1252.35 77.1865 1248.8 79.5532C1245.26 81.9198 1242.5 85.2837 1240.87 89.2193C1239.24 93.1549 1238.81 97.4856 1239.64 101.664C1240.48 105.842 1242.53 109.679 1245.54 112.692C1248.55 115.704 1252.39 117.755 1256.57 118.586C1260.75 119.417 1265.08 118.991 1269.01 117.361C1272.95 115.73 1276.31 112.97 1278.68 109.428C1281.04 105.886 1282.31 101.722 1282.31 97.4617C1282.31 91.7493 1280.04 86.271 1276 82.2317C1271.96 78.1925 1266.48 75.9233 1260.77 75.9233Z" fill="white"/>
<path d="M1274.23 49H1220.38C1218.96 49 1217.59 49.5673 1216.58 50.5771C1215.57 51.5869 1215 52.9565 1215 54.3846V108.231C1215 109.659 1215.57 111.028 1216.58 112.038C1217.59 113.048 1218.96 113.615 1220.38 113.615H1231.15V108.231H1220.38V70.5384H1279.62V54.3846C1279.62 52.9565 1279.05 51.5869 1278.04 50.5771C1277.03 49.5673 1275.66 49 1274.23 49ZM1220.38 65.1538V54.3846H1274.23V65.1538H1220.38Z" fill="white"/>
<path d="M1255.38 89.3849V105.539L1268.85 97.4618L1255.38 89.3849Z" fill="white"/>
</svg>
