<svg width="1363" height="301" viewBox="0 0 1363 301" fill="none" xmlns="http://www.w3.org/2000/svg">
<rect width="1363" height="301" rx="15" fill="#F0F0F0"/>
<path d="M0 15C0 6.71573 6.71573 0 15 0H37V301H15C6.71573 301 0 294.284 0 286V15Z" fill="#186485"/>
<path d="M120.816 136.749V144H101.05V136.749H120.816ZM104.407 104.898V144H94.981V104.898H104.407ZM138.433 144.537C136.07 144.537 133.957 144.17 132.095 143.436C130.233 142.684 128.658 141.655 127.369 140.348C126.097 139.041 125.122 137.537 124.441 135.836C123.779 134.135 123.448 132.336 123.448 130.438V129.417C123.448 127.287 123.743 125.318 124.334 123.509C124.925 121.683 125.802 120.09 126.966 118.729C128.13 117.368 129.589 116.312 131.343 115.56C133.098 114.79 135.139 114.405 137.466 114.405C139.525 114.405 141.369 114.736 142.999 115.399C144.628 116.061 146.006 117.01 147.134 118.246C148.28 119.481 149.148 120.976 149.739 122.73C150.348 124.485 150.652 126.454 150.652 128.639V132.318H126.912V126.651H141.817V125.953C141.835 124.986 141.665 124.163 141.307 123.482C140.966 122.802 140.465 122.283 139.803 121.925C139.14 121.567 138.335 121.388 137.386 121.388C136.401 121.388 135.586 121.603 134.942 122.032C134.315 122.462 133.823 123.053 133.465 123.805C133.125 124.539 132.883 125.389 132.74 126.356C132.597 127.323 132.525 128.343 132.525 129.417V130.438C132.525 131.512 132.668 132.488 132.955 133.365C133.259 134.243 133.689 134.994 134.244 135.621C134.817 136.23 135.497 136.704 136.285 137.044C137.09 137.385 138.003 137.555 139.024 137.555C140.259 137.555 141.477 137.322 142.676 136.856C143.876 136.391 144.905 135.621 145.765 134.547L149.874 139.435C149.283 140.276 148.441 141.091 147.349 141.878C146.275 142.666 144.986 143.311 143.482 143.812C141.978 144.295 140.295 144.537 138.433 144.537ZM169.639 114.942V121.227H152.129V114.942H169.639ZM155.809 107.718H164.859V134.52C164.859 135.29 164.948 135.89 165.127 136.319C165.306 136.731 165.611 137.027 166.041 137.206C166.488 137.367 167.079 137.447 167.813 137.447C168.332 137.447 168.762 137.438 169.102 137.42C169.442 137.385 169.764 137.34 170.069 137.286V143.758C169.299 144.009 168.493 144.197 167.652 144.322C166.81 144.465 165.915 144.537 164.966 144.537C163.033 144.537 161.377 144.233 159.998 143.624C158.637 143.015 157.599 142.057 156.883 140.75C156.167 139.444 155.809 137.743 155.809 135.648V107.718ZM188.465 135.836C188.465 135.335 188.295 134.905 187.955 134.547C187.632 134.171 187.059 133.831 186.236 133.526C185.412 133.204 184.257 132.882 182.771 132.56C181.357 132.255 180.023 131.852 178.77 131.351C177.535 130.85 176.451 130.241 175.521 129.525C174.59 128.809 173.855 127.958 173.318 126.974C172.799 125.989 172.54 124.861 172.54 123.59C172.54 122.354 172.799 121.191 173.318 120.099C173.855 118.989 174.634 118.013 175.655 117.171C176.693 116.312 177.955 115.641 179.441 115.157C180.927 114.656 182.619 114.405 184.517 114.405C187.131 114.405 189.387 114.808 191.285 115.614C193.182 116.402 194.642 117.512 195.662 118.944C196.701 120.358 197.22 121.996 197.22 123.858H188.169C188.169 123.124 188.044 122.498 187.793 121.979C187.561 121.459 187.176 121.065 186.639 120.797C186.102 120.51 185.385 120.367 184.49 120.367C183.864 120.367 183.291 120.484 182.771 120.716C182.27 120.949 181.867 121.271 181.563 121.683C181.259 122.095 181.106 122.578 181.106 123.133C181.106 123.527 181.196 123.885 181.375 124.208C181.572 124.512 181.867 124.798 182.261 125.067C182.655 125.318 183.156 125.55 183.765 125.765C184.374 125.962 185.108 126.141 185.967 126.302C187.919 126.66 189.745 127.171 191.446 127.833C193.147 128.495 194.525 129.435 195.582 130.653C196.656 131.87 197.193 133.508 197.193 135.567C197.193 136.856 196.897 138.047 196.307 139.139C195.716 140.213 194.865 141.162 193.755 141.986C192.645 142.792 191.312 143.418 189.754 143.866C188.196 144.313 186.442 144.537 184.49 144.537C181.715 144.537 179.37 144.045 177.454 143.06C175.538 142.057 174.088 140.804 173.104 139.3C172.137 137.778 171.653 136.239 171.653 134.681H180.086C180.122 135.576 180.337 136.31 180.73 136.883C181.142 137.456 181.688 137.877 182.369 138.146C183.049 138.414 183.837 138.548 184.732 138.548C185.556 138.548 186.236 138.432 186.773 138.199C187.328 137.966 187.749 137.653 188.035 137.259C188.322 136.847 188.465 136.373 188.465 135.836ZM235.704 133.607C235.704 132.998 235.614 132.452 235.435 131.969C235.256 131.467 234.925 131.002 234.441 130.572C233.958 130.143 233.26 129.713 232.347 129.283C231.451 128.836 230.27 128.37 228.802 127.887C227.083 127.314 225.427 126.669 223.833 125.953C222.24 125.219 220.817 124.369 219.563 123.402C218.31 122.417 217.317 121.271 216.583 119.964C215.848 118.639 215.481 117.1 215.481 115.345C215.481 113.662 215.857 112.149 216.609 110.807C217.361 109.446 218.409 108.291 219.751 107.342C221.112 106.375 222.706 105.641 224.532 105.14C226.358 104.621 228.354 104.361 230.521 104.361C233.385 104.361 235.91 104.863 238.094 105.865C240.296 106.85 242.015 108.255 243.25 110.082C244.503 111.89 245.13 114.029 245.13 116.5H235.757C235.757 115.515 235.551 114.647 235.14 113.895C234.746 113.143 234.146 112.552 233.34 112.123C232.535 111.693 231.523 111.478 230.306 111.478C229.124 111.478 228.13 111.657 227.325 112.015C226.519 112.373 225.91 112.857 225.499 113.465C225.087 114.056 224.881 114.71 224.881 115.426C224.881 116.017 225.042 116.554 225.364 117.037C225.704 117.503 226.179 117.941 226.788 118.353C227.414 118.765 228.166 119.159 229.043 119.535C229.939 119.911 230.941 120.278 232.051 120.636C234.128 121.298 235.972 122.041 237.583 122.865C239.213 123.67 240.582 124.592 241.692 125.631C242.82 126.651 243.671 127.815 244.244 129.122C244.834 130.429 245.13 131.906 245.13 133.553C245.13 135.308 244.79 136.865 244.109 138.226C243.429 139.587 242.453 140.742 241.182 141.69C239.911 142.621 238.389 143.329 236.617 143.812C234.844 144.295 232.866 144.537 230.682 144.537C228.676 144.537 226.698 144.286 224.747 143.785C222.813 143.266 221.058 142.478 219.483 141.422C217.907 140.348 216.645 138.978 215.696 137.313C214.765 135.63 214.3 133.634 214.3 131.324H223.753C223.753 132.47 223.905 133.437 224.209 134.225C224.514 135.012 224.961 135.648 225.552 136.131C226.143 136.597 226.868 136.937 227.728 137.152C228.587 137.349 229.572 137.447 230.682 137.447C231.881 137.447 232.848 137.277 233.582 136.937C234.316 136.579 234.853 136.113 235.193 135.541C235.534 134.95 235.704 134.305 235.704 133.607ZM264.869 114.942V121.227H247.359V114.942H264.869ZM251.038 107.718H260.088V134.52C260.088 135.29 260.178 135.89 260.357 136.319C260.536 136.731 260.84 137.027 261.27 137.206C261.718 137.367 262.308 137.447 263.042 137.447C263.562 137.447 263.991 137.438 264.332 137.42C264.672 137.385 264.994 137.34 265.298 137.286V143.758C264.528 144.009 263.723 144.197 262.881 144.322C262.04 144.465 261.145 144.537 260.196 144.537C258.262 144.537 256.606 144.233 255.228 143.624C253.867 143.015 252.828 142.057 252.112 140.75C251.396 139.444 251.038 137.743 251.038 135.648V107.718ZM285.44 136.937V114.942H294.517V144H286.031L285.44 136.937ZM286.299 131.029L288.663 130.975C288.663 132.927 288.43 134.735 287.964 136.4C287.499 138.047 286.81 139.479 285.896 140.697C285.001 141.914 283.891 142.863 282.566 143.543C281.259 144.206 279.747 144.537 278.028 144.537C276.596 144.537 275.28 144.34 274.08 143.946C272.898 143.535 271.878 142.899 271.019 142.04C270.159 141.162 269.488 140.043 269.004 138.683C268.539 137.304 268.306 135.657 268.306 133.741V114.942H277.356V133.795C277.356 134.439 277.437 134.994 277.598 135.46C277.759 135.925 277.992 136.319 278.296 136.642C278.601 136.946 278.977 137.179 279.424 137.34C279.89 137.483 280.418 137.555 281.009 137.555C282.369 137.555 283.435 137.268 284.205 136.695C284.974 136.122 285.512 135.344 285.816 134.359C286.138 133.374 286.299 132.264 286.299 131.029ZM316.216 137.34V102.75H325.32V144H317.156L316.216 137.34ZM298.384 129.82V129.256C298.384 127.054 298.626 125.049 299.109 123.241C299.593 121.415 300.309 119.848 301.258 118.541C302.207 117.216 303.388 116.196 304.803 115.479C306.217 114.763 307.846 114.405 309.69 114.405C311.338 114.405 312.779 114.79 314.014 115.56C315.25 116.312 316.306 117.368 317.183 118.729C318.06 120.09 318.777 121.683 319.332 123.509C319.887 125.318 320.307 127.269 320.594 129.364V130.035C320.307 132.005 319.887 133.867 319.332 135.621C318.777 137.358 318.06 138.897 317.183 140.24C316.306 141.583 315.241 142.639 313.987 143.409C312.752 144.161 311.302 144.537 309.637 144.537C307.793 144.537 306.163 144.17 304.749 143.436C303.353 142.702 302.18 141.673 301.231 140.348C300.3 139.023 299.593 137.465 299.109 135.675C298.626 133.884 298.384 131.933 298.384 129.82ZM307.435 129.256V129.82C307.435 130.912 307.506 131.924 307.649 132.855C307.793 133.786 308.034 134.61 308.375 135.326C308.733 136.024 309.198 136.57 309.771 136.964C310.362 137.358 311.087 137.555 311.946 137.555C313.11 137.555 314.068 137.277 314.82 136.722C315.59 136.167 316.154 135.379 316.512 134.359C316.888 133.338 317.049 132.139 316.995 130.76V128.639C317.031 127.457 316.95 126.419 316.753 125.523C316.556 124.61 316.243 123.849 315.813 123.241C315.402 122.632 314.874 122.175 314.229 121.871C313.602 121.549 312.859 121.388 312 121.388C311.159 121.388 310.442 121.585 309.852 121.979C309.279 122.372 308.813 122.927 308.455 123.644C308.097 124.342 307.837 125.174 307.676 126.141C307.515 127.09 307.435 128.128 307.435 129.256ZM339.366 140.589L346.885 114.942H356.607L344.925 148.324C344.674 149.058 344.343 149.846 343.931 150.687C343.519 151.546 342.955 152.361 342.239 153.131C341.523 153.901 340.601 154.527 339.473 155.011C338.363 155.494 336.985 155.736 335.337 155.736C334.46 155.736 333.816 155.691 333.404 155.602C333.01 155.53 332.401 155.396 331.578 155.199V148.727C331.81 148.727 332.007 148.727 332.168 148.727C332.347 148.727 332.544 148.727 332.759 148.727C333.726 148.727 334.496 148.628 335.069 148.431C335.66 148.234 336.107 147.948 336.412 147.572C336.734 147.196 336.985 146.739 337.164 146.202L339.366 140.589ZM337.459 114.942L343.179 135.272L344.173 144.859H338.104L327.764 114.942H337.459Z" fill="black"/>
<path d="M103.963 69.0796H97.5713L97.5371 65.5591H102.903C103.849 65.5591 104.624 65.4395 105.228 65.2002C105.831 64.9495 106.281 64.5907 106.578 64.1235C106.885 63.645 107.039 63.064 107.039 62.3804C107.039 61.6056 106.891 60.979 106.595 60.5005C106.31 60.022 105.86 59.6745 105.245 59.458C104.641 59.2415 103.86 59.1333 102.903 59.1333H99.3486V80H94.2217V55.1172H102.903C104.35 55.1172 105.643 55.2539 106.783 55.5273C107.933 55.8008 108.908 56.2166 109.705 56.7749C110.503 57.3332 111.112 58.0396 111.534 58.894C111.955 59.7371 112.166 60.7397 112.166 61.9019C112.166 62.9272 111.932 63.8729 111.465 64.7388C111.01 65.6047 110.286 66.311 109.295 66.8579C108.315 67.4048 107.033 67.7067 105.45 67.7637L103.963 69.0796ZM103.741 80H96.1699L98.1694 76.001H103.741C104.641 76.001 105.376 75.8586 105.945 75.5737C106.515 75.2775 106.937 74.8787 107.21 74.3774C107.483 73.8761 107.62 73.3008 107.62 72.6514C107.62 71.9222 107.495 71.2899 107.244 70.7544C107.005 70.2189 106.618 69.8088 106.082 69.5239C105.547 69.2277 104.84 69.0796 103.963 69.0796H99.0239L99.0581 65.5591H105.21L106.39 66.9434C107.905 66.9206 109.124 67.1883 110.047 67.7466C110.981 68.2935 111.659 69.0055 112.081 69.8828C112.514 70.7601 112.73 71.7 112.73 72.7026C112.73 74.2977 112.382 75.6421 111.688 76.7358C110.993 77.8182 109.973 78.6328 108.628 79.1797C107.295 79.7266 105.666 80 103.741 80ZM126.248 75.8301V67.5928C126.248 67.0003 126.151 66.4933 125.958 66.0718C125.764 65.6388 125.462 65.3027 125.052 65.0635C124.653 64.8242 124.135 64.7046 123.497 64.7046C122.95 64.7046 122.477 64.8014 122.078 64.9951C121.679 65.1774 121.372 65.4451 121.155 65.7983C120.939 66.1401 120.831 66.5446 120.831 67.0117H115.909C115.909 66.2256 116.091 65.4793 116.456 64.7729C116.82 64.0666 117.35 63.4456 118.045 62.9102C118.74 62.3633 119.566 61.936 120.523 61.6284C121.491 61.3208 122.574 61.167 123.77 61.167C125.206 61.167 126.482 61.4062 127.598 61.8848C128.715 62.3633 129.592 63.0811 130.23 64.0381C130.879 64.9951 131.204 66.1914 131.204 67.627V75.5396C131.204 76.5535 131.267 77.3853 131.392 78.0347C131.517 78.6727 131.7 79.231 131.939 79.7095V80H126.966C126.727 79.4987 126.544 78.8721 126.419 78.1201C126.305 77.3568 126.248 76.5934 126.248 75.8301ZM126.897 68.7378L126.932 71.5234H124.18C123.531 71.5234 122.967 71.5975 122.488 71.7456C122.01 71.8937 121.617 72.1045 121.309 72.3779C121.001 72.64 120.774 72.9476 120.625 73.3008C120.489 73.654 120.42 74.0413 120.42 74.4629C120.42 74.8844 120.517 75.2661 120.711 75.6079C120.905 75.9383 121.184 76.2004 121.548 76.394C121.913 76.5763 122.34 76.6675 122.83 76.6675C123.571 76.6675 124.214 76.5194 124.761 76.2231C125.308 75.9269 125.73 75.5623 126.026 75.1294C126.333 74.6965 126.493 74.2863 126.504 73.8989L127.803 75.9839C127.621 76.451 127.37 76.9352 127.051 77.4365C126.744 77.9378 126.351 78.4106 125.872 78.855C125.394 79.2879 124.818 79.6468 124.146 79.9316C123.474 80.2051 122.676 80.3418 121.753 80.3418C120.58 80.3418 119.515 80.1082 118.558 79.6411C117.612 79.1626 116.86 78.5075 116.302 77.6758C115.755 76.8327 115.481 75.8757 115.481 74.8047C115.481 73.8363 115.664 72.9761 116.028 72.2241C116.393 71.4722 116.928 70.8398 117.635 70.3271C118.353 69.8031 119.247 69.41 120.318 69.1479C121.389 68.8745 122.631 68.7378 124.043 68.7378H126.897ZM144.056 61.5088V64.9951H133.289V61.5088H144.056ZM135.955 56.9458H140.877V74.4287C140.877 74.9642 140.945 75.3743 141.082 75.6592C141.23 75.944 141.447 76.1434 141.731 76.2573C142.016 76.3599 142.375 76.4111 142.808 76.4111C143.116 76.4111 143.389 76.3997 143.628 76.377C143.879 76.3428 144.09 76.3086 144.261 76.2744L144.278 79.8975C143.856 80.0342 143.401 80.1424 142.911 80.2222C142.421 80.3019 141.88 80.3418 141.287 80.3418C140.205 80.3418 139.259 80.1652 138.45 79.812C137.653 79.4474 137.037 78.8664 136.604 78.0688C136.172 77.2713 135.955 76.2231 135.955 74.9243V56.9458ZM145.628 70.9424V70.5835C145.628 69.2277 145.822 67.9801 146.209 66.8408C146.596 65.6901 147.16 64.6932 147.901 63.8501C148.641 63.007 149.553 62.3519 150.635 61.8848C151.718 61.4062 152.959 61.167 154.361 61.167C155.762 61.167 157.01 61.4062 158.104 61.8848C159.197 62.3519 160.114 63.007 160.855 63.8501C161.607 64.6932 162.177 65.6901 162.564 66.8408C162.951 67.9801 163.145 69.2277 163.145 70.5835V70.9424C163.145 72.2868 162.951 73.5343 162.564 74.6851C162.177 75.8244 161.607 76.8213 160.855 77.6758C160.114 78.5189 159.203 79.174 158.121 79.6411C157.038 80.1082 155.796 80.3418 154.395 80.3418C152.994 80.3418 151.746 80.1082 150.652 79.6411C149.57 79.174 148.653 78.5189 147.901 77.6758C147.16 76.8213 146.596 75.8244 146.209 74.6851C145.822 73.5343 145.628 72.2868 145.628 70.9424ZM150.55 70.5835V70.9424C150.55 71.7171 150.618 72.4406 150.755 73.1128C150.892 73.785 151.108 74.3774 151.404 74.8901C151.712 75.3914 152.111 75.7845 152.601 76.0693C153.09 76.3542 153.689 76.4966 154.395 76.4966C155.079 76.4966 155.665 76.3542 156.155 76.0693C156.645 75.7845 157.038 75.3914 157.334 74.8901C157.631 74.3774 157.847 73.785 157.984 73.1128C158.132 72.4406 158.206 71.7171 158.206 70.9424V70.5835C158.206 69.8315 158.132 69.1252 157.984 68.4644C157.847 67.7922 157.625 67.1997 157.317 66.687C157.021 66.1629 156.628 65.7528 156.138 65.4565C155.648 65.1603 155.056 65.0122 154.361 65.0122C153.666 65.0122 153.073 65.1603 152.583 65.4565C152.105 65.7528 151.712 66.1629 151.404 66.687C151.108 67.1997 150.892 67.7922 150.755 68.4644C150.618 69.1252 150.55 69.8315 150.55 70.5835ZM177.107 75.5737V61.5088H182.029V80H177.398L177.107 75.5737ZM177.654 71.7798L179.107 71.7456C179.107 72.9761 178.965 74.1211 178.68 75.1807C178.395 76.2288 177.968 77.1403 177.398 77.915C176.828 78.6784 176.111 79.2765 175.245 79.7095C174.379 80.131 173.359 80.3418 172.186 80.3418C171.285 80.3418 170.454 80.2165 169.69 79.9658C168.938 79.7038 168.289 79.2993 167.742 78.7524C167.207 78.1942 166.785 77.4821 166.478 76.6162C166.181 75.7389 166.033 74.6851 166.033 73.4546V61.5088H170.955V73.4888C170.955 74.0356 171.018 74.4971 171.143 74.873C171.28 75.249 171.468 75.5566 171.707 75.7959C171.946 76.0352 172.225 76.2061 172.544 76.3086C172.875 76.4111 173.239 76.4624 173.638 76.4624C174.652 76.4624 175.45 76.2573 176.031 75.8472C176.623 75.437 177.039 74.8787 177.278 74.1724C177.529 73.4546 177.654 72.6571 177.654 71.7798ZM190.984 53.75V80H186.045V53.75H190.984ZM214.192 59.3726L207.425 80H201.973L211.219 55.1172H214.688L214.192 59.3726ZM219.815 80L213.03 59.3726L212.483 55.1172H215.987L225.284 80H219.815ZM219.507 70.7373V74.7534H206.365V70.7373H219.507ZM232.479 53.75V80H227.54V53.75H232.479ZM246.543 74.8901C246.543 74.5369 246.441 74.2179 246.236 73.9331C246.031 73.6483 245.649 73.3862 245.091 73.147C244.544 72.8963 243.752 72.6685 242.715 72.4634C241.781 72.2583 240.91 72.002 240.101 71.6943C239.303 71.3753 238.608 70.9937 238.016 70.5493C237.435 70.105 236.979 69.5809 236.648 68.9771C236.318 68.3618 236.153 67.6611 236.153 66.875C236.153 66.1003 236.318 65.3711 236.648 64.6875C236.99 64.0039 237.474 63.4001 238.101 62.876C238.739 62.3405 239.514 61.9246 240.425 61.6284C241.348 61.3208 242.385 61.167 243.536 61.167C245.142 61.167 246.521 61.4233 247.671 61.936C248.833 62.4487 249.722 63.1551 250.337 64.0552C250.964 64.9438 251.277 65.9578 251.277 67.0972H246.355C246.355 66.6187 246.253 66.1914 246.048 65.8154C245.854 65.4281 245.547 65.1261 245.125 64.9097C244.715 64.6818 244.179 64.5679 243.519 64.5679C242.972 64.5679 242.499 64.6647 242.1 64.8584C241.701 65.0407 241.394 65.2913 241.177 65.6104C240.972 65.918 240.87 66.2598 240.87 66.6357C240.87 66.9206 240.927 67.1769 241.041 67.4048C241.166 67.6213 241.365 67.8206 241.639 68.0029C241.912 68.1852 242.265 68.3561 242.698 68.5156C243.143 68.6637 243.689 68.8005 244.339 68.9258C245.672 69.1992 246.862 69.5581 247.911 70.0024C248.959 70.4354 249.791 71.0278 250.406 71.7798C251.021 72.5203 251.329 73.4945 251.329 74.7021C251.329 75.5225 251.146 76.2744 250.782 76.958C250.417 77.6416 249.893 78.2397 249.209 78.7524C248.526 79.2537 247.706 79.6468 246.749 79.9316C245.803 80.2051 244.738 80.3418 243.553 80.3418C241.832 80.3418 240.374 80.0342 239.178 79.4189C237.993 78.8037 237.093 78.0233 236.478 77.0776C235.874 76.1206 235.572 75.1408 235.572 74.1382H240.237C240.26 74.8104 240.431 75.3516 240.75 75.7617C241.08 76.1719 241.496 76.4681 241.998 76.6504C242.51 76.8327 243.063 76.9238 243.655 76.9238C244.293 76.9238 244.823 76.8384 245.245 76.6675C245.666 76.4852 245.985 76.2459 246.202 75.9497C246.43 75.6421 246.543 75.2889 246.543 74.8901ZM264.505 75.8301V67.5928C264.505 67.0003 264.408 66.4933 264.214 66.0718C264.021 65.6388 263.719 65.3027 263.309 65.0635C262.91 64.8242 262.391 64.7046 261.753 64.7046C261.207 64.7046 260.734 64.8014 260.335 64.9951C259.936 65.1774 259.629 65.4451 259.412 65.7983C259.196 66.1401 259.087 66.5446 259.087 67.0117H254.166C254.166 66.2256 254.348 65.4793 254.712 64.7729C255.077 64.0666 255.607 63.4456 256.302 62.9102C256.997 62.3633 257.823 61.936 258.78 61.6284C259.748 61.3208 260.831 61.167 262.027 61.167C263.462 61.167 264.738 61.4062 265.855 61.8848C266.972 62.3633 267.849 63.0811 268.487 64.0381C269.136 64.9951 269.461 66.1914 269.461 67.627V75.5396C269.461 76.5535 269.524 77.3853 269.649 78.0347C269.774 78.6727 269.957 79.231 270.196 79.7095V80H265.223C264.983 79.4987 264.801 78.8721 264.676 78.1201C264.562 77.3568 264.505 76.5934 264.505 75.8301ZM265.154 68.7378L265.188 71.5234H262.437C261.788 71.5234 261.224 71.5975 260.745 71.7456C260.267 71.8937 259.874 72.1045 259.566 72.3779C259.258 72.64 259.03 72.9476 258.882 73.3008C258.746 73.654 258.677 74.0413 258.677 74.4629C258.677 74.8844 258.774 75.2661 258.968 75.6079C259.161 75.9383 259.441 76.2004 259.805 76.394C260.17 76.5763 260.597 76.6675 261.087 76.6675C261.827 76.6675 262.471 76.5194 263.018 76.2231C263.565 75.9269 263.986 75.5623 264.283 75.1294C264.59 74.6965 264.75 74.2863 264.761 73.8989L266.06 75.9839C265.878 76.451 265.627 76.9352 265.308 77.4365C265 77.9378 264.607 78.4106 264.129 78.855C263.65 79.2879 263.075 79.6468 262.403 79.9316C261.731 80.2051 260.933 80.3418 260.01 80.3418C258.837 80.3418 257.771 80.1082 256.814 79.6411C255.869 79.1626 255.117 78.5075 254.559 77.6758C254.012 76.8327 253.738 75.8757 253.738 74.8047C253.738 73.8363 253.921 72.9761 254.285 72.2241C254.65 71.4722 255.185 70.8398 255.892 70.3271C256.609 69.8031 257.504 69.41 258.575 69.1479C259.646 68.8745 260.888 68.7378 262.3 68.7378H265.154ZM278.467 77.915L283.372 61.5088H288.653L281.219 82.7856C281.059 83.2528 280.843 83.7541 280.569 84.2896C280.307 84.825 279.948 85.332 279.493 85.8105C279.048 86.3005 278.484 86.6992 277.801 87.0068C277.129 87.3145 276.303 87.4683 275.323 87.4683C274.856 87.4683 274.474 87.4398 274.178 87.3828C273.882 87.3258 273.528 87.2461 273.118 87.1436V83.5376C273.243 83.5376 273.375 83.5376 273.511 83.5376C273.648 83.549 273.779 83.5547 273.904 83.5547C274.554 83.5547 275.083 83.4806 275.494 83.3325C275.904 83.1844 276.234 82.9565 276.485 82.6489C276.736 82.3527 276.935 81.9653 277.083 81.4868L278.467 77.915ZM276.417 61.5088L280.433 74.9072L281.133 80.1196L277.784 80.4785L271.136 61.5088H276.417ZM296.104 77.915L301.009 61.5088H306.29L298.855 82.7856C298.696 83.2528 298.479 83.7541 298.206 84.2896C297.944 84.825 297.585 85.332 297.129 85.8105C296.685 86.3005 296.121 86.6992 295.438 87.0068C294.765 87.3145 293.939 87.4683 292.959 87.4683C292.492 87.4683 292.111 87.4398 291.814 87.3828C291.518 87.3258 291.165 87.2461 290.755 87.1436V83.5376C290.88 83.5376 291.011 83.5376 291.148 83.5376C291.285 83.549 291.416 83.5547 291.541 83.5547C292.19 83.5547 292.72 83.4806 293.13 83.3325C293.541 83.1844 293.871 82.9565 294.122 82.6489C294.372 82.3527 294.572 81.9653 294.72 81.4868L296.104 77.915ZM294.053 61.5088L298.069 74.9072L298.77 80.1196L295.42 80.4785L288.772 61.5088H294.053ZM316.526 80.3418C315.091 80.3418 313.803 80.1139 312.664 79.6582C311.525 79.1911 310.556 78.5474 309.759 77.7271C308.973 76.9067 308.369 75.9554 307.947 74.873C307.526 73.7793 307.315 72.6172 307.315 71.3867V70.7031C307.315 69.3018 307.514 68.02 307.913 66.8579C308.312 65.6958 308.882 64.6875 309.622 63.833C310.374 62.9785 311.285 62.3234 312.356 61.8677C313.427 61.4006 314.635 61.167 315.979 61.167C317.29 61.167 318.452 61.3835 319.466 61.8164C320.48 62.2493 321.329 62.8646 322.012 63.6621C322.707 64.4596 323.231 65.4167 323.584 66.5332C323.938 67.6383 324.114 68.8688 324.114 70.2246V72.2754H309.417V68.9941H319.278V68.6182C319.278 67.9346 319.153 67.325 318.902 66.7896C318.663 66.2427 318.298 65.8097 317.808 65.4907C317.318 65.1717 316.692 65.0122 315.928 65.0122C315.279 65.0122 314.721 65.1546 314.253 65.4395C313.786 65.7243 313.405 66.123 313.108 66.6357C312.824 67.1484 312.607 67.7523 312.459 68.4473C312.322 69.1309 312.254 69.8828 312.254 70.7031V71.3867C312.254 72.1273 312.356 72.8109 312.562 73.4375C312.778 74.0641 313.08 74.6053 313.467 75.061C313.866 75.5168 314.345 75.87 314.903 76.1206C315.472 76.3713 316.116 76.4966 316.834 76.4966C317.723 76.4966 318.549 76.3257 319.312 75.9839C320.087 75.6307 320.753 75.1009 321.312 74.3945L323.704 76.9922C323.317 77.5505 322.787 78.0859 322.115 78.5986C321.454 79.1113 320.656 79.5329 319.722 79.8633C318.788 80.1823 317.723 80.3418 316.526 80.3418ZM337.837 75.9668V53.75H342.793V80H338.333L337.837 75.9668ZM326.148 70.9766V70.6177C326.148 69.2049 326.307 67.9232 326.626 66.7725C326.945 65.6104 327.413 64.6134 328.028 63.7817C328.643 62.95 329.401 62.3063 330.301 61.8506C331.201 61.3949 332.226 61.167 333.377 61.167C334.459 61.167 335.405 61.3949 336.214 61.8506C337.034 62.3063 337.729 62.9557 338.299 63.7988C338.88 64.6305 339.347 65.616 339.7 66.7554C340.053 67.8833 340.31 69.1195 340.469 70.4639V71.25C340.31 72.5374 340.053 73.7337 339.7 74.8389C339.347 75.944 338.88 76.9124 338.299 77.7441C337.729 78.5645 337.034 79.2025 336.214 79.6582C335.394 80.1139 334.437 80.3418 333.343 80.3418C332.192 80.3418 331.167 80.1082 330.267 79.6411C329.378 79.174 328.626 78.5189 328.011 77.6758C327.407 76.8327 326.945 75.8415 326.626 74.7021C326.307 73.5628 326.148 72.321 326.148 70.9766ZM331.07 70.6177V70.9766C331.07 71.7399 331.127 72.452 331.241 73.1128C331.366 73.7736 331.565 74.3604 331.839 74.873C332.124 75.3743 332.488 75.7674 332.933 76.0522C333.388 76.3257 333.941 76.4624 334.59 76.4624C335.433 76.4624 336.128 76.2744 336.675 75.8984C337.222 75.5111 337.638 74.9813 337.923 74.3091C338.219 73.6369 338.39 72.8621 338.436 71.9849V69.7461C338.401 69.0283 338.299 68.3846 338.128 67.8149C337.968 67.2339 337.729 66.7383 337.41 66.3281C337.103 65.918 336.715 65.599 336.248 65.3711C335.792 65.1432 335.251 65.0293 334.625 65.0293C333.986 65.0293 333.44 65.1774 332.984 65.4736C332.528 65.7585 332.158 66.1515 331.873 66.6528C331.6 67.1541 331.395 67.7466 331.258 68.4302C331.132 69.1024 331.07 69.8315 331.07 70.6177Z" fill="#888888"/>
<rect x="92" y="181" width="1179" height="80" rx="13.3333" fill="#CCCCCC"/>
<rect x="107" y="196.333" width="208" height="49.3333" rx="4.66667" fill="#888888" stroke="#888888" stroke-width="4"/>
<path d="M184.5 213.167H190.469C191.635 213.167 192.649 213.34 193.51 213.687C194.372 214.035 195.035 214.549 195.5 215.229C195.972 215.91 196.208 216.75 196.208 217.75C196.208 218.618 196.073 219.344 195.802 219.927C195.531 220.51 195.153 220.993 194.667 221.375C194.188 221.75 193.628 222.059 192.99 222.302L191.792 222.979H186.781L186.76 220.156H190.469C190.934 220.156 191.319 220.073 191.625 219.906C191.931 219.74 192.16 219.503 192.313 219.198C192.472 218.885 192.552 218.514 192.552 218.083C192.552 217.646 192.472 217.271 192.313 216.958C192.153 216.646 191.917 216.406 191.604 216.24C191.299 216.073 190.92 215.99 190.469 215.99H188.156V228.333H184.5V213.167ZM192.802 228.333L189.448 221.625L193.323 221.604L196.719 228.177V228.333H192.802ZM203.708 228.542C202.792 228.542 201.972 228.399 201.25 228.115C200.528 227.823 199.917 227.424 199.417 226.917C198.924 226.41 198.545 225.826 198.281 225.167C198.024 224.507 197.896 223.809 197.896 223.073V222.677C197.896 221.851 198.01 221.087 198.24 220.385C198.469 219.677 198.809 219.059 199.26 218.531C199.712 218.003 200.278 217.594 200.958 217.302C201.639 217.003 202.431 216.854 203.333 216.854C204.132 216.854 204.847 216.983 205.479 217.24C206.111 217.497 206.646 217.865 207.083 218.344C207.528 218.823 207.865 219.403 208.094 220.083C208.33 220.764 208.448 221.528 208.448 222.375V223.802H199.24V221.604H205.021V221.333C205.028 220.958 204.962 220.639 204.823 220.375C204.691 220.111 204.497 219.91 204.24 219.771C203.983 219.632 203.67 219.562 203.302 219.562C202.92 219.562 202.604 219.646 202.354 219.812C202.111 219.979 201.92 220.208 201.781 220.5C201.649 220.785 201.556 221.115 201.5 221.49C201.444 221.865 201.417 222.26 201.417 222.677V223.073C201.417 223.49 201.472 223.868 201.583 224.208C201.701 224.549 201.868 224.84 202.083 225.083C202.306 225.319 202.569 225.503 202.875 225.635C203.187 225.767 203.542 225.833 203.937 225.833C204.417 225.833 204.889 225.743 205.354 225.562C205.819 225.382 206.219 225.083 206.552 224.667L208.146 226.562C207.917 226.889 207.59 227.205 207.167 227.51C206.75 227.816 206.25 228.066 205.667 228.26C205.083 228.448 204.431 228.542 203.708 228.542ZM215.729 225.5V220.854C215.729 220.535 215.684 220.26 215.594 220.031C215.503 219.802 215.361 219.625 215.167 219.5C214.972 219.368 214.712 219.302 214.385 219.302C214.122 219.302 213.896 219.347 213.708 219.437C213.521 219.528 213.378 219.663 213.281 219.844C213.184 220.024 213.135 220.253 213.135 220.531H209.625C209.625 220.01 209.74 219.528 209.969 219.083C210.205 218.632 210.538 218.24 210.969 217.906C211.406 217.573 211.927 217.316 212.531 217.135C213.142 216.948 213.823 216.854 214.573 216.854C215.469 216.854 216.267 217.003 216.969 217.302C217.677 217.601 218.236 218.049 218.646 218.646C219.056 219.236 219.26 219.979 219.26 220.875V225.49C219.26 226.226 219.302 226.785 219.385 227.167C219.469 227.542 219.587 227.872 219.74 228.156V228.333H216.219C216.052 227.986 215.927 227.562 215.844 227.062C215.767 226.556 215.729 226.035 215.729 225.5ZM216.156 221.448L216.177 223.323H214.625C214.299 223.323 214.021 223.368 213.792 223.458C213.569 223.549 213.389 223.674 213.25 223.833C213.118 223.986 213.021 224.16 212.958 224.354C212.903 224.549 212.875 224.753 212.875 224.969C212.875 225.177 212.924 225.365 213.021 225.531C213.125 225.691 213.264 225.816 213.438 225.906C213.611 225.997 213.806 226.042 214.021 226.042C214.41 226.042 214.74 225.969 215.01 225.823C215.288 225.67 215.5 225.486 215.646 225.271C215.792 225.056 215.865 224.854 215.865 224.667L216.635 226.104C216.497 226.382 216.337 226.663 216.156 226.948C215.983 227.233 215.764 227.497 215.5 227.74C215.243 227.976 214.927 228.17 214.552 228.323C214.177 228.469 213.722 228.542 213.188 228.542C212.493 228.542 211.854 228.399 211.271 228.115C210.694 227.83 210.233 227.434 209.885 226.927C209.538 226.413 209.365 225.823 209.365 225.156C209.365 224.573 209.469 224.052 209.677 223.594C209.892 223.135 210.215 222.747 210.646 222.427C211.076 222.108 211.625 221.865 212.292 221.698C212.958 221.531 213.743 221.448 214.646 221.448H216.156ZM225.969 225.833C226.295 225.833 226.573 225.774 226.802 225.656C227.038 225.531 227.215 225.358 227.333 225.135C227.458 224.906 227.517 224.632 227.51 224.312H230.813C230.819 225.16 230.611 225.903 230.188 226.542C229.771 227.174 229.201 227.667 228.479 228.021C227.764 228.368 226.955 228.542 226.052 228.542C225.17 228.542 224.399 228.399 223.74 228.115C223.08 227.823 222.528 227.42 222.083 226.906C221.646 226.385 221.316 225.778 221.094 225.083C220.878 224.389 220.771 223.635 220.771 222.823V222.583C220.771 221.771 220.878 221.017 221.094 220.323C221.316 219.622 221.646 219.014 222.083 218.5C222.528 217.979 223.076 217.576 223.729 217.292C224.389 217 225.156 216.854 226.031 216.854C226.969 216.854 227.795 217.031 228.51 217.385C229.233 217.74 229.799 218.253 230.208 218.927C230.618 219.601 230.819 220.417 230.813 221.375H227.51C227.517 221.035 227.465 220.729 227.354 220.458C227.243 220.187 227.069 219.972 226.833 219.812C226.604 219.646 226.309 219.562 225.948 219.562C225.587 219.562 225.295 219.642 225.073 219.802C224.851 219.962 224.681 220.184 224.563 220.469C224.451 220.747 224.375 221.066 224.333 221.427C224.299 221.788 224.281 222.174 224.281 222.583V222.823C224.281 223.24 224.299 223.632 224.333 224C224.375 224.361 224.455 224.681 224.573 224.958C224.691 225.229 224.861 225.444 225.083 225.604C225.306 225.757 225.601 225.833 225.969 225.833ZM238.25 217.062V219.5H231.458V217.062H238.25ZM232.885 214.26H236.396V224.656C236.396 224.955 236.431 225.187 236.5 225.354C236.569 225.514 236.688 225.628 236.854 225.698C237.028 225.76 237.257 225.792 237.542 225.792C237.743 225.792 237.91 225.788 238.042 225.781C238.174 225.767 238.299 225.75 238.417 225.729V228.24C238.118 228.337 237.806 228.41 237.479 228.458C237.153 228.514 236.806 228.542 236.438 228.542C235.688 228.542 235.045 228.424 234.51 228.187C233.983 227.951 233.58 227.58 233.302 227.073C233.024 226.566 232.885 225.906 232.885 225.094V214.26Z" fill="white"/>
<rect x="339" y="196.333" width="208" height="49.3333" rx="4.66667" fill="#888888" stroke="#888888" stroke-width="4"/>
<path d="M419.073 225.521V228.333H411.406V225.521H419.073ZM412.708 213.167V228.333H409.052V213.167H412.708ZM426.302 225.5V220.854C426.302 220.535 426.257 220.26 426.167 220.031C426.076 219.802 425.934 219.625 425.74 219.5C425.545 219.368 425.285 219.302 424.958 219.302C424.694 219.302 424.469 219.347 424.281 219.437C424.094 219.528 423.951 219.663 423.854 219.844C423.757 220.024 423.708 220.253 423.708 220.531H420.198C420.198 220.01 420.312 219.528 420.542 219.083C420.778 218.632 421.111 218.24 421.542 217.906C421.979 217.573 422.5 217.316 423.104 217.135C423.715 216.948 424.396 216.854 425.146 216.854C426.042 216.854 426.84 217.003 427.542 217.302C428.25 217.601 428.809 218.049 429.219 218.646C429.628 219.236 429.833 219.979 429.833 220.875V225.49C429.833 226.226 429.875 226.785 429.958 227.167C430.042 227.542 430.16 227.872 430.312 228.156V228.333H426.792C426.625 227.986 426.5 227.562 426.417 227.062C426.34 226.556 426.302 226.035 426.302 225.5ZM426.729 221.448L426.75 223.323H425.198C424.872 223.323 424.594 223.368 424.365 223.458C424.142 223.549 423.962 223.674 423.823 223.833C423.691 223.986 423.594 224.16 423.531 224.354C423.476 224.549 423.448 224.753 423.448 224.969C423.448 225.177 423.497 225.365 423.594 225.531C423.698 225.691 423.837 225.816 424.01 225.906C424.184 225.997 424.378 226.042 424.594 226.042C424.983 226.042 425.312 225.969 425.583 225.823C425.861 225.67 426.073 225.486 426.219 225.271C426.365 225.056 426.437 224.854 426.437 224.667L427.208 226.104C427.069 226.382 426.91 226.663 426.729 226.948C426.556 227.233 426.337 227.497 426.073 227.74C425.816 227.976 425.5 228.17 425.125 228.323C424.75 228.469 424.295 228.542 423.76 228.542C423.066 228.542 422.427 228.399 421.844 228.115C421.267 227.83 420.806 227.434 420.458 226.927C420.111 226.413 419.937 225.823 419.937 225.156C419.937 224.573 420.042 224.052 420.25 223.594C420.465 223.135 420.788 222.747 421.219 222.427C421.649 222.108 422.198 221.865 422.865 221.698C423.531 221.531 424.316 221.448 425.219 221.448H426.729ZM435.323 219.854V228.333H431.812V217.062H435.094L435.323 219.854ZM438.656 216.979L438.594 220.24C438.455 220.226 438.267 220.208 438.031 220.187C437.795 220.167 437.597 220.156 437.437 220.156C437.028 220.156 436.674 220.205 436.375 220.302C436.083 220.392 435.84 220.531 435.646 220.719C435.458 220.899 435.319 221.128 435.229 221.406C435.146 221.684 435.108 222.007 435.115 222.375L434.479 221.958C434.479 221.201 434.552 220.514 434.698 219.896C434.851 219.271 435.066 218.733 435.344 218.281C435.622 217.823 435.958 217.472 436.354 217.229C436.75 216.979 437.194 216.854 437.687 216.854C437.861 216.854 438.031 216.865 438.198 216.885C438.372 216.906 438.524 216.937 438.656 216.979ZM445.406 225.5V220.854C445.406 220.535 445.361 220.26 445.271 220.031C445.181 219.802 445.038 219.625 444.844 219.5C444.649 219.368 444.389 219.302 444.063 219.302C443.799 219.302 443.573 219.347 443.385 219.437C443.198 219.528 443.056 219.663 442.958 219.844C442.861 220.024 442.813 220.253 442.813 220.531H439.302C439.302 220.01 439.417 219.528 439.646 219.083C439.882 218.632 440.215 218.24 440.646 217.906C441.083 217.573 441.604 217.316 442.208 217.135C442.819 216.948 443.5 216.854 444.25 216.854C445.146 216.854 445.944 217.003 446.646 217.302C447.354 217.601 447.913 218.049 448.323 218.646C448.733 219.236 448.938 219.979 448.938 220.875V225.49C448.938 226.226 448.979 226.785 449.063 227.167C449.146 227.542 449.264 227.872 449.417 228.156V228.333H445.896C445.729 227.986 445.604 227.562 445.521 227.062C445.444 226.556 445.406 226.035 445.406 225.5ZM445.833 221.448L445.854 223.323H444.302C443.976 223.323 443.698 223.368 443.469 223.458C443.247 223.549 443.066 223.674 442.927 223.833C442.795 223.986 442.698 224.16 442.635 224.354C442.58 224.549 442.552 224.753 442.552 224.969C442.552 225.177 442.601 225.365 442.698 225.531C442.802 225.691 442.941 225.816 443.115 225.906C443.288 225.997 443.483 226.042 443.698 226.042C444.087 226.042 444.417 225.969 444.688 225.823C444.965 225.67 445.177 225.486 445.323 225.271C445.469 225.056 445.542 224.854 445.542 224.667L446.313 226.104C446.174 226.382 446.014 226.663 445.833 226.948C445.66 227.233 445.441 227.497 445.177 227.74C444.92 227.976 444.604 228.17 444.229 228.323C443.854 228.469 443.399 228.542 442.865 228.542C442.17 228.542 441.531 228.399 440.948 228.115C440.372 227.83 439.91 227.434 439.563 226.927C439.215 226.413 439.042 225.823 439.042 225.156C439.042 224.573 439.146 224.052 439.354 223.594C439.569 223.135 439.892 222.747 440.323 222.427C440.753 222.108 441.302 221.865 441.969 221.698C442.635 221.531 443.42 221.448 444.323 221.448H445.833ZM454.781 225.927L457 217.062H460.698L457.01 228.333H454.823L454.781 225.927ZM453.469 217.062L455.656 225.927L455.635 228.333H453.437L449.76 217.062H453.469ZM467.052 228.542C466.135 228.542 465.316 228.399 464.594 228.115C463.872 227.823 463.26 227.424 462.76 226.917C462.267 226.41 461.889 225.826 461.625 225.167C461.368 224.507 461.24 223.809 461.24 223.073V222.677C461.24 221.851 461.354 221.087 461.583 220.385C461.812 219.677 462.153 219.059 462.604 218.531C463.056 218.003 463.622 217.594 464.302 217.302C464.983 217.003 465.774 216.854 466.677 216.854C467.476 216.854 468.191 216.983 468.823 217.24C469.455 217.497 469.99 217.865 470.427 218.344C470.872 218.823 471.208 219.403 471.437 220.083C471.674 220.764 471.792 221.528 471.792 222.375V223.802H462.583V221.604H468.365V221.333C468.372 220.958 468.306 220.639 468.167 220.375C468.035 220.111 467.84 219.91 467.583 219.771C467.326 219.632 467.014 219.562 466.646 219.562C466.264 219.562 465.948 219.646 465.698 219.812C465.455 219.979 465.264 220.208 465.125 220.5C464.993 220.785 464.899 221.115 464.844 221.49C464.788 221.865 464.76 222.26 464.76 222.677V223.073C464.76 223.49 464.816 223.868 464.927 224.208C465.045 224.549 465.212 224.84 465.427 225.083C465.649 225.319 465.913 225.503 466.219 225.635C466.531 225.767 466.885 225.833 467.281 225.833C467.76 225.833 468.233 225.743 468.698 225.562C469.163 225.382 469.562 225.083 469.896 224.667L471.49 226.562C471.26 226.889 470.934 227.205 470.51 227.51C470.094 227.816 469.594 228.066 469.01 228.26C468.427 228.448 467.774 228.542 467.052 228.542ZM476.927 212.333V228.333H473.406V212.333H476.927Z" fill="white"/>
<rect x="571" y="196.333" width="208" height="49.3333" rx="4.66667" fill="#888888" stroke="#888888" stroke-width="4"/>
<path d="M638.333 213.167V228.333H634.677V213.167H638.333ZM644.229 219.479V222.292H637.292V219.479H644.229ZM644.823 213.167V215.99H637.292V213.167H644.823ZM649.885 217.062V228.333H646.365V217.062H649.885ZM646.156 214.156C646.156 213.656 646.337 213.247 646.698 212.927C647.059 212.608 647.528 212.448 648.104 212.448C648.681 212.448 649.149 212.608 649.51 212.927C649.872 213.247 650.052 213.656 650.052 214.156C650.052 214.656 649.872 215.066 649.51 215.385C649.149 215.705 648.681 215.865 648.104 215.865C647.528 215.865 647.059 215.705 646.698 215.385C646.337 215.066 646.156 214.656 646.156 214.156ZM655.594 219.854V228.333H652.083V217.062H655.365L655.594 219.854ZM658.927 216.979L658.865 220.24C658.726 220.226 658.538 220.208 658.302 220.187C658.066 220.167 657.868 220.156 657.708 220.156C657.299 220.156 656.944 220.205 656.646 220.302C656.354 220.392 656.111 220.531 655.917 220.719C655.729 220.899 655.59 221.128 655.5 221.406C655.417 221.684 655.378 222.007 655.385 222.375L654.75 221.958C654.75 221.201 654.823 220.514 654.969 219.896C655.122 219.271 655.337 218.733 655.615 218.281C655.892 217.823 656.229 217.472 656.625 217.229C657.021 216.979 657.465 216.854 657.958 216.854C658.132 216.854 658.302 216.865 658.469 216.885C658.642 216.906 658.795 216.937 658.927 216.979ZM665.385 228.542C664.469 228.542 663.649 228.399 662.927 228.115C662.205 227.823 661.594 227.424 661.094 226.917C660.601 226.41 660.222 225.826 659.958 225.167C659.701 224.507 659.573 223.809 659.573 223.073V222.677C659.573 221.851 659.688 221.087 659.917 220.385C660.146 219.677 660.486 219.059 660.938 218.531C661.389 218.003 661.955 217.594 662.635 217.302C663.316 217.003 664.108 216.854 665.01 216.854C665.809 216.854 666.524 216.983 667.156 217.24C667.788 217.497 668.323 217.865 668.76 218.344C669.205 218.823 669.542 219.403 669.771 220.083C670.007 220.764 670.125 221.528 670.125 222.375V223.802H660.917V221.604H666.698V221.333C666.705 220.958 666.639 220.639 666.5 220.375C666.368 220.111 666.174 219.91 665.917 219.771C665.66 219.632 665.347 219.562 664.979 219.562C664.597 219.562 664.281 219.646 664.031 219.812C663.788 219.979 663.597 220.208 663.458 220.5C663.326 220.785 663.233 221.115 663.177 221.49C663.122 221.865 663.094 222.26 663.094 222.677V223.073C663.094 223.49 663.149 223.868 663.26 224.208C663.378 224.549 663.545 224.84 663.76 225.083C663.983 225.319 664.247 225.503 664.552 225.635C664.865 225.767 665.219 225.833 665.615 225.833C666.094 225.833 666.566 225.743 667.031 225.562C667.497 225.382 667.896 225.083 668.229 224.667L669.823 226.562C669.594 226.889 669.267 227.205 668.844 227.51C668.427 227.816 667.927 228.066 667.344 228.26C666.76 228.448 666.108 228.542 665.385 228.542ZM671.583 212.333H675.094V225.562L674.729 228.333H671.583V212.333ZM682.01 222.573V222.792C682.01 223.646 681.924 224.424 681.75 225.125C681.576 225.826 681.309 226.434 680.948 226.948C680.587 227.455 680.132 227.847 679.583 228.125C679.035 228.403 678.385 228.542 677.635 228.542C676.955 228.542 676.372 228.396 675.885 228.104C675.399 227.806 674.993 227.396 674.667 226.875C674.34 226.347 674.076 225.74 673.875 225.052C673.674 224.358 673.514 223.615 673.396 222.823V222.562C673.514 221.778 673.674 221.042 673.875 220.354C674.076 219.66 674.34 219.052 674.667 218.531C674.993 218.003 675.396 217.594 675.875 217.302C676.361 217.003 676.941 216.854 677.615 216.854C678.372 216.854 679.024 216.997 679.573 217.281C680.128 217.566 680.587 217.965 680.948 218.479C681.309 218.993 681.576 219.597 681.75 220.292C681.924 220.986 682.01 221.747 682.01 222.573ZM678.5 222.792V222.573C678.5 222.163 678.476 221.778 678.427 221.417C678.378 221.056 678.292 220.736 678.167 220.458C678.042 220.181 677.865 219.962 677.635 219.802C677.406 219.642 677.108 219.562 676.74 219.562C676.365 219.562 676.049 219.625 675.792 219.75C675.542 219.875 675.34 220.056 675.188 220.292C675.042 220.521 674.938 220.806 674.875 221.146C674.813 221.479 674.785 221.858 674.792 222.281V223.104C674.778 223.681 674.83 224.174 674.948 224.583C675.066 224.993 675.271 225.306 675.563 225.521C675.854 225.736 676.253 225.844 676.76 225.844C677.135 225.844 677.438 225.771 677.667 225.625C677.903 225.479 678.08 225.271 678.198 225C678.316 224.729 678.396 224.406 678.438 224.031C678.479 223.656 678.5 223.243 678.5 222.792ZM689.427 225.5V220.854C689.427 220.535 689.382 220.26 689.292 220.031C689.201 219.802 689.059 219.625 688.865 219.5C688.67 219.368 688.41 219.302 688.083 219.302C687.819 219.302 687.594 219.347 687.406 219.437C687.219 219.528 687.076 219.663 686.979 219.844C686.882 220.024 686.833 220.253 686.833 220.531H683.323C683.323 220.01 683.437 219.528 683.667 219.083C683.903 218.632 684.236 218.24 684.667 217.906C685.104 217.573 685.625 217.316 686.229 217.135C686.84 216.948 687.521 216.854 688.271 216.854C689.167 216.854 689.965 217.003 690.667 217.302C691.375 217.601 691.934 218.049 692.344 218.646C692.753 219.236 692.958 219.979 692.958 220.875V225.49C692.958 226.226 693 226.785 693.083 227.167C693.167 227.542 693.285 227.872 693.437 228.156V228.333H689.917C689.75 227.986 689.625 227.562 689.542 227.062C689.465 226.556 689.427 226.035 689.427 225.5ZM689.854 221.448L689.875 223.323H688.323C687.997 223.323 687.719 223.368 687.49 223.458C687.267 223.549 687.087 223.674 686.948 223.833C686.816 223.986 686.719 224.16 686.656 224.354C686.601 224.549 686.573 224.753 686.573 224.969C686.573 225.177 686.622 225.365 686.719 225.531C686.823 225.691 686.962 225.816 687.135 225.906C687.309 225.997 687.503 226.042 687.719 226.042C688.108 226.042 688.437 225.969 688.708 225.823C688.986 225.67 689.198 225.486 689.344 225.271C689.49 225.056 689.562 224.854 689.562 224.667L690.333 226.104C690.194 226.382 690.035 226.663 689.854 226.948C689.681 227.233 689.462 227.497 689.198 227.74C688.941 227.976 688.625 228.17 688.25 228.323C687.875 228.469 687.42 228.542 686.885 228.542C686.191 228.542 685.552 228.399 684.969 228.115C684.392 227.83 683.931 227.434 683.583 226.927C683.236 226.413 683.062 225.823 683.062 225.156C683.062 224.573 683.167 224.052 683.375 223.594C683.59 223.135 683.913 222.747 684.344 222.427C684.774 222.108 685.323 221.865 685.99 221.698C686.656 221.531 687.441 221.448 688.344 221.448H689.854ZM700.812 225.167C700.812 224.972 700.747 224.806 700.615 224.667C700.49 224.521 700.267 224.389 699.948 224.271C699.628 224.146 699.181 224.021 698.604 223.896C698.056 223.778 697.538 223.622 697.052 223.427C696.573 223.233 696.153 222.997 695.792 222.719C695.431 222.441 695.146 222.111 694.937 221.729C694.736 221.347 694.635 220.91 694.635 220.417C694.635 219.937 694.736 219.486 694.937 219.062C695.146 218.632 695.448 218.253 695.844 217.927C696.247 217.594 696.736 217.333 697.312 217.146C697.889 216.951 698.545 216.854 699.281 216.854C700.295 216.854 701.17 217.01 701.906 217.323C702.642 217.628 703.208 218.059 703.604 218.615C704.007 219.163 704.208 219.799 704.208 220.521H700.698C700.698 220.236 700.649 219.993 700.552 219.792C700.462 219.59 700.312 219.437 700.104 219.333C699.896 219.222 699.618 219.167 699.271 219.167C699.028 219.167 698.806 219.212 698.604 219.302C698.41 219.392 698.253 219.517 698.135 219.677C698.017 219.837 697.958 220.024 697.958 220.24C697.958 220.392 697.993 220.531 698.062 220.656C698.139 220.774 698.253 220.885 698.406 220.99C698.559 221.087 698.753 221.177 698.99 221.26C699.226 221.337 699.51 221.406 699.844 221.469C700.601 221.608 701.309 221.806 701.969 222.062C702.628 222.319 703.163 222.684 703.573 223.156C703.99 223.628 704.198 224.264 704.198 225.062C704.198 225.562 704.083 226.024 703.854 226.448C703.625 226.865 703.295 227.233 702.865 227.552C702.434 227.865 701.917 228.108 701.312 228.281C700.708 228.455 700.028 228.542 699.271 228.542C698.194 228.542 697.285 228.351 696.542 227.969C695.799 227.58 695.236 227.094 694.854 226.51C694.479 225.92 694.292 225.323 694.292 224.719H697.562C697.576 225.066 697.66 225.351 697.812 225.573C697.972 225.795 698.184 225.958 698.448 226.062C698.712 226.167 699.017 226.219 699.365 226.219C699.684 226.219 699.948 226.174 700.156 226.083C700.372 225.993 700.535 225.872 700.646 225.719C700.757 225.559 700.812 225.375 700.812 225.167ZM711.302 228.542C710.385 228.542 709.566 228.399 708.844 228.115C708.122 227.823 707.51 227.424 707.01 226.917C706.517 226.41 706.139 225.826 705.875 225.167C705.618 224.507 705.49 223.809 705.49 223.073V222.677C705.49 221.851 705.604 221.087 705.833 220.385C706.062 219.677 706.403 219.059 706.854 218.531C707.306 218.003 707.872 217.594 708.552 217.302C709.233 217.003 710.024 216.854 710.927 216.854C711.726 216.854 712.441 216.983 713.073 217.24C713.705 217.497 714.24 217.865 714.677 218.344C715.122 218.823 715.458 219.403 715.687 220.083C715.924 220.764 716.042 221.528 716.042 222.375V223.802H706.833V221.604H712.615V221.333C712.622 220.958 712.556 220.639 712.417 220.375C712.285 220.111 712.09 219.91 711.833 219.771C711.576 219.632 711.264 219.562 710.896 219.562C710.514 219.562 710.198 219.646 709.948 219.812C709.705 219.979 709.514 220.208 709.375 220.5C709.243 220.785 709.149 221.115 709.094 221.49C709.038 221.865 709.01 222.26 709.01 222.677V223.073C709.01 223.49 709.066 223.868 709.177 224.208C709.295 224.549 709.462 224.84 709.677 225.083C709.899 225.319 710.163 225.503 710.469 225.635C710.781 225.767 711.135 225.833 711.531 225.833C712.01 225.833 712.483 225.743 712.948 225.562C713.413 225.382 713.812 225.083 714.146 224.667L715.74 226.562C715.51 226.889 715.184 227.205 714.76 227.51C714.344 227.816 713.844 228.066 713.26 228.26C712.677 228.448 712.024 228.542 711.302 228.542Z" fill="white"/>
<rect x="803" y="196.333" width="208" height="49.3333" rx="4.66667" fill="#888888" stroke="#888888" stroke-width="4"/>
<path d="M880.427 225.521V228.333H872.344V225.521H880.427ZM873.646 213.167V228.333H869.99V213.167H873.646ZM879.385 219.187V221.906H872.344V219.187H879.385ZM880.458 213.167V215.99H872.344V213.167H880.458ZM885.302 219.448V228.333H881.792V217.062H885.083L885.302 219.448ZM884.875 222.312L884.073 222.333C884.073 221.542 884.167 220.812 884.354 220.146C884.542 219.479 884.819 218.899 885.187 218.406C885.556 217.913 886.007 217.531 886.542 217.26C887.083 216.99 887.708 216.854 888.417 216.854C888.91 216.854 889.358 216.931 889.76 217.083C890.163 217.229 890.51 217.462 890.802 217.781C891.094 218.094 891.316 218.503 891.469 219.01C891.628 219.51 891.708 220.111 891.708 220.812V228.333H888.198V221.26C888.198 220.781 888.142 220.42 888.031 220.177C887.927 219.934 887.774 219.771 887.573 219.687C887.372 219.604 887.125 219.562 886.833 219.562C886.528 219.562 886.253 219.632 886.01 219.771C885.767 219.91 885.559 220.104 885.385 220.354C885.219 220.597 885.09 220.885 885 221.219C884.917 221.552 884.875 221.917 884.875 222.312ZM891.312 222.312L890.333 222.333C890.333 221.542 890.42 220.812 890.594 220.146C890.774 219.479 891.042 218.899 891.396 218.406C891.757 217.913 892.205 217.531 892.74 217.26C893.274 216.99 893.896 216.854 894.604 216.854C895.118 216.854 895.59 216.931 896.021 217.083C896.451 217.236 896.823 217.483 897.135 217.823C897.448 218.163 897.691 218.615 897.865 219.177C898.038 219.733 898.125 220.42 898.125 221.24V228.333H894.604V221.24C894.604 220.774 894.549 220.424 894.437 220.187C894.333 219.944 894.181 219.781 893.979 219.698C893.778 219.608 893.538 219.562 893.26 219.562C892.927 219.562 892.639 219.632 892.396 219.771C892.153 219.91 891.948 220.104 891.781 220.354C891.622 220.597 891.503 220.885 891.427 221.219C891.351 221.552 891.312 221.917 891.312 222.312ZM905.99 225.5V220.854C905.99 220.535 905.944 220.26 905.854 220.031C905.764 219.802 905.622 219.625 905.427 219.5C905.233 219.368 904.972 219.302 904.646 219.302C904.382 219.302 904.156 219.347 903.969 219.437C903.781 219.528 903.639 219.663 903.542 219.844C903.444 220.024 903.396 220.253 903.396 220.531H899.885C899.885 220.01 900 219.528 900.229 219.083C900.465 218.632 900.799 218.24 901.229 217.906C901.667 217.573 902.187 217.316 902.792 217.135C903.403 216.948 904.083 216.854 904.833 216.854C905.729 216.854 906.528 217.003 907.229 217.302C907.937 217.601 908.497 218.049 908.906 218.646C909.316 219.236 909.521 219.979 909.521 220.875V225.49C909.521 226.226 909.562 226.785 909.646 227.167C909.729 227.542 909.847 227.872 910 228.156V228.333H906.479C906.312 227.986 906.187 227.562 906.104 227.062C906.028 226.556 905.99 226.035 905.99 225.5ZM906.417 221.448L906.437 223.323H904.885C904.559 223.323 904.281 223.368 904.052 223.458C903.83 223.549 903.649 223.674 903.51 223.833C903.378 223.986 903.281 224.16 903.219 224.354C903.163 224.549 903.135 224.753 903.135 224.969C903.135 225.177 903.184 225.365 903.281 225.531C903.385 225.691 903.524 225.816 903.698 225.906C903.872 225.997 904.066 226.042 904.281 226.042C904.67 226.042 905 225.969 905.271 225.823C905.549 225.67 905.76 225.486 905.906 225.271C906.052 225.056 906.125 224.854 906.125 224.667L906.896 226.104C906.757 226.382 906.597 226.663 906.417 226.948C906.243 227.233 906.024 227.497 905.76 227.74C905.503 227.976 905.187 228.17 904.812 228.323C904.437 228.469 903.983 228.542 903.448 228.542C902.753 228.542 902.115 228.399 901.531 228.115C900.955 227.83 900.493 227.434 900.146 226.927C899.799 226.413 899.625 225.823 899.625 225.156C899.625 224.573 899.729 224.052 899.937 223.594C900.153 223.135 900.476 222.747 900.906 222.427C901.337 222.108 901.885 221.865 902.552 221.698C903.219 221.531 904.003 221.448 904.906 221.448H906.417ZM915.177 217.062V228.333H911.656V217.062H915.177ZM911.448 214.156C911.448 213.656 911.628 213.247 911.99 212.927C912.351 212.608 912.819 212.448 913.396 212.448C913.972 212.448 914.441 212.608 914.802 212.927C915.163 213.247 915.344 213.656 915.344 214.156C915.344 214.656 915.163 215.066 914.802 215.385C914.441 215.705 913.972 215.865 913.396 215.865C912.819 215.865 912.351 215.705 911.99 215.385C911.628 215.066 911.448 214.656 911.448 214.156ZM921.052 212.333V228.333H917.531V212.333H921.052ZM929.417 223.573V213.167H933.062V223.573C933.062 224.587 932.83 225.465 932.365 226.208C931.906 226.951 931.281 227.528 930.49 227.937C929.705 228.34 928.823 228.542 927.844 228.542C926.83 228.542 925.927 228.372 925.135 228.031C924.351 227.691 923.733 227.167 923.281 226.458C922.837 225.75 922.615 224.847 922.615 223.75H926.281C926.281 224.264 926.34 224.667 926.458 224.958C926.576 225.243 926.75 225.444 926.979 225.562C927.215 225.674 927.503 225.729 927.844 225.729C928.177 225.729 928.458 225.646 928.687 225.479C928.924 225.306 929.104 225.059 929.229 224.74C929.354 224.413 929.417 224.024 929.417 223.573ZM941.125 225.167C941.125 224.972 941.059 224.806 940.927 224.667C940.802 224.521 940.58 224.389 940.26 224.271C939.941 224.146 939.493 224.021 938.917 223.896C938.368 223.778 937.851 223.622 937.365 223.427C936.885 223.233 936.465 222.997 936.104 222.719C935.743 222.441 935.458 222.111 935.25 221.729C935.049 221.347 934.948 220.91 934.948 220.417C934.948 219.937 935.049 219.486 935.25 219.062C935.458 218.632 935.76 218.253 936.156 217.927C936.559 217.594 937.049 217.333 937.625 217.146C938.201 216.951 938.858 216.854 939.594 216.854C940.608 216.854 941.483 217.01 942.219 217.323C942.955 217.628 943.521 218.059 943.917 218.615C944.319 219.163 944.521 219.799 944.521 220.521H941.01C941.01 220.236 940.962 219.993 940.865 219.792C940.774 219.59 940.625 219.437 940.417 219.333C940.208 219.222 939.931 219.167 939.583 219.167C939.34 219.167 939.118 219.212 938.917 219.302C938.722 219.392 938.566 219.517 938.448 219.677C938.33 219.837 938.271 220.024 938.271 220.24C938.271 220.392 938.306 220.531 938.375 220.656C938.451 220.774 938.566 220.885 938.719 220.99C938.872 221.087 939.066 221.177 939.302 221.26C939.538 221.337 939.823 221.406 940.156 221.469C940.913 221.608 941.622 221.806 942.281 222.062C942.941 222.319 943.476 222.684 943.885 223.156C944.302 223.628 944.51 224.264 944.51 225.062C944.51 225.562 944.396 226.024 944.167 226.448C943.937 226.865 943.608 227.233 943.177 227.552C942.747 227.865 942.229 228.108 941.625 228.281C941.021 228.455 940.34 228.542 939.583 228.542C938.507 228.542 937.597 228.351 936.854 227.969C936.111 227.58 935.549 227.094 935.167 226.51C934.792 225.92 934.604 225.323 934.604 224.719H937.875C937.889 225.066 937.972 225.351 938.125 225.573C938.285 225.795 938.497 225.958 938.76 226.062C939.024 226.167 939.33 226.219 939.677 226.219C939.997 226.219 940.26 226.174 940.469 226.083C940.684 225.993 940.847 225.872 940.958 225.719C941.069 225.559 941.125 225.375 941.125 225.167Z" fill="white"/>
</svg>
