<svg width="1363" height="167" viewBox="0 0 1363 167" fill="none" xmlns="http://www.w3.org/2000/svg">
<rect width="1363" height="167" rx="15" fill="#F0F0F0"/>
<path d="M0 15C0 6.71573 6.71573 0 15 0H37V167H15C6.71573 167 0 160.284 0 152V15Z" fill="#424241"/>
<path d="M104.492 55.2578V58H95.9023V55.2578H104.492ZM97.0391 40.9375V58H93.5234V40.9375H97.0391ZM112.133 58.2344C111.148 58.2344 110.266 58.0781 109.484 57.7656C108.703 57.4453 108.039 57.0039 107.492 56.4414C106.953 55.8789 106.539 55.2266 106.25 54.4844C105.961 53.7344 105.816 52.9375 105.816 52.0938V51.625C105.816 50.6641 105.953 49.7852 106.227 48.9883C106.5 48.1914 106.891 47.5 107.398 46.9141C107.914 46.3281 108.539 45.8789 109.273 45.5664C110.008 45.2461 110.836 45.0859 111.758 45.0859C112.656 45.0859 113.453 45.2344 114.148 45.5312C114.844 45.8281 115.426 46.25 115.895 46.7969C116.371 47.3438 116.73 48 116.973 48.7656C117.215 49.5234 117.336 50.3672 117.336 51.2969V52.7031H107.258V50.4531H114.02V50.1953C114.02 49.7266 113.934 49.3086 113.762 48.9414C113.598 48.5664 113.348 48.2695 113.012 48.0508C112.676 47.832 112.246 47.7227 111.723 47.7227C111.277 47.7227 110.895 47.8203 110.574 48.0156C110.254 48.2109 109.992 48.4844 109.789 48.8359C109.594 49.1875 109.445 49.6016 109.344 50.0781C109.25 50.5469 109.203 51.0625 109.203 51.625V52.0938C109.203 52.6016 109.273 53.0703 109.414 53.5C109.562 53.9297 109.77 54.3008 110.035 54.6133C110.309 54.9258 110.637 55.168 111.02 55.3398C111.41 55.5117 111.852 55.5977 112.344 55.5977C112.953 55.5977 113.52 55.4805 114.043 55.2461C114.574 55.0039 115.031 54.6406 115.414 54.1562L117.055 55.9375C116.789 56.3203 116.426 56.6875 115.965 57.0391C115.512 57.3906 114.965 57.6797 114.324 57.9062C113.684 58.125 112.953 58.2344 112.133 58.2344ZM125.469 45.3203V47.7109H118.086V45.3203H125.469ZM119.914 42.1914H123.289V54.1797C123.289 54.5469 123.336 54.8281 123.43 55.0234C123.531 55.2188 123.68 55.3555 123.875 55.4336C124.07 55.5039 124.316 55.5391 124.613 55.5391C124.824 55.5391 125.012 55.5312 125.176 55.5156C125.348 55.4922 125.492 55.4688 125.609 55.4453L125.621 57.9297C125.332 58.0234 125.02 58.0977 124.684 58.1523C124.348 58.207 123.977 58.2344 123.57 58.2344C122.828 58.2344 122.18 58.1133 121.625 57.8711C121.078 57.6211 120.656 57.2227 120.359 56.6758C120.062 56.1289 119.914 55.4102 119.914 54.5195V42.1914ZM134.246 54.4961C134.246 54.2539 134.176 54.0352 134.035 53.8398C133.895 53.6445 133.633 53.4648 133.25 53.3008C132.875 53.1289 132.332 52.9727 131.621 52.832C130.98 52.6914 130.383 52.5156 129.828 52.3047C129.281 52.0859 128.805 51.8242 128.398 51.5195C128 51.2148 127.688 50.8555 127.461 50.4414C127.234 50.0195 127.121 49.5391 127.121 49C127.121 48.4688 127.234 47.9688 127.461 47.5C127.695 47.0312 128.027 46.6172 128.457 46.2578C128.895 45.8906 129.426 45.6055 130.051 45.4023C130.684 45.1914 131.395 45.0859 132.184 45.0859C133.285 45.0859 134.23 45.2617 135.02 45.6133C135.816 45.9648 136.426 46.4492 136.848 47.0664C137.277 47.6758 137.492 48.3711 137.492 49.1523H134.117C134.117 48.8242 134.047 48.5312 133.906 48.2734C133.773 48.0078 133.562 47.8008 133.273 47.6523C132.992 47.4961 132.625 47.418 132.172 47.418C131.797 47.418 131.473 47.4844 131.199 47.6172C130.926 47.7422 130.715 47.9141 130.566 48.1328C130.426 48.3438 130.355 48.5781 130.355 48.8359C130.355 49.0312 130.395 49.207 130.473 49.3633C130.559 49.5117 130.695 49.6484 130.883 49.7734C131.07 49.8984 131.312 50.0156 131.609 50.125C131.914 50.2266 132.289 50.3203 132.734 50.4062C133.648 50.5938 134.465 50.8398 135.184 51.1445C135.902 51.4414 136.473 51.8477 136.895 52.3633C137.316 52.8711 137.527 53.5391 137.527 54.3672C137.527 54.9297 137.402 55.4453 137.152 55.9141C136.902 56.3828 136.543 56.793 136.074 57.1445C135.605 57.4883 135.043 57.7578 134.387 57.9531C133.738 58.1406 133.008 58.2344 132.195 58.2344C131.016 58.2344 130.016 58.0234 129.195 57.6016C128.383 57.1797 127.766 56.6445 127.344 55.9961C126.93 55.3398 126.723 54.668 126.723 53.9805H129.922C129.938 54.4414 130.055 54.8125 130.273 55.0938C130.5 55.375 130.785 55.5781 131.129 55.7031C131.48 55.8281 131.859 55.8906 132.266 55.8906C132.703 55.8906 133.066 55.832 133.355 55.7148C133.645 55.5898 133.863 55.4258 134.012 55.2227C134.168 55.0117 134.246 54.7695 134.246 54.4961ZM154.789 53.5352C154.789 53.2305 154.742 52.957 154.648 52.7148C154.562 52.4648 154.398 52.2383 154.156 52.0352C153.914 51.8242 153.574 51.6172 153.137 51.4141C152.699 51.2109 152.133 51 151.438 50.7812C150.664 50.5312 149.93 50.25 149.234 49.9375C148.547 49.625 147.938 49.2617 147.406 48.8477C146.883 48.4258 146.469 47.9375 146.164 47.3828C145.867 46.8281 145.719 46.1836 145.719 45.4492C145.719 44.7383 145.875 44.0938 146.188 43.5156C146.5 42.9297 146.938 42.4297 147.5 42.0156C148.062 41.5938 148.727 41.2695 149.492 41.043C150.266 40.8164 151.113 40.7031 152.035 40.7031C153.293 40.7031 154.391 40.9297 155.328 41.3828C156.266 41.8359 156.992 42.457 157.508 43.2461C158.031 44.0352 158.293 44.9375 158.293 45.9531H154.801C154.801 45.4531 154.695 45.0156 154.484 44.6406C154.281 44.2578 153.969 43.957 153.547 43.7383C153.133 43.5195 152.609 43.4102 151.977 43.4102C151.367 43.4102 150.859 43.5039 150.453 43.6914C150.047 43.8711 149.742 44.1172 149.539 44.4297C149.336 44.7344 149.234 45.0781 149.234 45.4609C149.234 45.75 149.305 46.0117 149.445 46.2461C149.594 46.4805 149.812 46.6992 150.102 46.9023C150.391 47.1055 150.746 47.2969 151.168 47.4766C151.59 47.6562 152.078 47.832 152.633 48.0039C153.562 48.2852 154.379 48.6016 155.082 48.9531C155.793 49.3047 156.387 49.6992 156.863 50.1367C157.34 50.5742 157.699 51.0703 157.941 51.625C158.184 52.1797 158.305 52.8086 158.305 53.5117C158.305 54.2539 158.16 54.918 157.871 55.5039C157.582 56.0898 157.164 56.5859 156.617 56.9922C156.07 57.3984 155.418 57.707 154.66 57.918C153.902 58.1289 153.055 58.2344 152.117 58.2344C151.273 58.2344 150.441 58.125 149.621 57.9062C148.801 57.6797 148.055 57.3398 147.383 56.8867C146.719 56.4336 146.188 55.8555 145.789 55.1523C145.391 54.4492 145.191 53.6172 145.191 52.6562H148.719C148.719 53.1875 148.801 53.6367 148.965 54.0039C149.129 54.3711 149.359 54.668 149.656 54.8945C149.961 55.1211 150.32 55.2852 150.734 55.3867C151.156 55.4883 151.617 55.5391 152.117 55.5391C152.727 55.5391 153.227 55.4531 153.617 55.2812C154.016 55.1094 154.309 54.8711 154.496 54.5664C154.691 54.2617 154.789 53.918 154.789 53.5352ZM166.695 45.3203V47.7109H159.312V45.3203H166.695ZM161.141 42.1914H164.516V54.1797C164.516 54.5469 164.562 54.8281 164.656 55.0234C164.758 55.2188 164.906 55.3555 165.102 55.4336C165.297 55.5039 165.543 55.5391 165.84 55.5391C166.051 55.5391 166.238 55.5312 166.402 55.5156C166.574 55.4922 166.719 55.4688 166.836 55.4453L166.848 57.9297C166.559 58.0234 166.246 58.0977 165.91 58.1523C165.574 58.207 165.203 58.2344 164.797 58.2344C164.055 58.2344 163.406 58.1133 162.852 57.8711C162.305 57.6211 161.883 57.2227 161.586 56.6758C161.289 56.1289 161.141 55.4102 161.141 54.5195V42.1914ZM176.117 54.9648V45.3203H179.492V58H176.316L176.117 54.9648ZM176.492 52.3633L177.488 52.3398C177.488 53.1836 177.391 53.9688 177.195 54.6953C177 55.4141 176.707 56.0391 176.316 56.5703C175.926 57.0938 175.434 57.5039 174.84 57.8008C174.246 58.0898 173.547 58.2344 172.742 58.2344C172.125 58.2344 171.555 58.1484 171.031 57.9766C170.516 57.7969 170.07 57.5195 169.695 57.1445C169.328 56.7617 169.039 56.2734 168.828 55.6797C168.625 55.0781 168.523 54.3555 168.523 53.5117V45.3203H171.898V53.5352C171.898 53.9102 171.941 54.2266 172.027 54.4844C172.121 54.7422 172.25 54.9531 172.414 55.1172C172.578 55.2812 172.77 55.3984 172.988 55.4688C173.215 55.5391 173.465 55.5742 173.738 55.5742C174.434 55.5742 174.98 55.4336 175.379 55.1523C175.785 54.8711 176.07 54.4883 176.234 54.0039C176.406 53.5117 176.492 52.9648 176.492 52.3633ZM189.559 55.2344V40H192.957V58H189.898L189.559 55.2344ZM181.543 51.8125V51.5664C181.543 50.5977 181.652 49.7188 181.871 48.9297C182.09 48.1328 182.41 47.4492 182.832 46.8789C183.254 46.3086 183.773 45.8672 184.391 45.5547C185.008 45.2422 185.711 45.0859 186.5 45.0859C187.242 45.0859 187.891 45.2422 188.445 45.5547C189.008 45.8672 189.484 46.3125 189.875 46.8906C190.273 47.4609 190.594 48.1367 190.836 48.918C191.078 49.6914 191.254 50.5391 191.363 51.4609V52C191.254 52.8828 191.078 53.7031 190.836 54.4609C190.594 55.2188 190.273 55.8828 189.875 56.4531C189.484 57.0156 189.008 57.4531 188.445 57.7656C187.883 58.0781 187.227 58.2344 186.477 58.2344C185.688 58.2344 184.984 58.0742 184.367 57.7539C183.758 57.4336 183.242 56.9844 182.82 56.4062C182.406 55.8281 182.09 55.1484 181.871 54.3672C181.652 53.5859 181.543 52.7344 181.543 51.8125ZM184.918 51.5664V51.8125C184.918 52.3359 184.957 52.8242 185.035 53.2773C185.121 53.7305 185.258 54.1328 185.445 54.4844C185.641 54.8281 185.891 55.0977 186.195 55.293C186.508 55.4805 186.887 55.5742 187.332 55.5742C187.91 55.5742 188.387 55.4453 188.762 55.1875C189.137 54.9219 189.422 54.5586 189.617 54.0977C189.82 53.6367 189.938 53.1055 189.969 52.5039V50.9688C189.945 50.4766 189.875 50.0352 189.758 49.6445C189.648 49.2461 189.484 48.9062 189.266 48.625C189.055 48.3438 188.789 48.125 188.469 47.9688C188.156 47.8125 187.785 47.7344 187.355 47.7344C186.918 47.7344 186.543 47.8359 186.23 48.0391C185.918 48.2344 185.664 48.5039 185.469 48.8477C185.281 49.1914 185.141 49.5977 185.047 50.0664C184.961 50.5273 184.918 51.0273 184.918 51.5664ZM199.355 56.5703L202.719 45.3203H206.34L201.242 59.9102C201.133 60.2305 200.984 60.5742 200.797 60.9414C200.617 61.3086 200.371 61.6562 200.059 61.9844C199.754 62.3203 199.367 62.5938 198.898 62.8047C198.438 63.0156 197.871 63.1211 197.199 63.1211C196.879 63.1211 196.617 63.1016 196.414 63.0625C196.211 63.0234 195.969 62.9688 195.688 62.8984V60.4258C195.773 60.4258 195.863 60.4258 195.957 60.4258C196.051 60.4336 196.141 60.4375 196.227 60.4375C196.672 60.4375 197.035 60.3867 197.316 60.2852C197.598 60.1836 197.824 60.0273 197.996 59.8164C198.168 59.6133 198.305 59.3477 198.406 59.0195L199.355 56.5703ZM197.949 45.3203L200.703 54.5078L201.184 58.082L198.887 58.3281L194.328 45.3203H197.949Z" fill="#888888"/>
<path d="M109.93 86.0078V118H102.217V86.0078H109.93ZM119.554 86.0078V91.9624H92.813V86.0078H119.554ZM132.012 118.439C130.079 118.439 128.35 118.139 126.827 117.539C125.303 116.923 124.014 116.081 122.959 115.012C121.919 113.942 121.121 112.712 120.564 111.32C120.022 109.929 119.751 108.457 119.751 106.904V106.069C119.751 104.326 119.993 102.714 120.477 101.235C120.96 99.7407 121.678 98.437 122.63 97.3237C123.582 96.2104 124.776 95.3462 126.211 94.731C127.647 94.1011 129.317 93.7861 131.221 93.7861C132.906 93.7861 134.415 94.0571 135.748 94.5991C137.081 95.1411 138.208 95.9175 139.131 96.9282C140.069 97.939 140.779 99.1621 141.263 100.598C141.761 102.033 142.01 103.645 142.01 105.432V108.442H122.586V103.806H134.781V103.234C134.795 102.443 134.656 101.77 134.363 101.213C134.085 100.656 133.675 100.231 133.133 99.9385C132.591 99.6455 131.932 99.499 131.155 99.499C130.35 99.499 129.683 99.6748 129.156 100.026C128.643 100.378 128.24 100.861 127.947 101.477C127.669 102.077 127.471 102.773 127.354 103.564C127.237 104.355 127.178 105.19 127.178 106.069V106.904C127.178 107.783 127.295 108.581 127.53 109.299C127.779 110.017 128.13 110.632 128.584 111.145C129.053 111.643 129.61 112.031 130.254 112.309C130.914 112.587 131.661 112.727 132.496 112.727C133.506 112.727 134.502 112.536 135.484 112.155C136.465 111.774 137.308 111.145 138.011 110.266L141.373 114.265C140.889 114.953 140.201 115.62 139.307 116.264C138.428 116.909 137.374 117.436 136.143 117.846C134.913 118.242 133.536 118.439 132.012 118.439ZM155.062 112.727C155.75 112.727 156.336 112.602 156.819 112.353C157.317 112.089 157.691 111.723 157.94 111.254C158.204 110.771 158.328 110.192 158.313 109.519H165.279C165.293 111.306 164.854 112.873 163.96 114.221C163.082 115.554 161.88 116.594 160.357 117.341C158.848 118.073 157.142 118.439 155.237 118.439C153.377 118.439 151.751 118.139 150.359 117.539C148.968 116.923 147.803 116.074 146.866 114.99C145.943 113.891 145.247 112.609 144.778 111.145C144.324 109.68 144.097 108.09 144.097 106.376V105.871C144.097 104.157 144.324 102.568 144.778 101.103C145.247 99.6235 145.943 98.3418 146.866 97.2578C147.803 96.1592 148.96 95.3096 150.337 94.709C151.729 94.0938 153.348 93.7861 155.193 93.7861C157.171 93.7861 158.914 94.1597 160.423 94.9067C161.946 95.6538 163.14 96.7378 164.004 98.1587C164.869 99.5796 165.293 101.301 165.279 103.322H158.313C158.328 102.604 158.218 101.96 157.984 101.389C157.75 100.817 157.383 100.363 156.885 100.026C156.402 99.6748 155.779 99.499 155.018 99.499C154.256 99.499 153.641 99.6675 153.172 100.004C152.703 100.341 152.344 100.81 152.095 101.411C151.861 101.997 151.7 102.67 151.612 103.432C151.539 104.194 151.502 105.007 151.502 105.871V106.376C151.502 107.255 151.539 108.083 151.612 108.859C151.7 109.621 151.868 110.295 152.117 110.881C152.366 111.452 152.725 111.906 153.194 112.243C153.663 112.565 154.285 112.727 155.062 112.727ZM175.694 84.25V118H168.289V84.25H175.694ZM174.815 105.3L173.079 105.344C173.079 103.674 173.284 102.136 173.694 100.729C174.104 99.3232 174.69 98.1001 175.452 97.0601C176.214 96.02 177.129 95.2144 178.199 94.6431C179.268 94.0718 180.455 93.7861 181.758 93.7861C182.93 93.7861 184 93.9546 184.966 94.2915C185.948 94.6284 186.79 95.1704 187.493 95.9175C188.211 96.6646 188.76 97.6387 189.141 98.8398C189.537 100.041 189.734 101.506 189.734 103.234V118H182.286V103.19C182.286 102.224 182.146 101.477 181.868 100.949C181.604 100.407 181.224 100.034 180.726 99.8286C180.228 99.6089 179.62 99.499 178.902 99.499C178.038 99.499 177.334 99.6455 176.792 99.9385C176.25 100.231 175.833 100.642 175.54 101.169C175.262 101.682 175.071 102.29 174.969 102.993C174.866 103.696 174.815 104.465 174.815 105.3ZM221.88 109.497C221.88 108.999 221.807 108.552 221.661 108.156C221.514 107.746 221.243 107.365 220.848 107.014C220.452 106.662 219.881 106.311 219.134 105.959C218.401 105.593 217.435 105.212 216.233 104.816C214.827 104.348 213.472 103.82 212.168 103.234C210.865 102.634 209.7 101.938 208.675 101.147C207.649 100.341 206.836 99.4038 206.236 98.3345C205.635 97.2505 205.335 95.9907 205.335 94.5552C205.335 93.1782 205.643 91.9404 206.258 90.8418C206.873 89.7285 207.73 88.7837 208.829 88.0073C209.942 87.2163 211.246 86.6157 212.74 86.2056C214.234 85.7808 215.867 85.5684 217.64 85.5684C219.983 85.5684 222.049 85.9785 223.836 86.7988C225.638 87.6045 227.044 88.7544 228.055 90.2485C229.08 91.728 229.593 93.4785 229.593 95.5H221.924C221.924 94.6943 221.756 93.9839 221.419 93.3687C221.097 92.7534 220.606 92.27 219.947 91.9185C219.288 91.5669 218.46 91.3911 217.464 91.3911C216.497 91.3911 215.684 91.5376 215.025 91.8306C214.366 92.1235 213.868 92.519 213.531 93.0171C213.194 93.5005 213.025 94.0352 213.025 94.6211C213.025 95.1045 213.157 95.5439 213.421 95.9395C213.699 96.3203 214.087 96.6792 214.585 97.0161C215.098 97.353 215.713 97.6753 216.431 97.9829C217.164 98.2905 217.984 98.5908 218.892 98.8838C220.591 99.4258 222.1 100.034 223.418 100.708C224.751 101.367 225.872 102.121 226.78 102.971C227.703 103.806 228.399 104.758 228.868 105.827C229.351 106.896 229.593 108.105 229.593 109.453C229.593 110.888 229.314 112.163 228.758 113.276C228.201 114.389 227.403 115.334 226.363 116.11C225.323 116.872 224.078 117.451 222.627 117.846C221.177 118.242 219.559 118.439 217.771 118.439C216.131 118.439 214.512 118.234 212.916 117.824C211.333 117.399 209.898 116.755 208.609 115.891C207.32 115.012 206.287 113.891 205.511 112.529C204.749 111.152 204.368 109.519 204.368 107.629H212.103C212.103 108.566 212.227 109.357 212.476 110.002C212.725 110.646 213.091 111.167 213.575 111.562C214.058 111.943 214.651 112.221 215.354 112.397C216.058 112.558 216.863 112.639 217.771 112.639C218.753 112.639 219.544 112.5 220.145 112.221C220.745 111.928 221.185 111.547 221.463 111.079C221.741 110.595 221.88 110.068 221.88 109.497ZM245.743 94.2256V99.3672H231.417V94.2256H245.743ZM234.427 88.3149H241.832V110.244C241.832 110.874 241.905 111.364 242.051 111.716C242.198 112.053 242.447 112.294 242.798 112.441C243.165 112.573 243.648 112.639 244.249 112.639C244.673 112.639 245.025 112.631 245.303 112.617C245.582 112.587 245.845 112.551 246.094 112.507V117.802C245.464 118.007 244.805 118.161 244.117 118.264C243.428 118.381 242.696 118.439 241.919 118.439C240.337 118.439 238.982 118.19 237.854 117.692C236.741 117.194 235.892 116.411 235.306 115.341C234.72 114.272 234.427 112.88 234.427 111.167V88.3149ZM261.036 112.023V102.224C261.036 101.55 260.94 100.971 260.75 100.488C260.56 100.004 260.259 99.6309 259.849 99.3672C259.439 99.0889 258.89 98.9497 258.201 98.9497C257.645 98.9497 257.168 99.0449 256.773 99.2354C256.377 99.4258 256.077 99.7114 255.872 100.092C255.667 100.473 255.564 100.957 255.564 101.542H248.16C248.16 100.444 248.401 99.4258 248.885 98.4883C249.383 97.5361 250.086 96.7085 250.994 96.0054C251.917 95.3022 253.016 94.7603 254.29 94.3794C255.579 93.9839 257.015 93.7861 258.597 93.7861C260.486 93.7861 262.171 94.1011 263.65 94.731C265.145 95.3608 266.324 96.3057 267.188 97.5654C268.052 98.8105 268.484 100.378 268.484 102.268V112.001C268.484 113.554 268.572 114.733 268.748 115.539C268.924 116.33 269.173 117.026 269.495 117.626V118H262.068C261.717 117.268 261.453 116.374 261.277 115.319C261.116 114.25 261.036 113.151 261.036 112.023ZM261.937 103.476L261.98 107.431H258.707C258.018 107.431 257.432 107.526 256.949 107.717C256.48 107.907 256.099 108.171 255.806 108.508C255.528 108.83 255.323 109.196 255.191 109.606C255.074 110.017 255.015 110.449 255.015 110.903C255.015 111.342 255.118 111.738 255.323 112.089C255.542 112.426 255.835 112.69 256.202 112.88C256.568 113.071 256.978 113.166 257.432 113.166C258.252 113.166 258.948 113.012 259.52 112.705C260.105 112.382 260.552 111.994 260.86 111.54C261.167 111.086 261.321 110.661 261.321 110.266L262.947 113.298C262.654 113.884 262.317 114.477 261.937 115.078C261.57 115.678 261.109 116.235 260.552 116.748C260.01 117.246 259.344 117.656 258.553 117.978C257.762 118.286 256.802 118.439 255.674 118.439C254.209 118.439 252.862 118.139 251.631 117.539C250.416 116.938 249.441 116.103 248.709 115.034C247.977 113.95 247.61 112.705 247.61 111.298C247.61 110.068 247.83 108.969 248.27 108.002C248.724 107.036 249.405 106.215 250.313 105.542C251.221 104.868 252.378 104.355 253.785 104.003C255.191 103.652 256.846 103.476 258.75 103.476H261.937ZM282.635 112.727C283.323 112.727 283.909 112.602 284.393 112.353C284.891 112.089 285.264 111.723 285.513 111.254C285.777 110.771 285.901 110.192 285.887 109.519H292.852C292.867 111.306 292.427 112.873 291.534 114.221C290.655 115.554 289.454 116.594 287.93 117.341C286.421 118.073 284.715 118.439 282.811 118.439C280.95 118.439 279.324 118.139 277.933 117.539C276.541 116.923 275.376 116.074 274.439 114.99C273.516 113.891 272.82 112.609 272.352 111.145C271.897 109.68 271.67 108.09 271.67 106.376V105.871C271.67 104.157 271.897 102.568 272.352 101.103C272.82 99.6235 273.516 98.3418 274.439 97.2578C275.376 96.1592 276.534 95.3096 277.911 94.709C279.302 94.0938 280.921 93.7861 282.767 93.7861C284.744 93.7861 286.487 94.1597 287.996 94.9067C289.52 95.6538 290.713 96.7378 291.578 98.1587C292.442 99.5796 292.867 101.301 292.852 103.322H285.887C285.901 102.604 285.792 101.96 285.557 101.389C285.323 100.817 284.957 100.363 284.458 100.026C283.975 99.6748 283.353 99.499 282.591 99.499C281.829 99.499 281.214 99.6675 280.745 100.004C280.276 100.341 279.917 100.81 279.668 101.411C279.434 101.997 279.273 102.67 279.185 103.432C279.112 104.194 279.075 105.007 279.075 105.871V106.376C279.075 107.255 279.112 108.083 279.185 108.859C279.273 109.621 279.441 110.295 279.69 110.881C279.939 111.452 280.298 111.906 280.767 112.243C281.236 112.565 281.858 112.727 282.635 112.727ZM303.487 84.228V118H296.082V84.228H303.487ZM318.692 94.2256L308.365 106.333L302.959 111.738L299.729 107.036L304.234 101.169L309.815 94.2256H318.692ZM310.76 118L304.41 107.167L309.881 103.278L319.241 118H310.76Z" fill="#424241"/>
<path d="M1363 15C1363 6.71573 1356.28 0 1348 0H1134V167H1348C1356.28 167 1363 160.284 1363 152V15Z" fill="#186485"/>
<path fill-rule="evenodd" clip-rule="evenodd" d="M1218.5 55C1218.37 55 1218.24 55.0527 1218.15 55.1464C1218.05 55.2402 1218 55.3674 1218 55.5V111.5C1218 111.633 1218.05 111.76 1218.15 111.854C1218.24 111.947 1218.37 112 1218.5 112H1278C1278.13 112 1278.26 111.947 1278.35 111.854C1278.45 111.76 1278.5 111.633 1278.5 111.5V66C1278.5 65.8674 1278.45 65.7402 1278.35 65.6464C1278.26 65.5527 1278.13 65.5 1278 65.5H1248.25C1247.36 65.5 1246.52 65.1045 1245.95 64.4206L1238.09 55H1218.5ZM1213.9 50.9038C1215.12 49.6848 1216.78 49 1218.5 49H1239.5C1240.39 49 1241.23 49.3955 1241.8 50.0794L1249.66 59.5H1278C1279.72 59.5 1281.38 60.1848 1282.6 61.4038C1283.82 62.6228 1284.5 64.2761 1284.5 66V111.5C1284.5 113.224 1283.82 114.877 1282.6 116.096C1281.38 117.315 1279.72 118 1278 118H1218.5C1216.78 118 1215.12 117.315 1213.9 116.096C1212.68 114.877 1212 113.224 1212 111.5V55.5C1212 53.7761 1212.68 52.1228 1213.9 50.9038Z" fill="white"/>
<path fill-rule="evenodd" clip-rule="evenodd" d="M1243.72 77.5251C1245.09 78.892 1245.09 81.108 1243.72 82.4749L1237.45 88.75L1243.72 95.0251C1245.09 96.392 1245.09 98.608 1243.72 99.9749C1242.36 101.342 1240.14 101.342 1238.78 99.9749L1230.03 91.2249C1228.66 89.858 1228.66 87.642 1230.03 86.2751L1238.78 77.5251C1240.14 76.1583 1242.36 76.1583 1243.72 77.5251Z" fill="white"/>
<path fill-rule="evenodd" clip-rule="evenodd" d="M1252.03 99.9749C1250.66 98.608 1250.66 96.392 1252.03 95.0251L1258.3 88.75L1252.03 82.4749C1250.66 81.108 1250.66 78.892 1252.03 77.5251C1253.39 76.1583 1255.61 76.1583 1256.97 77.5251L1265.72 86.2751C1267.09 87.642 1267.09 89.858 1265.72 91.2249L1256.97 99.9749C1255.61 101.342 1253.39 101.342 1252.03 99.9749Z" fill="white"/>
</svg>
